<svg width="64" height="64" viewBox="0 0 64 64" fill="none" xmlns="http://www.w3.org/2000/svg">
<circle cx="32" cy="32" r="31.5" stroke="#D9C287"/>
<circle cx="32" cy="32" r="24" fill="white"/>
<path d="M36.6688 33H34V41H30V33H27V30H30V27.5391C30 26.6016 30 25.5 31 24.5C32 23.5 33.3759 23 35.188 23C37 23 38.5 23.5 38.5 23.5L37 26.5C37 26.5 35 26 34.5 26.5C34 27 34 27.2656 34 27.7578V30H37.5L36.6688 33Z" fill="#1C1C1C"/>
<path d="M36.6688 33H34V41H30V33H27V30H30V27.5391C30 26.6016 30 25.5 31 24.5C32 23.5 33.3759 23 35.188 23C37 23 38.5 23.5 38.5 23.5L37 26.5C37 26.5 35 26 34.5 26.5C34 27 34 27.2656 34 27.7578V30H37.5L36.6688 33Z" fill="#1C1C1C"/>
</svg>
