<svg width="64" height="64" viewBox="0 0 64 64" fill="none" xmlns="http://www.w3.org/2000/svg">
<circle cx="32" cy="32" r="31.5" stroke="#D9C287"/>
<circle cx="32" cy="32" r="24" fill="white"/>
<path d="M39.1367 28.8125C39.1602 28.9038 39.1719 29.0523 39.1719 29.2578C39.1719 30.4681 38.9375 31.6785 38.4688 32.8888C38 34.0763 37.332 35.1725 36.4648 36.1773C35.6211 37.1593 34.5195 37.9585 33.1602 38.5751C31.8008 39.1917 30.3008 39.5 28.6602 39.5C26.5977 39.5 24.7109 38.9633 23 37.89C23.2578 37.9129 23.5508 37.9243 23.8789 37.9243C25.5898 37.9243 27.125 37.4105 28.4844 36.3828C27.6641 36.3828 26.9375 36.1544 26.3047 35.6977C25.6953 35.2181 25.2734 34.6244 25.0391 33.9165C25.2734 33.9393 25.4961 33.9507 25.707 33.9507C26.0352 33.9507 26.3633 33.9165 26.6914 33.848C26.1289 33.7338 25.625 33.5054 25.1797 33.1629C24.7344 32.8203 24.3828 32.4093 24.125 31.9297C23.8672 31.4273 23.7383 30.8906 23.7383 30.3197V30.2512C24.2539 30.5481 24.8047 30.7079 25.3906 30.7308C24.2891 30 23.7383 28.9952 23.7383 27.7163C23.7383 27.0769 23.9141 26.4718 24.2656 25.9008C25.1797 27.0198 26.293 27.9105 27.6055 28.5727C28.9414 29.235 30.3594 29.6004 31.8594 29.6689C31.8125 29.3948 31.7891 29.1208 31.7891 28.8468C31.7891 27.8648 32.1406 27.0198 32.8438 26.3119C33.5703 25.604 34.4375 25.25 35.4453 25.25C36.5234 25.25 37.4258 25.6268 38.1523 26.3804C38.9961 26.2206 39.7812 25.9351 40.5078 25.524C40.2266 26.369 39.6875 27.0312 38.8906 27.5108C39.5938 27.4195 40.2969 27.2254 41 26.9285C40.4844 27.6593 39.8633 28.2873 39.1367 28.8125Z" fill="#1C1C1C"/>
</svg>
