<svg width="64" height="64" viewBox="0 0 64 64" fill="none" xmlns="http://www.w3.org/2000/svg">
<circle cx="32" cy="32" r="31.5" stroke="#D9C287"/>
<circle cx="32" cy="32" r="24" fill="white"/>
<path d="M40.9598 28.3036C40.9866 29.0268 41 30.2589 41 32C41 33.7411 40.9866 34.9732 40.9598 35.6964C40.8795 37.3304 40.3839 38.6027 39.4732 39.5134C38.5893 40.3973 37.3304 40.8661 35.6964 40.9196C34.9732 40.9732 33.7411 41 32 41C30.2589 41 29.0268 40.9732 28.3036 40.9196C26.6696 40.8393 25.4107 40.3571 24.5268 39.4732C24.1786 39.1518 23.8973 38.7768 23.683 38.3482C23.4688 37.9196 23.308 37.5045 23.2009 37.1027C23.1205 36.7009 23.0804 36.2321 23.0804 35.6964C23.0268 34.9732 23 33.7411 23 32C23 30.2589 23.0268 29.0134 23.0804 28.2634C23.1607 26.6562 23.6429 25.4107 24.5268 24.5268C25.4107 23.6161 26.6696 23.1205 28.3036 23.0402C29.0268 23.0134 30.2589 23 32 23C33.7411 23 34.9732 23.0134 35.6964 23.0402C37.3304 23.1205 38.5893 23.6161 39.4732 24.5268C40.3839 25.4107 40.8795 26.6696 40.9598 28.3036ZM38.6384 37.3036C38.7187 37.0893 38.7857 36.8214 38.8393 36.5C38.8929 36.1518 38.933 35.75 38.9598 35.2946C38.9866 34.8125 39 34.4241 39 34.1295C39 33.8348 39 33.4196 39 32.8839C39 32.3482 39 32.0536 39 32C39 31.9196 39 31.625 39 31.1161C39 30.5804 39 30.1652 39 29.8705C39 29.5759 38.9866 29.2009 38.9598 28.7455C38.933 28.2634 38.8929 27.8616 38.8393 27.5402C38.7857 27.192 38.7187 26.9107 38.6384 26.6964C38.317 25.8661 38.1339 25.683 37.3036 25.3616C37.0893 25.2812 36.808 25.2143 36.4598 25.1607C36.1384 25.1071 35.7366 25.067 35.2545 25.0402C34.7991 25.0134 34.4241 25 34.1295 25C33.8616 25 33.4464 25 32.8839 25C32.3482 25 32.0536 25 32 25C31.9464 25 31.6518 25 31.1161 25C30.5804 25 30.1652 25 29.8705 25C29.5759 25 29.1875 25.0134 28.7054 25.0402C28.25 25.067 27.8482 25.1071 27.5 25.1607C27.1786 25.2143 26.9107 25.2812 26.6964 25.3616C25.8661 25.683 25.683 25.8661 25.3616 26.6964C25.2812 26.9107 25.2143 27.192 25.1607 27.5402C25.1071 27.8616 25.067 28.2634 25.0402 28.7455C25.0134 29.2009 25 29.5759 25 29.8705C25 30.1384 25 30.5536 25 31.1161C25 31.6518 25 31.9464 25 32C25 32.1071 25 32.3616 25 32.7634C25 33.1384 25 33.4598 25 33.7277C25 33.9688 25 34.2902 25 34.692C25.0268 35.0938 25.0536 35.442 25.0804 35.7366C25.1071 36.0045 25.1473 36.2857 25.2009 36.5804C25.2545 36.875 25.308 37.1161 25.3616 37.3036C25.7098 38.1339 25.8929 38.317 26.6964 38.6384C26.9107 38.7187 27.1786 38.7857 27.5 38.8393C27.8482 38.8929 28.25 38.933 28.7054 38.9598C29.1875 38.9866 29.5625 39 29.8304 39C30.125 39 30.5402 39 31.0759 39C31.6384 39 31.9464 39 32 39C32.0804 39 32.375 39 32.8839 39C33.4196 39 33.8348 39 34.1295 39C34.4241 39 34.7991 38.9866 35.2545 38.9598C35.7366 38.933 36.1384 38.8929 36.4598 38.8393C36.808 38.7857 37.0893 38.7187 37.3036 38.6384C38.1339 38.2902 38.317 38.1071 38.6384 37.3036Z" fill="#1C1C1C"/>
<path fill-rule="evenodd" clip-rule="evenodd" d="M32 35C33.6569 35 35 33.6569 35 32C35 30.3431 33.6569 29 32 29C30.3431 29 29 30.3431 29 32C29 33.6569 30.3431 35 32 35ZM32 37C34.7614 37 37 34.7614 37 32C37 29.2386 34.7614 27 32 27C29.2386 27 27 29.2386 27 32C27 34.7614 29.2386 37 32 37Z" fill="#1C1C1C"/>
<path d="M38 27C38 27.5523 37.5523 28 37 28C36.4477 28 36 27.5523 36 27C36 26.4477 36.4477 26 37 26C37.5523 26 38 26.4477 38 27Z" fill="#1C1C1C"/>
</svg>
