<?xml version="1.0" standalone="no"?>
<!DOCTYPE svg PUBLIC "-//W3C//DTD SVG 1.1//EN" "http://www.w3.org/Graphics/SVG/1.1/DTD/svg11.dtd" >
<svg>
<metadata>
Created by FontForge 20090914 at Wed Mar 16 17:00:31 2022
 By www-data
Copyright (c) 2017 Swiss Typefaces Sarl. All rights reserved.
</metadata>
<defs>
<font id="SangBleuKingdom-Bold" horiz-adv-x="0" >
  <font-face 
    font-family="SangBleu Kingdom"
    font-weight="700"
    font-stretch="normal"
    units-per-em="1000"
    panose-1="2 4 8 4 8 0 0 0 0 4"
    ascent="800"
    descent="-200"
    x-height="501.999"
    cap-height="758"
    bbox="-360.001 -403.002 1300 1078"
    underline-thickness="71"
    underline-position="-130"
    unicode-range="U+0020-U+FEFF"
  />
<missing-glyph horiz-adv-x="632" 
d="M66 0v758h500v-758h-500zM99 739l217 -343l217 343h-434zM85 728v-698l221 349zM327 379l220 -349v698zM99 19h434l-217 343z" />
    <glyph glyph-name="f_f" unicode="ff" horiz-adv-x="780" 
d="M30 0v31.998l27 2c18 1.33301 29.167 4 33.5 8s6.5 14.667 6.5 32v351h-67v32c22.667 2.66699 41.5 11.334 56.5 26.001s27.833 37 38.5 67c29.333 84 63.5 143.333 102.5 178s91.833 52 158.5 52h32v-139h-154c-31.333 0 -53.5 -4.5 -66.5 -13.5
s-19.5 -23.167 -19.5 -42.5c0 -34 22 -61.667 66 -83h135v-77h-134v-351c0 -9.33301 0.5 -16.333 1.5 -21s4 -8.16699 9 -10.5s9.33301 -3.66602 13 -3.99902s11.167 -0.833008 22.5 -1.5l61 -4v-33h-322zM402 -0.00195312v31.998l27 2c18 1.33301 29.167 4 33.5 8
s6.5 14.667 6.5 32v351h-67v32c22.667 2.66699 41.5 11.334 56.5 26.001s27.833 37 38.5 67c29.333 84 63.5 143.333 102.5 178s91.833 52 158.5 52h32v-139h-154c-31.333 0 -53.5 -4.5 -66.5 -13.5s-19.5 -23.167 -19.5 -42.5c0 -34 22 -61.667 66 -83h194l-48 -77h-145
v-351c0 -9.33301 0.5 -16.333 1.5 -21s4 -8.16699 9 -10.5s9.33301 -3.66602 13 -3.99902s11.167 -0.833008 22.5 -1.5l61 -4v-33h-322z" />
    <glyph glyph-name="f_f_i" unicode="ffi" horiz-adv-x="1088" 
d="M828 710c0 24.667 9.33301 46.334 28 65.001s40.334 28 65.001 28s46.5 -9.33301 65.5 -28s28.5 -40.334 28.5 -65.001c0 -25.333 -9.5 -47.333 -28.5 -66s-40.833 -28 -65.5 -28s-46.334 9.5 -65.001 28.5s-28 40.833 -28 65.5zM26 0v31.998l27 2
c18 1.33301 29.167 4 33.5 8s6.5 14.667 6.5 32v351h-67v32c22.667 2.66699 41.5 11.334 56.5 26.001s27.833 37 38.5 67c29.333 84 63.5 143.333 102.5 178s91.833 52 158.5 52h32v-139h-154c-31.333 0 -53.5 -4.5 -66.5 -13.5s-19.5 -23.167 -19.5 -42.5
c0 -34 22 -61.667 66 -83h135v-77h-134v-351c0 -9.33301 0.5 -16.333 1.5 -21s4 -8.16699 9 -10.5s9.33301 -3.66602 13 -3.99902s11.167 -0.833008 22.5 -1.5l61 -4v-33h-322zM398 -0.00195312v31.998l27 2c18 1.33301 29.167 4 33.5 8s6.5 14.667 6.5 32v351h-67v32
c22.667 2.66699 41.5 11.334 56.5 26.001s27.833 37 38.5 67c29.333 84 63.5 143.333 102.5 178s91.833 52 158.5 52h32v-139h-154c-31.333 0 -53.5 -4.5 -66.5 -13.5s-19.5 -23.167 -19.5 -42.5c0 -34 22 -61.667 66 -83h174l-48 -77h-125v-351
c0 -9.33301 0.5 -16.333 1.5 -21s4 -8.16699 9 -10.5s9.33301 -3.66602 13 -3.99902s11.167 -0.833008 22.5 -1.5l61 -4v-33h-322zM781 -0.00390625v32l27 2c18 1.33301 29.167 4 33.5 8s6.5 14.667 6.5 32v283l-76 72v6l224 94v-455c0 -17.333 2.16699 -28 6.5 -32
s15.5 -6.66699 33.5 -8l27 -2v-32h-282z" />
    <glyph glyph-name="f_f_l" unicode="ffl" horiz-adv-x="1083" 
d="M402 0v31.998l27 2c18 1.33301 29.167 4 33.5 8s6.5 14.667 6.5 32v351h-67v32c22.667 2.66699 41.5 11.334 56.5 26.001s27.833 37 38.5 67c29.333 84 63.5 143.333 102.5 178s91.833 52 158.5 52h32v-48l205 70v-728c0 -17.333 2.16699 -28 6.5 -32
s15.5 -6.66699 33.5 -8l27 -2v-32h-282v32l27 2c18 1.33301 29.167 4 33.5 8s6.5 14.667 6.5 32v581l-57 48v-62h-154c-31.333 0 -53.5 -4.5 -66.5 -13.5s-19.5 -23.167 -19.5 -42.5c0 -34 22 -61.667 66 -83h166l-48 -77h-117v-351c0 -9.33301 0.5 -16.333 1.5 -21
s4 -8.16699 9 -10.5s9.33301 -3.66602 13 -3.99902s11.167 -0.833008 22.5 -1.5l61 -4v-33h-322zM30 -0.00195312v31.998l27 2c18 1.33301 29.167 4 33.5 8s6.5 14.667 6.5 32v351h-67v32c22.667 2.66699 41.5 11.334 56.5 26.001s27.833 37 38.5 67
c29.333 84 63.5 143.333 102.5 178s91.833 52 158.5 52h32v-139h-154c-31.333 0 -53.5 -4.5 -66.5 -13.5s-19.5 -23.167 -19.5 -42.5c0 -34 22 -61.667 66 -83h135v-77h-134v-351c0 -9.33301 0.5 -16.333 1.5 -21s4 -8.16699 9 -10.5s9.33301 -3.66602 13 -3.99902
s11.167 -0.833008 22.5 -1.5l61 -4v-33h-322z" />
    <glyph glyph-name="f_i" unicode="fi" horiz-adv-x="712" 
d="M456 710c0 24.667 9.33301 46.334 28 65.001s40.334 28 65.001 28s46.5 -9.33301 65.5 -28s28.5 -40.334 28.5 -65.001c0 -25.333 -9.5 -47.333 -28.5 -66s-40.833 -28 -65.5 -28s-46.334 9.5 -65.001 28.5s-28 40.833 -28 65.5zM26 0v31.998l27 2
c18 1.33301 29.167 4 33.5 8s6.5 14.667 6.5 32v351h-67v32c22.667 2.66699 41.5 11.334 56.5 26.001s27.833 37 38.5 67c29.333 84 63.5 143.333 102.5 178s91.833 52 158.5 52h32v-139h-154c-31.333 0 -53.5 -4.5 -66.5 -13.5s-19.5 -23.167 -19.5 -42.5
c0 -34 22 -61.667 66 -83h174l-48 -77h-125v-351c0 -9.33301 0.5 -16.333 1.5 -21s4 -8.16699 9 -10.5s9.33301 -3.66602 13 -3.99902s11.167 -0.833008 22.5 -1.5l61 -4v-33h-322zM409 -0.00195312v32l27 2c18 1.33301 29.167 4 33.5 8s6.5 14.667 6.5 32v283l-76 72v6
l224 94v-455c0 -17.333 2.16699 -28 6.5 -32s15.5 -6.66699 33.5 -8l27 -2v-32h-282z" />
    <glyph glyph-name="f_l" unicode="fl" horiz-adv-x="707" 
d="M26 0v31.998l27 2c18 1.33301 29.167 4 33.5 8s6.5 14.667 6.5 32v351h-67v32c22.667 2.66699 41.5 11.334 56.5 26.001s27.833 37 38.5 67c29.333 84 63.5 143.333 102.5 178s91.833 52 158.5 52h32v-48l205 70v-728c0 -17.333 2.16699 -28 6.5 -32
s15.5 -6.66699 33.5 -8l27 -2v-32h-282v32l27 2c18 1.33301 29.167 4 33.5 8s6.5 14.667 6.5 32v581l-57 48v-62h-154c-31.333 0 -53.5 -4.5 -66.5 -13.5s-19.5 -23.167 -19.5 -42.5c0 -34 22 -61.667 66 -83h166l-48 -77h-117v-351c0 -9.33301 0.5 -16.333 1.5 -21
s4 -8.16699 9 -10.5s9.33301 -3.66602 13 -3.99902s11.167 -0.833008 22.5 -1.5l61 -4v-33h-322z" />
    <glyph glyph-name=".notdef" horiz-adv-x="632" 
d="M66 0v758h500v-758h-500zM99 739l217 -343l217 343h-434zM85 728v-698l221 349zM327 379l220 -349v698zM99 19h434l-217 343z" />
    <glyph glyph-name="space" unicode=" " horiz-adv-x="220" 
 />
    <glyph glyph-name="exclam" unicode="!" horiz-adv-x="281" 
d="M123 241c-4 86 -17.168 172.332 -39.501 258.999s-33.5 168.334 -33.5 245.001c0 14.667 15 25 45 31s60 6 90 0s45 -16.333 45 -31c0 -64 -5.16699 -119.167 -15.5 -165.5l-34 -149.5c-12.333 -53.333 -20.166 -116.333 -23.499 -189h-34zM137.999 -13.001
c-26 0 -48.333 9.5 -67 28.5s-28 42.5 -28 70.5c0 26 9.33301 48.333 28 67s41 28 67 28c28 0 51.5 -9.33301 70.5 -28s28.5 -41 28.5 -67c0 -28 -9.5 -51.5 -28.5 -70.5s-42.5 -28.5 -70.5 -28.5z" />
    <glyph glyph-name="quotedbl" unicode="&#x22;" horiz-adv-x="431" 
d="M89 483l-50.001 238c-4.66699 21.333 -1.5 36.333 9.5 45s31.833 13 62.5 13s51.334 -4.33301 62.001 -13s13.667 -23.667 9 -45l-50 -238h-43zM298.999 483l-50.001 238c-4.66699 21.333 -1.5 36.333 9.5 45s31.833 13 62.5 13s51.334 -4.33301 62.001 -13
s13.667 -23.667 9 -45l-50 -238h-43z" />
    <glyph glyph-name="numbersign" unicode="#" horiz-adv-x="890" 
d="M119 0l79 195h-172l30 72h171l90 221h-172l29 72h172l88 216h78l-88 -216h189l88 216h78l-88 -216h172l-29 -72h-172l-90 -221h172l-29 -72h-172l-79 -195h-78l79 195h-189l-79 -195h-78zM305 267h189l90 221h-189z" />
    <glyph glyph-name="dollar" unicode="$" horiz-adv-x="606" 
d="M270 -13c-63.333 0 -117.833 13.667 -163.5 41s-68.5 60.666 -68.5 99.999c0 26.667 12 47.334 36 62.001s53 18 87 10c10 -100.667 49.667 -156 119 -166v288l-53 22c-119.333 48.667 -179 122.667 -179 222c0 54.667 22.667 101.5 68 140.5s100 62.5 164 70.5v113h46
v-111c60.667 -1.33301 112.667 -13.833 156 -37.5s65 -53.5 65 -89.5c0 -24 -11.5 -42.5 -34.5 -55.5s-52.833 -16.5 -89.5 -10.5c-5.33301 46 -15.5 80.167 -30.5 102.5s-37.167 36.5 -66.5 42.5v-250l33 -13c72 -29.333 125.333 -61.833 160 -97.5s52 -81.834 52 -138.501
c0 -62.667 -22.667 -116.167 -68 -160.5s-104.333 -71.166 -177 -80.499v-111h-46v107h-10zM273 503l6.99902 -2.99902v234c-31.333 -2 -57.166 -12.833 -77.499 -32.5s-30.5 -44.834 -30.5 -75.501c0 -54.667 33.667 -95.667 101 -123zM444.999 160.001
c0 32 -8.83301 59 -26.5 81s-48.5 42.667 -92.5 62v-270c36.667 4 65.667 17 87 39s32 51.333 32 88z" />
    <glyph glyph-name="percent" unicode="%" horiz-adv-x="922" 
d="M32 552c0 58.667 15.5 109.834 46.5 153.501s72.5 65.5 124.5 65.5c53.333 0 95.5 -21.833 126.5 -65.5s46.5 -94.834 46.5 -153.501c0 -58 -15.5 -109 -46.5 -153s-73.167 -66 -126.5 -66c-52 0 -93.5 22 -124.5 66s-46.5 95 -46.5 153zM132 0l566 758h92l-566 -758h-92
zM147 552c0 -20.667 0.166992 -36.834 0.5 -48.501s1 -26.167 2 -43.5s2.66699 -31 5 -41s5.5 -20 9.5 -30s9.33301 -17.333 16 -22s14.334 -7 23.001 -7c13.333 0 24 5 32 15s13.667 25.5 17 46.5s5.5 40.333 6.5 58s1.5 41.834 1.5 72.501s-0.5 54.834 -1.5 72.501
s-3.16699 37 -6.5 58s-9 36.5 -17 46.5s-18.667 15 -32 15c-8.66699 0 -16.334 -2.33301 -23.001 -7s-12 -12 -16 -22s-7.16699 -20 -9.5 -30s-4 -23.667 -5 -41s-1.66699 -31.833 -2 -43.5s-0.5 -27.834 -0.5 -48.501zM546 211c0 58.667 15.5 109.834 46.5 153.501
s72.5 65.5 124.5 65.5c53.333 0 95.5 -21.833 126.5 -65.5s46.5 -94.834 46.5 -153.501c0 -58 -15.5 -109 -46.5 -153s-73.167 -66 -126.5 -66c-52 0 -93.5 22 -124.5 66s-46.5 95 -46.5 153zM661 211c0 -20.667 0.166992 -36.834 0.5 -48.501s1 -26.167 2 -43.5
s2.66699 -31 5 -41s5.5 -20 9.5 -30s9.33301 -17.333 16 -22s14.334 -7 23.001 -7c13.333 0 24 5 32 15s13.667 25.5 17 46.5s5.5 40.333 6.5 58s1.5 41.834 1.5 72.501s-0.5 54.834 -1.5 72.501s-3.16699 37 -6.5 58s-9 36.5 -17 46.5s-18.667 15 -32 15
c-8.66699 0 -16.334 -2.33301 -23.001 -7s-12 -12 -16 -22s-7.16699 -20 -9.5 -30s-4 -23.667 -5 -41s-1.66699 -31.833 -2 -43.5s-0.5 -27.834 -0.5 -48.501z" />
    <glyph glyph-name="ampersand" unicode="&#x26;" horiz-adv-x="889" 
d="M308 -13c-84 0 -149.001 22.501 -195.001 67.501s-69 96.5 -69 154.5c0 94 68 169.667 204 227c-60 54 -90 109.333 -90 166c0 48.667 22 90.334 66 125.001s98.667 52 164 52c59.333 0 106.666 -12 141.999 -36s53 -56 53 -96c0 -21.333 -5 -40.5 -15 -57.5
s-25.333 -32.333 -46 -46s-39.167 -24.334 -55.5 -32.001s-38.166 -16.834 -65.499 -27.501c66 -56.667 137.333 -128.667 214 -216l72 123c28.667 48.667 22 74 -20 76l-51 3v32h257v-32l-40 -2c-31.333 -2 -58.666 -22 -81.999 -60l-106 -175
c32 -38 60.667 -74.667 86 -110c39.333 -56 74 -85.333 104 -88l30 -3v-32h-238c-19.333 30.667 -44.333 66 -75 106c-72.667 -79.333 -154 -119 -244 -119zM292.999 656.001c0 -28 7.16895 -53.832 21.502 -77.499s36.166 -48.834 65.499 -75.501
c61.333 25.333 92 70.333 92 135c0 32.667 -7.5 58 -22.5 76s-36.167 27 -63.5 27c-30.667 0 -53.834 -7.66699 -69.501 -23s-23.5 -36 -23.5 -62zM200.001 269.002c0 -56 15.833 -103.667 47.5 -143s74.5 -59 128.5 -59c56 0 106.667 23.667 152 71
c-94.667 119.333 -180.667 212.333 -258 279c-46.667 -30.667 -70 -80 -70 -148z" />
    <glyph glyph-name="quotesingle" unicode="'" horiz-adv-x="221" 
d="M89 483l-50.001 238c-4.66699 21.333 -1.5 36.333 9.5 45s31.833 13 62.5 13s51.334 -4.33301 62.001 -13s13.667 -23.667 9 -45l-50 -238h-43z" />
    <glyph glyph-name="parenleft" unicode="(" horiz-adv-x="317" 
d="M283 -248c-84.667 68.667 -147.667 149.667 -189 243s-62 193.333 -62 300s20.667 206.667 62 300s104.333 174.333 189 243l21 -21c-30.667 -34.667 -56.167 -73.167 -76.5 -115.5s-35 -87.5 -44 -135.5s-15 -92 -18 -132s-4.5 -86.333 -4.5 -139s1.5 -99 4.5 -139
s9 -84 18 -132s23.667 -93.167 44 -135.5s45.833 -80.833 76.5 -115.5z" />
    <glyph glyph-name="parenright" unicode=")" horiz-adv-x="317" 
d="M42 837c84.667 -68.667 147.667 -149.667 189 -243s62 -193.333 62 -300s-20.667 -206.667 -62 -300s-104.333 -174.333 -189 -243l-21 21c30.667 34.667 56.167 73.167 76.5 115.5s35 87.5 44 135.5s15 92 18 132s4.5 86.333 4.5 139s-1.5 99 -4.5 139s-9 84 -18 132
s-23.667 93.167 -44 135.5s-45.833 80.833 -76.5 115.5z" />
    <glyph glyph-name="asterisk" unicode="*" horiz-adv-x="494" 
d="M132 410l-23 16l71 146l-143 75l9 27l160 -23l27 159h28l28 -159l160 22l9 -27l-143 -76l71 -144l-23 -17l-116 113z" />
    <glyph glyph-name="plus" unicode="+" horiz-adv-x="645" 
d="M283 0v225h-229v75h229v216h79v-216h229v-75h-229v-225h-79z" />
    <glyph glyph-name="comma" unicode="," horiz-adv-x="295" 
d="M60 -189l-17.002 32.999c62.667 36.667 94 80 94 130c0 47.333 -32 78 -96 92c-1.33301 30.667 7.83398 56.834 27.501 78.501s45.5 32.5 77.5 32.5c30 0 54.667 -10 74 -30s29 -47.333 29 -82c0 -46.667 -17.167 -93 -51.5 -139s-80.166 -84.333 -137.499 -115z" />
    <glyph glyph-name="hyphen" unicode="-" horiz-adv-x="406" 
d="M56 222v81h294v-81h-294z" />
    <glyph glyph-name="period" unicode="." horiz-adv-x="281" 
d="M138 -13c-26 0 -48.333 9.5 -67 28.5s-28 42.5 -28 70.5c0 26 9.33301 48.333 28 67s41 28 67 28c28 0 51.5 -9.33301 70.5 -28s28.5 -41 28.5 -67c0 -28 -9.5 -51.5 -28.5 -70.5s-42.5 -28.5 -70.5 -28.5z" />
    <glyph glyph-name="slash" unicode="/" horiz-adv-x="486" 
d="M22 -52l343 858h100l-343 -858h-100z" />
    <glyph glyph-name="zero" unicode="0" horiz-adv-x="675" 
d="M40 383c0 65.333 11 127.5 33 186.5s56.167 108.667 102.5 149s100.166 60.5 161.499 60.5s115.333 -20.167 162 -60.5s81 -90 103 -149s33 -121.167 33 -186.5s-11 -127.5 -33 -186.5s-56.333 -108.667 -103 -149s-100.667 -60.5 -162 -60.5
s-115.166 20.167 -161.499 60.5s-80.5 90 -102.5 149s-33 121.167 -33 186.5zM206 383c0 -52 1.83301 -97.6689 5.5 -137.002s10.167 -76.166 19.5 -110.499s22.833 -60.5 40.5 -78.5s39.5 -27 65.5 -27s47.833 9 65.5 27s31.167 44 40.5 78s16 70.833 20 110.5
s6 85.5 6 137.5s-2 97.833 -6 137.5s-10.667 76.5 -20 110.5s-22.833 60 -40.5 78s-39.5 27 -65.5 27s-47.833 -9 -65.5 -27s-31.167 -44.167 -40.5 -78.5s-15.833 -71.166 -19.5 -110.499s-5.5 -85 -5.5 -137z" />
    <glyph glyph-name="one" unicode="1" horiz-adv-x="407" 
d="M143 74v596l-125 -50v37l273 114v-697c0 -17.333 2.16699 -28 6.5 -32s15.5 -6.66699 33.5 -8l27 -2v-32h-292v32l37 2c18 1.33301 29.167 4 33.5 8s6.5 14.667 6.5 32z" />
    <glyph glyph-name="two" unicode="2" horiz-adv-x="578" 
d="M-1 0v4c127.333 130 219.666 239.167 276.999 327.5s86 165.166 86 230.499c0 39.333 -9.66699 72 -29 98s-49.333 39 -90 39c-40 0 -73.5 -14 -100.5 -42s-43.167 -70.667 -48.5 -128h-35c2 80.667 25.667 142.5 71 185.5s103 64.5 173 64.5
c70.667 0 124.5 -17.667 161.5 -53s55.5 -78.666 55.5 -129.999c0 -28.667 -6.66699 -58.334 -20 -89.001s-33 -61.667 -59 -93s-49.5 -57.666 -70.5 -78.999s-47.833 -47 -80.5 -77l-138 -127h211c42.667 0 72.334 3.5 89.001 10.5s30.667 22.5 42 46.5l15 33h35l-53 -221
h-492z" />
    <glyph glyph-name="three" unicode="3" horiz-adv-x="579" 
d="M203 -13c-50.667 0 -93.6689 11.667 -129.002 35s-53 53.333 -53 90c0 24.667 10.5 44.834 31.5 60.501s48.5 20.5 82.5 14.5c19.333 -100 65 -150 137 -150c33.333 0 64.5 12.833 93.5 38.5s43.5 63.167 43.5 112.5c0 58 -17.833 104.833 -53.5 140.5
s-76.5 53.5 -122.5 53.5c-27.333 0 -52.333 -5.33301 -75 -16l-12 37l48 19c46.667 18 85.5 43.5 116.5 76.5s46.5 65.833 46.5 98.5s-10.333 57.834 -31 75.501s-47 26.5 -79 26.5c-35.333 0 -66.666 -10.5 -93.999 -31.5s-45 -56.833 -53 -107.5h-35
c8 69.333 33.333 123.166 76 161.499s100.667 57.5 174 57.5c50.667 0 94 -11.5 130 -34.5s54 -53.167 54 -90.5c0 -34 -13.333 -63.333 -40 -88s-65.667 -46.334 -117 -65.001v-3c63.333 -15.333 112.5 -42.833 147.5 -82.5s52.5 -85.167 52.5 -136.5
c0 -83.333 -34.167 -152.833 -102.5 -208.5s-147.166 -83.5 -236.499 -83.5z" />
    <glyph glyph-name="four" unicode="4" horiz-adv-x="672" 
d="M369 0v190h-374l389 568h133v-461h133v-107h-133v-190h-148zM126 297h243v361z" />
    <glyph glyph-name="five" unicode="5" horiz-adv-x="565" 
d="M193 -13c-50.667 0 -93.668 11.5 -129.001 34.5s-53 52.833 -53 89.5c0 24.667 10.5 44.834 31.5 60.501s48.5 20.5 82.5 14.5c8.66699 -44.667 24.834 -79.834 48.501 -105.501s54.5 -38.5 92.5 -38.5c38.667 0 71 12.667 97 38s39 56.333 39 93
c0 52.667 -24.5 97 -73.5 133s-129.167 65 -240.5 87l95 365h358l-38 -138h-314l-22 -79c228 -42.667 342 -139 342 -289c0 -69.333 -29.667 -130.833 -89 -184.5s-135 -80.5 -227 -80.5z" />
    <glyph glyph-name="six" unicode="6" horiz-adv-x="631" 
d="M589 238c0 -71.333 -27.001 -131.001 -81.001 -179.001s-117.333 -72 -190 -72c-83.333 0 -151.666 26.333 -204.999 79s-80 120.667 -80 204c0 108.667 52.167 215.5 156.5 320.5s238.833 181.5 403.5 229.5l11 -31c-108 -43.333 -195 -100.666 -261 -171.999
s-109.667 -148 -131 -230c50.667 47.333 105 71 163 71c60.667 0 111.5 -18 152.5 -54s61.5 -91.333 61.5 -166zM197.999 276.999c0 -72 11.501 -131.5 34.501 -178.5s53.5 -70.5 91.5 -70.5c32.667 0 57.5 15.5 74.5 46.5s25.5 74.5 25.5 130.5
c0 58.667 -11 104.167 -33 136.5s-52.333 48.5 -91 48.5s-70.334 -13 -95.001 -39c-4.66699 -23.333 -7 -48 -7 -74z" />
    <glyph glyph-name="seven" unicode="7" horiz-adv-x="588" 
d="M91 758l516.999 0.00195312l-255 -367c-68 -98 -118 -205 -150 -321c-1.33301 -5.33301 -2.33301 -9 -3 -11c-6.66699 -25.333 -14.167 -41.5 -22.5 -48.5s-21.5 -11.5 -39.5 -13.5l-66 -8c-18 -2.66699 -30.667 -0.333984 -38 6.99902s-5 21.666 7 42.999l136.5 194
l128 170l170.5 217h-257c-46.667 0 -78.167 -4.16699 -94.5 -12.5s-31.166 -28.5 -44.499 -60.5l-7 -17h-35z" />
    <glyph glyph-name="eight" unicode="8" horiz-adv-x="593" 
d="M289 -13c-73.333 0 -133.501 18.002 -180.501 54.002s-70.5 82.667 -70.5 140c0 74.667 53 135 159 181c-84 54 -126 124 -126 210c0 61.333 22.667 111.166 68 149.499s100.333 57.5 165 57.5c61.333 0 113 -14.333 155 -43s63 -66.334 63 -113.001
c0 -70 -49 -128 -147 -174l2 -1c58 -32 101.833 -66 131.5 -102s44.5 -81.333 44.5 -136c0 -67.333 -26.667 -121.333 -80 -162s-114.666 -61 -183.999 -61zM290.999 496.002l58.999 -33c54 33.333 81 81 81 143c0 38 -11.667 69 -35 93s-55.666 36 -96.999 36
c-38.667 0 -69.5 -9 -92.5 -27s-34.5 -42.667 -34.5 -74c0 -28.667 9.66699 -53.167 29 -73.5s49.333 -41.833 90 -64.5zM138.998 188.002c0 -44.667 14.333 -82.001 43 -112.001s66 -45 112 -45s82.167 10.667 108.5 32s39.5 51 39.5 89c0 30 -11.833 56.333 -35.5 79
s-59.167 47 -106.5 73l-79 44c-54.667 -35.333 -82 -88.666 -82 -159.999z" />
    <glyph glyph-name="nine" unicode="9" horiz-adv-x="631" 
d="M606 496c0 -108.667 -52.166 -215.499 -156.499 -320.499s-238.833 -181.5 -403.5 -229.5l-11 31c108 43.333 195 100.666 261 171.999s109.667 148 131 230c-50.667 -47.333 -105 -71 -163 -71c-60.667 0 -111.5 18 -152.5 54s-61.5 91.333 -61.5 166
c0 71.333 27 131 81 179s117.333 72 190 72c83.333 0 151.666 -26.333 204.999 -79s80 -120.667 80 -204zM215.001 561.001c0 -58.667 10.999 -104.167 32.999 -136.5s52.333 -48.5 91 -48.5s70.334 13 95.001 39c4.66699 23.333 7 48 7 74c0 72 -11.5 131.5 -34.5 178.5
s-53.5 70.5 -91.5 70.5c-32.667 0 -57.5 -15.5 -74.5 -46.5s-25.5 -74.5 -25.5 -130.5z" />
    <glyph glyph-name="colon" unicode=":" horiz-adv-x="304" 
d="M150 327c-26 0 -48.333 9.5 -67 28.5s-28 42.5 -28 70.5c0 26 9.33301 48.333 28 67s41 28 67 28c28 0 51.5 -9.33301 70.5 -28s28.5 -41 28.5 -67c0 -28 -9.5 -51.5 -28.5 -70.5s-42.5 -28.5 -70.5 -28.5zM150 -13c-26 0 -48.333 9.5 -67 28.5s-28 42.5 -28 70.5
c0 26 9.33301 48.333 28 67s41 28 67 28c28 0 51.5 -9.33301 70.5 -28s28.5 -41 28.5 -67c0 -28 -9.5 -51.5 -28.5 -70.5s-42.5 -28.5 -70.5 -28.5z" />
    <glyph glyph-name="semicolon" unicode=";" horiz-adv-x="312" 
d="M150 327c-26 0 -48.333 9.5 -67 28.5s-28 42.5 -28 70.5c0 26 9.33301 48.333 28 67s41 28 67 28c28 0 51.5 -9.33301 70.5 -28s28.5 -41 28.5 -67c0 -28 -9.5 -51.5 -28.5 -70.5s-42.5 -28.5 -70.5 -28.5zM72 -189l-17.002 32.999c62.667 36.667 94 80 94 130
c0 47.333 -32 78 -96 92c-1.33301 30.667 7.83398 56.834 27.501 78.501s45.5 32.5 77.5 32.5c30 0 54.667 -10 74 -30s29 -47.333 29 -82c0 -46.667 -17.167 -93 -51.5 -139s-80.166 -84.333 -137.499 -115z" />
    <glyph glyph-name="less" unicode="&#x3c;" horiz-adv-x="645" 
d="M49 228v69l527 225v-81l-423 -179l423 -179v-81z" />
    <glyph glyph-name="equal" unicode="=" horiz-adv-x="645" 
d="M69 334v75h507v-75h-507zM69 104v75h507v-75h-507z" />
    <glyph glyph-name="greater" unicode="&#x3e;" horiz-adv-x="645" 
d="M604 228l-527 -226v81l423 179l-423 179v81l527 -225v-69z" />
    <glyph glyph-name="question" unicode="?" horiz-adv-x="571" 
d="M282 733c-78.667 0 -117.999 -42.334 -117.999 -127.001c-34.667 -1.33301 -65.667 5 -93 19s-41 34.667 -41 62c0 28 19 50.333 57 67s85.333 25 142 25c94 0 169.333 -23.5 226 -70.5s85 -109.5 85 -187.5c0 -46 -12.167 -83.333 -36.5 -112
s-68.833 -47.334 -133.5 -56.001l-124 -16c-14.667 -2 -23.834 -4.66699 -27.501 -8s-5.83398 -11.666 -6.50098 -24.999l-3 -71h-32l-28 167c-1.33301 10 -2.16602 19 -2.49902 27s0.166992 15 1.5 21s3 11.333 5 16s5.5 8.66699 10.5 12s9.5 6 13.5 8s10 3.83301 18 5.5
s15.167 3 21.5 4s14.833 2.16699 25.5 3.5l123 15c40.667 5.33301 67.667 14 81 26s20 29 20 51c0 38.667 -19.5 72.334 -58.5 101.001s-80.833 43 -125.5 43zM196.001 -13.001c-26 0 -48.333 9.5 -67 28.5s-28 42.5 -28 70.5c0 26 9.33301 48.333 28 67s41 28 67 28
c28 0 51.5 -9.33301 70.5 -28s28.5 -41 28.5 -67c0 -28 -9.5 -51.5 -28.5 -70.5s-42.5 -28.5 -70.5 -28.5z" />
    <glyph glyph-name="at" unicode="@" horiz-adv-x="952" 
d="M562 158c-36.667 0 -55.001 9.00391 -55.001 27.0039c0 6 6.66699 26.333 20 61l30 76h-5c-73.333 -108 -145 -162 -215 -162c-30 0 -54.167 8.66699 -72.5 26s-27.5 41.666 -27.5 72.999c0 51.333 21.5 105.333 64.5 162s93.667 103.167 152 139.5
s110.166 54.5 155.499 54.5c17.333 0 34.833 -2.5 52.5 -7.5s37 -12.167 58 -21.5s34.833 -15 41.5 -17l-125 -315c-8 -20.667 -12 -33.334 -12 -38.001c0 -4 2 -6 6 -6c18 0 39.833 5.5 65.5 16.5s52 27 79 48s49.833 50.167 68.5 87.5s28 78.666 28 123.999
c0 54 -14.167 100.5 -42.5 139.5s-64.666 67.333 -108.999 85s-93.833 26.5 -148.5 26.5c-78 0 -150.167 -20 -216.5 -60s-118.666 -93.5 -156.999 -160.5s-57.5 -139.167 -57.5 -216.5c0 -92 27.333 -163.667 82 -215s128 -77 220 -77c78.667 0 145.334 13.667 200.001 41
l13 -30c-65.333 -33.333 -140.333 -50 -225 -50c-70 0 -134 12.5 -192 37.5s-105 62.667 -141 113s-54 108.833 -54 175.5c0 60 14.833 119.667 44.5 179s68.5 111.166 116.5 155.499s104.667 80.333 170 108s131.666 41.5 198.999 41.5c45.333 0 88.333 -6 129 -18
s77.5 -29.5 110.5 -52.5s59.333 -53.667 79 -92s29.5 -81.833 29.5 -130.5c0 -94 -35.833 -172.167 -107.5 -234.5s-155.5 -93.5 -251.5 -93.5zM401.999 233.004c24.667 0 57.168 19.167 97.501 57.5s74.166 92.5 101.499 162.5l42 107c-4.66699 12.667 -19 19 -43 19
c-30 0 -63.5 -16.167 -100.5 -48.5s-68.5 -72 -94.5 -119s-39 -89.833 -39 -128.5c0 -33.333 12 -50 36 -50z" />
    <glyph glyph-name="A" unicode="A" horiz-adv-x="758" 
d="M685 85c6.66699 -16.667 14.3301 -27.834 22.9971 -33.501s22.334 -9.5 41.001 -11.5l33 -4v-36h-344v36l43 4c18.667 1.33301 30.5 4.83301 35.5 10.5s4.5 17.167 -1.5 34.5l-64 162h-257l-65 -162c-6 -17.333 -6.5 -28.833 -1.5 -34.5s16.833 -9.16699 35.5 -10.5
l43 -4v-36h-231v36l33 4c18.667 2 32.334 5.83301 41.001 11.5s16.334 16.834 23.001 33.501l297 723h20zM322.996 568l-105 -262h209z" />
    <glyph glyph-name="B" unicode="B" horiz-adv-x="756" 
d="M42 0v36.0029l45 4c18 1.33301 29.833 5 35.5 11s8.5 18.667 8.5 38v580c0 19.333 -2.83301 32 -8.5 38s-17.5 9.66699 -35.5 11l-45 4v36h331c196 0 294 -56 294 -168c0 -48.667 -19.5 -89.334 -58.5 -122.001s-94.167 -53.334 -165.5 -62.001v-2
c89.333 0 158.833 -15.333 208.5 -46s74.5 -75.334 74.5 -134.001c0 -69.333 -29.167 -124 -87.5 -164s-135.833 -60 -232.5 -60h-364zM291 424.003l68.999 0.000976562c49.333 0 84.833 12.5 106.5 37.5s32.5 61.167 32.5 108.5s-10.667 83.166 -32 107.499
s-56.666 36.5 -105.999 36.5h-70v-290zM290.999 44.0039h74.999c60.667 0 106.334 12.667 137.001 38s46 68.333 46 129s-15.5 104 -46.5 130s-76.5 39 -136.5 39h-75v-336z" />
    <glyph glyph-name="C" unicode="C" horiz-adv-x="810" 
d="M477 -13c-132 0 -238.499 36.3311 -319.499 108.998s-121.5 168.334 -121.5 287.001s41 214.334 123 287.001s190 109 324 109c88.667 0 165.667 -11.667 231 -35l46 -262h-22l-132 192c-17.333 25.333 -37 42 -59 50c-16.667 6 -40.667 9 -72 9
c-34 0 -65.833 -5.5 -95.5 -16.5s-57.334 -28.167 -83.001 -51.5s-46 -56.333 -61 -99s-22.5 -92.667 -22.5 -150c0 -70.667 9.33301 -134 28 -190s49.5 -102.167 92.5 -138.5s95.5 -54.5 157.5 -54.5c31.333 0 55.333 3 72 9c22 8 41.667 24.667 59 50l132 192h22l-53 -262
c-65.333 -23.333 -147.333 -35 -246 -35z" />
    <glyph glyph-name="D" unicode="D" horiz-adv-x="842" 
d="M42 0v36l45 4c18 1.33301 29.833 5 35.5 11s8.5 18.667 8.5 38v580c0 19.333 -2.83301 32 -8.5 38s-17.5 9.66699 -35.5 11l-45 4v36h301c138 0 249.667 -32.833 335 -98.5s128 -157.167 128 -274.5s-42.667 -210.833 -128 -280.5s-194.333 -104.5 -327 -104.5h-309z
M291 44l52 0.000976562c189.333 0 284 102.333 284 307c0 125.333 -23.667 217.166 -71 275.499s-120.333 87.5 -219 87.5h-46v-670z" />
    <glyph glyph-name="E" unicode="E" horiz-adv-x="769" 
d="M42 0l-0.000976562 36l45 4c18 1.33301 29.833 5 35.5 11s8.5 18.667 8.5 38v580c0 19.333 -2.83301 32 -8.5 38s-17.5 9.66699 -35.5 11l-45 4v36h596l37 -271h-22l-143 207c-5.33301 8 -10.166 13 -14.499 15s-11.833 3 -22.5 3h-182v-293h116
c8.66699 0 14.334 3.66699 17.001 11l48 131h22v-336h-22l-48 131c-2.66699 7.33301 -8.33398 11 -17.001 11h-116v-321h227c8.66699 0 14.5 0.833008 17.5 2.5s7.5 5.5 13.5 11.5l184 211h22l-75 -271h-638z" />
    <glyph glyph-name="F" unicode="F" horiz-adv-x="713" 
d="M42 0l-0.000976562 35.998l45 4c18 1.33301 29.833 5 35.5 11s8.5 18.667 8.5 38v580c0 19.333 -2.83301 32 -8.5 38s-17.5 9.66699 -35.5 11l-45 4v36h618l37 -271h-22l-143 207c-5.33301 8 -10.166 13 -14.499 15s-11.833 3 -22.5 3h-204v-293h130
c8.66699 0 14.334 3.66699 17.001 11l48 131h22v-336h-22l-48 131c-2.66699 7.33301 -8.33398 11 -17.001 11h-130v-278c0 -19.333 2.83301 -31.666 8.5 -36.999s17.5 -8.66602 35.5 -9.99902l80 -4v-38h-373z" />
    <glyph glyph-name="G" unicode="G" horiz-adv-x="866" 
d="M476 -13c-132 0 -238.498 36.332 -319.498 108.999s-121.5 168.334 -121.5 287.001c0 118 41.5 213.5 124.5 286.5s190.5 109.5 322.5 109.5c88.667 0 165.667 -11.667 231 -35l46 -262h-22l-132 192c-17.333 25.333 -37 42 -59 50c-16.667 6 -40.667 9 -72 9
c-32.667 0 -63.834 -5.5 -93.501 -16.5s-57.5 -28.167 -83.5 -51.5s-46.667 -56.333 -62 -99s-23 -92.667 -23 -150c0 -70.667 9.33301 -133.834 28 -189.501s49.5 -101.5 92.5 -137.5s95.5 -54 157.5 -54c43.333 0 80.666 3.66699 111.999 11v214
c0 19.333 -2.83301 31.833 -8.5 37.5s-17.5 9.16699 -35.5 10.5l-81 4v41h374v-45h-89v-202l4 -71c-36.667 -13.333 -82.5 -24.666 -137.5 -33.999s-105.833 -14 -152.5 -14z" />
    <glyph glyph-name="H" unicode="H" horiz-adv-x="903" 
d="M42 0v36l45 4c18 1.33301 29.833 5 35.5 11s8.5 18.667 8.5 38v580c0 19.333 -2.83301 32 -8.5 38s-17.5 9.66699 -35.5 11l-45 4v36h338v-36l-45 -4c-18 -1.33301 -29.833 -5 -35.5 -11s-8.5 -18.667 -8.5 -38v-242h321v242c0 19.333 -2.83301 32 -8.5 38
s-17.5 9.66699 -35.5 11l-45 4v36h338v-36l-45 -4c-18 -1.33301 -29.833 -5 -35.5 -11s-8.5 -18.667 -8.5 -38v-580c0 -19.333 2.83301 -32 8.5 -38s17.5 -9.66699 35.5 -11l45 -4v-36h-338v36l45 4c18 1.33301 29.833 5 35.5 11s8.5 18.667 8.5 38v279h-321v-279
c0 -19.333 2.83301 -32 8.5 -38s17.5 -9.66699 35.5 -11l45 -4v-36h-338z" />
    <glyph glyph-name="I" unicode="I" horiz-adv-x="422" 
d="M42 0v36l45 4c18 1.33301 29.833 5 35.5 11s8.5 18.667 8.5 38v580c0 19.333 -2.83301 32 -8.5 38s-17.5 9.66699 -35.5 11l-45 4v36h338v-36l-45 -4c-18 -1.33301 -29.833 -5 -35.5 -11s-8.5 -18.667 -8.5 -38v-580c0 -19.333 2.83301 -32 8.5 -38
s17.5 -9.66699 35.5 -11l45 -4v-36h-338z" />
    <glyph glyph-name="J" unicode="J" horiz-adv-x="414" 
d="M10 -105l-23.002 30c30.667 26 51.334 43.833 62.001 53.5s23.834 23 39.501 40s25.5 31.667 29.5 44s7.83301 27.833 11.5 46.5s5.5 41 5.5 67v497c0 18 -2.5 29.333 -7.5 34s-16.5 7.33398 -34.5 8.00098l-53 2v41h350v-41l-53 -2
c-18 -0.666992 -29.5 -3.33398 -34.5 -8.00098s-7.5 -16 -7.5 -34v-459c0 -26 -2.5 -48.667 -7.5 -68s-14.333 -37.5 -28 -54.5s-25.5 -30 -35.5 -39s-26.667 -22.833 -50 -41.5c-15.333 -12 -70 -50.667 -164 -116z" />
    <glyph glyph-name="K" unicode="K" horiz-adv-x="824" 
d="M42 0l-0.000976562 36l45 4c18 1.33301 29.833 5 35.5 11s8.5 18.667 8.5 38v580c0 19.333 -2.83301 32 -8.5 38s-17.5 9.66699 -35.5 11l-45 4v36h338v-36l-45 -4c-18 -1.33301 -29.833 -5 -35.5 -11s-8.5 -18.667 -8.5 -38v-294l306 313
c7.33301 6.66699 9.33301 13.167 6 19.5s-12.333 9.83301 -27 10.5l-73 4v36h298v-36l-51 -3c-37.333 -2.66699 -66.666 -14.667 -87.999 -36l-226 -231l412 -452h-223l-334 367v-278c0 -19.333 2.83301 -32 8.5 -38s17.5 -9.66699 35.5 -11l45 -4v-36h-338z" />
    <glyph glyph-name="L" unicode="L" horiz-adv-x="720" 
d="M42 0v36l45 4c18 1.33301 29.833 5 35.5 11s8.5 18.667 8.5 38v580c0 19.333 -2.83301 32 -8.5 38s-17.5 9.66699 -35.5 11l-45 4v36h338v-36l-45 -4c-18 -1.33301 -29.833 -5 -35.5 -11s-8.5 -18.667 -8.5 -38v-623h187c8.66699 0 14.5 0.833008 17.5 2.5
s7.5 5.5 13.5 11.5l184 211h22l-75 -271h-598z" />
    <glyph glyph-name="M" unicode="M" horiz-adv-x="1035" 
d="M22 0l0.00390625 36l45 4c17.333 1.33301 28.666 5 33.999 11s8.66602 18.667 9.99902 38l40 580c1.33301 18.667 -1 31.167 -7 37.5s-18.333 10.166 -37 11.499l-45 4v36h295l172 -393l165 393h279v-36l-45 -4c-18.667 -1.33301 -31 -5.16602 -37 -11.499
s-8.33301 -18.833 -7 -37.5l40 -580c1.33301 -19.333 4.66602 -32 9.99902 -38s16.666 -9.66699 33.999 -11l45 -4v-36h-338v36l45 4c18.667 1.33301 31 5.16602 37 11.499s8.33301 18.833 7 37.5l-40 609l-252 -589h-6l-259 586l-40 -606
c-1.33301 -18.667 1 -31.167 7 -37.5s18.333 -10.166 37 -11.499l45 -4v-36h-234z" />
    <glyph glyph-name="N" unicode="N" horiz-adv-x="877" 
d="M46 0v36l45 4c18 1.33301 29.833 5 35.5 11s8.5 18.667 8.5 38v558l-101 109v2h210l456 -475v386c0 19.333 -2.83301 32 -8.5 38s-17.5 9.66699 -35.5 11l-45 4v36h234v-36l-45 -4c-18 -1.33301 -29.833 -5 -35.5 -11s-8.5 -18.667 -8.5 -38v-686h-4l-561 604v-498
c0 -19.333 2.83301 -32 8.5 -38s17.5 -9.66699 35.5 -11l45 -4v-36h-234z" />
    <glyph glyph-name="O" unicode="O" horiz-adv-x="892" 
d="M446 -13c-72.667 0 -139.667 15.333 -201 46s-111.5 76.5 -150.5 137.5s-58.5 131.833 -58.5 212.5s19.5 151.5 58.5 212.5s89.167 106.833 150.5 137.5s128.333 46 201 46s139.667 -15.333 201 -46s111.5 -76.5 150.5 -137.5s58.5 -131.833 58.5 -212.5
s-19.5 -151.5 -58.5 -212.5s-89.167 -106.833 -150.5 -137.5s-128.333 -46 -201 -46zM446 35c72.667 0 129.5 30.167 170.5 90.5s61.5 146.166 61.5 257.499s-20.5 197.166 -61.5 257.499s-97.833 90.5 -170.5 90.5s-129.5 -30.167 -170.5 -90.5
s-61.5 -146.166 -61.5 -257.499s20.5 -197.166 61.5 -257.499s97.833 -90.5 170.5 -90.5z" />
    <glyph glyph-name="P" unicode="P" horiz-adv-x="722" 
d="M42 0l-0.000976562 35.998l45 4c18 1.33301 29.833 5 35.5 11s8.5 18.667 8.5 38v580c0 19.333 -2.83301 32 -8.5 38s-17.5 9.66699 -35.5 11l-45 4v36h330c50.667 0 95.167 -3.16699 133.5 -9.5s73.333 -17 105 -32s55.834 -36 72.501 -63s25 -60.167 25 -99.5
c0 -142.667 -112 -214 -336 -214h-56v45h49c58.667 0 101 13.167 127 39.5s39 67.5 39 123.5s-13 97.667 -39 125s-68.333 41 -127 41h-74v-625c0 -19.333 2.83301 -31.666 8.5 -36.999s17.5 -8.66602 35.5 -9.99902l80 -4v-38h-373z" />
    <glyph glyph-name="Q" unicode="Q" horiz-adv-x="892" 
d="M888 -47c-60 -143.333 -120.332 -214.998 -180.999 -214.998c-30 0 -63.5 8.5 -100.5 25.5s-70.167 35.667 -99.5 56s-61.333 39 -96 56s-64.667 25.5 -90 25.5c-18.667 0 -35 -3.33301 -49 -10c2 -24.667 -1.5 -42.5 -10.5 -53.5s-20.833 -16.5 -35.5 -16.5
c-10 0 -18.333 4 -25 12s-10 17.667 -10 29c0 19.333 9 37.166 27 53.499s48 33.166 90 50.499l66 27c-96.667 15.333 -177.167 57.5 -241.5 126.5s-96.5 156.833 -96.5 263.5c0 80.667 19.5 151.5 58.5 212.5s89.167 106.833 150.5 137.5s128.333 46 201 46
s139.667 -15.333 201 -46s111.5 -76.5 150.5 -137.5s58.5 -131.833 58.5 -212.5s-19.333 -151.5 -58 -212.5s-88.667 -106.833 -150 -137.5s-128.333 -46 -201 -46l-174 -68c29.333 8.66699 63.666 13 102.999 13c56.667 0 121.5 -10.667 194.5 -32s122.833 -32 149.5 -32
c59.333 0 104 32 134 96zM446.001 35.002c72.667 0 129.5 30.167 170.5 90.5s61.5 146.166 61.5 257.499s-20.5 197.166 -61.5 257.499s-97.833 90.5 -170.5 90.5s-129.5 -30.167 -170.5 -90.5s-61.5 -146.166 -61.5 -257.499s20.5 -197.166 61.5 -257.499
s97.833 -90.5 170.5 -90.5z" />
    <glyph glyph-name="R" unicode="R" horiz-adv-x="787" 
d="M42 0v36l45 4c18 1.33301 29.833 5 35.5 11s8.5 18.667 8.5 38v580c0 19.333 -2.83301 32 -8.5 38s-17.5 9.66699 -35.5 11l-45 4v36h317c218 0 327 -60.333 327 -181c0 -43.333 -15.5 -82 -46.5 -116s-79.167 -57.333 -144.5 -70l327 -391h-202l-305 369h-24v-280
c0 -19.333 2.83301 -32 8.5 -38s17.5 -9.66699 35.5 -11l45 -4v-36h-338zM291 414h60c105.333 0 158 50 158 150s-52.667 150 -158 150h-60v-300z" />
    <glyph glyph-name="S" unicode="S" horiz-adv-x="632" 
d="M310 -13c-84 0 -155.669 12.333 -215.002 37l-47 246h22l140 -196c12.667 -18.667 28.334 -30.334 47.001 -35.001c18 -4 37.333 -6 58 -6c42 0 77 10.167 105 30.5s42 49.5 42 87.5c0 37.333 -13.167 68.5 -39.5 93.5s-66.5 45.833 -120.5 62.5l-54 17
c-126.667 39.333 -190 118 -190 236c0 48 14.333 89.167 43 123.5s64.334 58.833 107.001 73.5s89.667 22 141 22c58 0 110.333 -9 157 -27l48 -235h-22l-140 186c-10.667 14.667 -22 23.334 -34 26.001c-10 2 -20.667 3 -32 3c-40 0 -73.833 -10 -101.5 -30
s-41.5 -48.333 -41.5 -85c0 -62 36.333 -104.667 109 -128l54 -17c80 -25.333 140.5 -57 181.5 -95s61.5 -90.333 61.5 -157c0 -70 -28.5 -126.333 -85.5 -169s-121.5 -64 -193.5 -64z" />
    <glyph glyph-name="T" unicode="T" horiz-adv-x="774" 
d="M193 0l-0.00195312 38l70 4c18 1.33301 29.833 4.66602 35.5 9.99902s8.5 17.666 8.5 36.999v628h-107c-11.333 0 -19.166 -1 -23.499 -3s-8.83301 -7 -13.5 -15l-128 -212h-22l22 271h704l22 -271h-22l-128 212c-4.66699 8 -9.16699 13 -13.5 15s-12.166 3 -23.499 3
h-107v-628c0 -19.333 2.83301 -31.666 8.5 -36.999s17.5 -8.66602 35.5 -9.99902l70 -4v-38h-388z" />
    <glyph glyph-name="U" unicode="U" horiz-adv-x="855" 
d="M433 -13c-215.333 0 -323 102.667 -323 308v374c0 19.333 -2.83301 32 -8.5 38s-17.5 9.66699 -35.5 11l-45 4v36h338v-36l-45 -4c-18 -1.33301 -29.833 -5 -35.5 -11s-8.5 -18.667 -8.5 -38v-377c0 -84.667 17 -144.5 51 -179.5s85.333 -52.5 154 -52.5
c143.333 0 215 82 215 246v363c0 19.333 -2.83301 32 -8.5 38s-17.5 9.66699 -35.5 11l-45 4v36h234v-36l-45 -4c-18 -1.33301 -29.833 -5 -35.5 -11s-8.5 -18.667 -8.5 -38v-373c0 -100 -27 -176.5 -81 -229.5s-131.333 -79.5 -232 -79.5z" />
    <glyph glyph-name="V" unicode="V" horiz-adv-x="767" 
d="M373 -31l-301.002 704c-7.33301 16.667 -15.166 27.834 -23.499 33.501s-21.833 9.5 -40.5 11.5l-33 4v36h345v-36l-43 -4c-18.667 -1.33301 -30.5 -4.83301 -35.5 -10.5s-4.5 -17.167 1.5 -34.5l196 -469l198 469c6 17.333 6.5 28.833 1.5 34.5
s-16.833 9.16699 -35.5 10.5l-43 4v36h232v-36l-33 -4c-18.667 -2 -32.167 -5.83301 -40.5 -11.5s-16.166 -16.834 -23.499 -33.501l-302 -704h-20z" />
    <glyph glyph-name="W" unicode="W" horiz-adv-x="1171" 
d="M373 -31l-301 704c-7.33301 16.667 -15.166 27.834 -23.499 33.501s-21.833 9.5 -40.5 11.5l-33 4v36h345v-36l-43 -4c-18.667 -1.33301 -30.5 -4.83301 -35.5 -10.5s-4.5 -17.167 1.5 -34.5l196 -469l127 295l-103 259h322v-36l-81 -4
c-18.667 -1.33301 -30.334 -4.83301 -35.001 -10.5s-4.33398 -17.167 0.999023 -34.5l173 -469l198 469c6 17.333 6.5 28.833 1.5 34.5s-16.833 9.16699 -35.5 10.5l-43 4v36h232v-36l-33 -4c-18.667 -2 -32.167 -5.83301 -40.5 -11.5s-16.166 -16.834 -23.499 -33.501
l-302 -704h-20l-184 464l-200 -464h-20z" />
    <glyph glyph-name="X" unicode="X" horiz-adv-x="801" 
d="M-9 0v36l33 4c36 4 64.667 19 86 45l227 272l-214 316c-10.667 15.333 -21.167 26.166 -31.5 32.499s-24.5 10.5 -42.5 12.5l-33 4v36h358v-36l-43 -4c-18 -1.33301 -29 -5.33301 -33 -12s-1 -17.667 9 -33l131 -194l162 194c12.667 14.667 18.167 25.5 16.5 32.5
s-11.167 11.167 -28.5 12.5l-43 4v36h237v-36l-33 -4c-36 -4 -64.667 -19 -86 -45l-196 -236l238 -352c10.667 -15.333 21.167 -26.166 31.5 -32.499s24.5 -10.5 42.5 -12.5l33 -4v-36h-358v36l43 4c18 1.33301 29 5.33301 33 12s1 17.667 -9 33l-156 230l-192 -230
c-12.667 -14.667 -18.167 -25.5 -16.5 -32.5s11.167 -11.167 28.5 -12.5l43 -4v-36h-237z" />
    <glyph glyph-name="Y" unicode="Y" horiz-adv-x="760" 
d="M186 0l-0.00195312 37.999l70 4c18 1.33301 29.833 4.66602 35.5 9.99902s8.5 17.666 8.5 36.999v253l-220 331c-11.333 17.333 -20.666 28.666 -27.999 33.999s-19.333 9 -36 11l-33 4v36h350v-36l-43 -4c-40 -3.33301 -51.333 -18.333 -34 -45l180 -276l184 276
c8.66699 16.667 10 27.834 4 33.501s-18.667 9.5 -38 11.5l-43 4v36h234v-36l-33 -4c-16.667 -2 -28.667 -5.66699 -36 -11s-16.666 -16.666 -27.999 -33.999l-220 -332v-252c0 -19.333 2.83301 -31.666 8.5 -36.999s17.5 -8.66602 35.5 -9.99902l70 -4v-38h-388z" />
    <glyph glyph-name="Z" unicode="Z" horiz-adv-x="730" 
d="M10 0v12l484 702h-210c-10 0 -17 -1 -21 -3s-9.33301 -7 -16 -15l-183 -209h-22l77 271h572v-12l-481 -702h262c10 0 17 1 21 3s9.33301 7 16 15l183 209h22l-77 -271h-627z" />
    <glyph glyph-name="bracketleft" unicode="[" horiz-adv-x="314" 
d="M92 -238v1064h213v-34l-37 -2c-32 -1.33301 -53.333 -7.66602 -64 -18.999s-16 -33 -16 -65v-824c0 -32 5.33301 -53.667 16 -65s32 -17.666 64 -18.999l37 -2v-34h-213z" />
    <glyph glyph-name="backslash" unicode="\" horiz-adv-x="486" 
d="M464 -52h-100l-343 858h100z" />
    <glyph glyph-name="bracketright" unicode="]" horiz-adv-x="314" 
d="M230 826v-1064h-213v34l37 2c32 1.33301 53.333 7.66602 64 18.999s16 33 16 65v824c0 32 -5.33301 53.667 -16 65s-32 17.666 -64 18.999l-37 2v34h213z" />
    <glyph glyph-name="asciicircum" unicode="^" horiz-adv-x="645" 
d="M79 361l206 415h74l206 -415h-80l-163 333l-163 -333h-80z" />
    <glyph glyph-name="underscore" unicode="_" horiz-adv-x="526" 
d="M-4 -146v71h534v-71h-534z" />
    <glyph glyph-name="grave" unicode="`" 
d="M121 609h-28l-230 168v11h148z" />
    <glyph glyph-name="a" unicode="a" horiz-adv-x="551" 
d="M194 -13c-46.667 0 -85.501 13.665 -116.501 40.998s-46.5 60 -46.5 98c0 10 1.16699 19.667 3.5 29s6.33301 18 12 26s10.834 15 15.501 21s12.167 12.167 22.5 18.5l24 15c5.66699 3.66699 15.167 8.33398 28.5 14.001s22.5 9.33398 27.5 11.001l30 10.5
c15 5.33301 23.833 8.66602 26.5 9.99902c48 17.333 79.167 35 93.5 53s21.5 41.333 21.5 70c0 24 -7.33301 43.833 -22 59.5s-34.334 23.5 -59.001 23.5c-37.333 0 -63.5 -13.167 -78.5 -39.5s-16.833 -61.833 -5.5 -106.5c-24 -5.33301 -46.333 -8 -67 -8
c-24.667 0 -43.5 5.66699 -56.5 17s-19.5 24 -19.5 38c0 34.667 42.333 68.334 127 101.001c60 22.667 114.667 34 164 34c47.333 0 85.333 -11.333 114 -34s42.334 -58.667 41.001 -108l-8 -315h78v-32l-194 -45l-20 89c-24 -60.667 -69.333 -91 -136 -91zM261.999 47.998
c17.333 0 32.332 8.99902 44.999 26.999s19.334 45.333 20.001 82l1 153c-12 -10 -30 -22.333 -54 -37c-52 -32 -78 -74 -78 -126c0 -25.333 6 -48.166 18 -68.499s28 -30.5 48 -30.5z" />
    <glyph glyph-name="b" unicode="b" horiz-adv-x="595" 
d="M354 521c58.667 0 108 -23.833 148 -71.5s60 -113.167 60 -196.5c0 -78 -22.167 -141.833 -66.5 -191.5s-98.833 -74.5 -163.5 -74.5c-57.333 0 -101 19.333 -131 58l-123 -63l-7 4v669l-76 64v6l224 77v-343c36.667 41.333 81.667 62 135 62zM277 452
c-22.667 0 -41.999 -6.66699 -57.999 -20v-364c14.667 -15.333 33 -23 55 -23c36 0 65.5 18.5 88.5 55.5s34.5 87.5 34.5 151.5c0 58.667 -11.333 106.667 -34 144s-51.334 56 -86.001 56z" />
    <glyph glyph-name="c" unicode="c" horiz-adv-x="556" 
d="M287 -13c-78 0 -140.167 24.667 -186.5 74s-69.5 111 -69.5 185c0 82 27.5 148.333 82.5 199s120.5 76 196.5 76c54.667 0 101.5 -10.833 140.5 -32.5s58.5 -51.5 58.5 -89.5c0 -48 -30.667 -72 -92 -72c-17.333 0 -34.333 1.33301 -51 4
c8.66699 104 -17.666 156 -78.999 156c-28.667 0 -53.834 -14.667 -75.501 -44s-32.5 -73 -32.5 -131c0 -64.667 16 -119 48 -163s75 -66 129 -66c35.333 0 67.833 10.5 97.5 31.5s49.167 51.5 58.5 91.5h29c-24 -146 -108.667 -219 -254 -219z" />
    <glyph glyph-name="d" unicode="d" horiz-adv-x="610" 
d="M241 -13c-58.667 0 -108 23.833 -148 71.5s-60 113.167 -60 196.5c0 78 22.167 141.833 66.5 191.5s98.833 74.5 163.5 74.5c45.333 0 83 -16 113 -48v182l-94 64v6l242 77v-736h73v-32l-221 -45v60c-36.667 -41.333 -81.667 -62 -135 -62zM198 256
c0 -58.667 11.332 -106.667 33.999 -144s51.334 -56 86.001 -56c22.667 0 42 6.66699 58 20v369c-14.667 12.667 -33 19 -55 19c-36 0 -65.5 -18.667 -88.5 -56s-34.5 -88 -34.5 -152z" />
    <glyph glyph-name="e" unicode="e" horiz-adv-x="578" 
d="M295 -13c-80.667 0 -144.833 24.833 -192.5 74.5s-71.5 112.5 -71.5 188.5c0 79.333 26.333 144.333 79 195s113.334 76 182.001 76c64 0 117.333 -17.333 160 -52s70.667 -85.667 84 -153h-355c0.666992 -67.333 17.667 -123 51 -167s78 -66 134 -66
c36 0 69.167 10.5 99.5 31.5s50.166 51.5 59.499 91.5h29c-11.333 -72 -39.333 -126.5 -84 -163.5s-103 -55.5 -175 -55.5zM286.001 487c-28 0 -50.999 -11.332 -68.999 -33.999s-29.333 -54.334 -34 -95.001h189c-2.66699 86 -31.334 129 -86.001 129z" />
    <glyph glyph-name="f" unicode="f" horiz-adv-x="410" 
d="M26 0v31.998l27 2c18 1.33301 29.167 4 33.5 8s6.5 14.667 6.5 32v351h-67v32c22.667 2.66699 41.5 11.334 56.5 26.001s27.833 37 38.5 67c29.333 84 63.5 143.333 102.5 178s91.833 52 158.5 52h32v-139h-154c-31.333 0 -53.5 -4.5 -66.5 -13.5
s-19.5 -23.167 -19.5 -42.5c0 -34 22 -61.667 66 -83h194l-48 -77h-145v-351c0 -9.33301 0.5 -16.333 1.5 -21s4 -8.16699 9 -10.5s9.33301 -3.66602 13 -3.99902s11.167 -0.833008 22.5 -1.5l61 -4v-33h-322z" />
    <glyph glyph-name="g" unicode="g" horiz-adv-x="604" 
d="M270 170c-28 0 -53.3311 2.99902 -75.998 8.99902l-61 -73l268 -22c66 -5.33301 111 -17.333 135 -36s36 -44.667 36 -78c0 -60 -37.333 -113.5 -112 -160.5s-165.334 -70.5 -272.001 -70.5c-55.333 0 -98.5 9.83301 -129.5 29.5s-46.5 44.167 -46.5 73.5
c0 28 15.167 52 45.5 72s68.833 34.667 115.5 44c-32.667 12.667 -81 40.667 -145 84l129 150c-34 15.333 -60.667 36.333 -80 63s-29 56.334 -29 89.001c0 49.333 21.167 91.166 63.5 125.499s96.166 51.5 161.499 51.5c64 0 118 -17 162 -51l44 86h142l-51 -99h-121
c31.333 -31.333 47 -68 47 -110c0 -49.333 -21.167 -91.166 -63.5 -125.499s-96.5 -51.5 -162.5 -51.5zM300.002 203.999c17.333 0 31.167 7.83105 41.5 23.498s15.5 39.834 15.5 72.501c0 50.667 -10 94.834 -30 132.501s-46.333 56.5 -79 56.5
c-38.667 0 -58 -32.333 -58 -97c0 -50 10 -93.833 30 -131.5s46.667 -56.5 80 -56.5zM243.003 -213.003c51.333 0 98.667 10.501 142 31.501s65 45.5 65 73.5c0 22.667 -14.667 38.5 -44 47.5s-74 13.5 -134 13.5c-54 0 -93.333 -8 -118 -24s-37 -35.333 -37 -58
c0 -24.667 10 -44.834 30 -60.501s52 -23.5 96 -23.5z" />
    <glyph glyph-name="h" unicode="h" horiz-adv-x="608" 
d="M17 0v32l27 2c18 1.33301 29.167 4 33.5 8s6.5 14.667 6.5 32v581l-76 64v6l224 77v-401c24 80 74.667 120 152 120c94.667 0 142 -62.333 142 -187v-260c0 -17.333 2.16699 -28 6.5 -32s15.5 -6.66699 33.5 -8l27 -2v-32h-271v32l19 2c18 2 28.667 4.83301 32 8.5
s5 14.167 5 31.5v232c0 48.667 -5.83301 82 -17.5 100s-28.5 27 -50.5 27c-52 0 -78 -42.667 -78 -128v-231c0 -17.333 1.66699 -27.833 5 -31.5s14 -6.5 32 -8.5l19 -2v-32h-271z" />
    <glyph glyph-name="i" unicode="i" horiz-adv-x="337" 
d="M81 710c0 24.667 9.33301 46.334 28 65.001s40.334 28 65.001 28s46.5 -9.33301 65.5 -28s28.5 -40.334 28.5 -65.001c0 -25.333 -9.33301 -47.333 -28 -66s-40.667 -28 -66 -28c-24.667 0 -46.334 9.5 -65.001 28.5s-28 40.833 -28 65.5zM34 0v32l27 2
c18 1.33301 29.167 4 33.5 8s6.5 14.667 6.5 32v283l-76 72v6l224 94v-455c0 -17.333 2.16699 -28 6.5 -32s15.5 -6.66699 33.5 -8l27 -2v-32h-282z" />
    <glyph glyph-name="j" unicode="j" horiz-adv-x="307" 
d="M68 710c0 24.667 9.33301 46.334 28 65.001s40.334 28 65.001 28s46.5 -9.33301 65.5 -28s28.5 -40.334 28.5 -65.001c0 -25.333 -9.5 -47.333 -28.5 -66s-40.833 -28 -65.5 -28s-46.334 9.5 -65.001 28.5s-28 40.833 -28 65.5zM-32 -263l-19 26.998
c28 24.667 48.5 43.834 61.5 57.501s26.667 31.5 41 53.5s24 46 29 72s7.5 57.667 7.5 95v315l-76 72v6l224 94v-480c0 -51.333 -8.66699 -92.166 -26 -122.499s-45.333 -59.5 -84 -87.5c-45.333 -32.667 -98 -66.667 -158 -102z" />
    <glyph glyph-name="k" unicode="k" horiz-adv-x="625" 
d="M17 0v31.999l21 2c18 1.33301 30.167 5.33301 36.5 12s9.5 19 9.5 37v572l-76 64v6l224 77v-541l177 157c14 12.667 19.667 23.834 17 33.501s-12.667 15.167 -30 16.5l-38 2v32h239v-32l-27 -2c-20 -2 -36.667 -6.5 -50 -13.5s-30 -19.167 -50 -36.5l-106 -91l283 -327
h-199l-216 248v-165c0 -18 3.16699 -30.333 9.5 -37s18.5 -10.667 36.5 -12l21 -2v-32h-282z" />
    <glyph glyph-name="l" unicode="l" horiz-adv-x="324" 
d="M21 0v32l27 2c18 1.33301 29.167 4 33.5 8s6.5 14.667 6.5 32v581l-76 64v6l224 77v-728c0 -17.333 2.16699 -28 6.5 -32s15.5 -6.66699 33.5 -8l27 -2v-32h-282z" />
    <glyph glyph-name="m" unicode="m" horiz-adv-x="915" 
d="M301 32v-31.999h-271v32l27 2c18 1.33301 29.167 4 33.5 8s6.5 14.667 6.5 32v283l-76 72v6l224 94v-128c24 80 74.667 120 152 120s123 -41 137 -123c12 39.333 31.5 69.666 58.5 90.999s59.833 32 98.5 32c94.667 0 142 -62.333 142 -187v-260
c0 -17.333 2.16699 -28 6.5 -32s15.5 -6.66699 33.5 -8l27 -2v-32h-271v32l19 2c18 2 28.667 4.83301 32 8.5s5 14.167 5 31.5v232c0 48.667 -5.83301 82 -17.5 100s-28.5 27 -50.5 27c-52 0 -78 -42.667 -78 -128v-231c0 -17.333 1.66699 -27.833 5 -31.5s14 -6.5 32 -8.5
l19 -2v-32h-260v32l19 2c18 2 28.667 4.83301 32 8.5s5 14.167 5 31.5v232c0 48.667 -5.83301 82 -17.5 100s-28.5 27 -50.5 27c-52 0 -78 -42.667 -78 -128v-231c0 -17.333 1.66699 -27.833 5 -31.5s14 -6.5 32 -8.5z" />
    <glyph glyph-name="n" unicode="n" horiz-adv-x="621" 
d="M30 0v32l27 2c18 1.33301 29.167 4 33.5 8s6.5 14.667 6.5 32v283l-76 72v6l224 94v-128c24 80 74.667 120 152 120c94.667 0 142 -62.333 142 -187v-260c0 -17.333 2.16699 -28 6.5 -32s15.5 -6.66699 33.5 -8l27 -2v-32h-271v32l19 2c18 2 28.667 4.83301 32 8.5
s5 14.167 5 31.5v232c0 48.667 -5.83301 82 -17.5 100s-28.5 27 -50.5 27c-52 0 -78 -42.667 -78 -128v-231c0 -17.333 1.66699 -27.833 5 -31.5s14 -6.5 32 -8.5l19 -2v-32h-271z" />
    <glyph glyph-name="o" unicode="o" horiz-adv-x="616" 
d="M306 -13c-81.333 0 -147.666 25.333 -198.999 76s-77 112.667 -77 186c0 79.333 26.833 144.5 80.5 195.5s120.167 76.5 199.5 76.5c81.333 0 147.666 -25.333 198.999 -76s77 -112.667 77 -186c0 -79.333 -26.833 -144.5 -80.5 -195.5s-120.167 -76.5 -199.5 -76.5z
M308 28c74 0 111 75.667 111 227s-37 227 -111 227c-75.333 0 -113 -75.667 -113 -227s37.667 -227 113 -227z" />
    <glyph glyph-name="p" unicode="p" horiz-adv-x="611" 
d="M20 -248v32l27 2c18 1.33301 29.167 4 33.5 8s6.5 14.667 6.5 32v526l-76 60v6l224 111v-70c36.667 41.333 81.667 62 135 62c58.667 0 108 -23.833 148 -71.5s60 -113.167 60 -196.5c0 -78 -22.167 -141.833 -66.5 -191.5s-98.833 -74.5 -163.5 -74.5
c-45.333 0 -83 16 -113 48v-209c0 -12 1.66699 -20.5 5 -25.5s7.5 -8.16699 12.5 -9.5s14.5 -2.33301 28.5 -3l51 -3v-33h-312zM293 452c-22.667 0 -41.999 -6.66699 -57.999 -20v-369c14.667 -12.667 33 -19 55 -19c36 0 65.5 18.667 88.5 56s34.5 88 34.5 152
c0 58.667 -11.333 106.667 -34 144s-51.334 56 -86.001 56z" />
    <glyph glyph-name="q" unicode="q" horiz-adv-x="595" 
d="M241 -13c-58.667 0 -108 23.833 -148 71.5s-60 113.167 -60 196.5c0 78 22.167 141.833 66.5 191.5s98.833 74.5 163.5 74.5c57.333 0 101 -19.333 131 -58l123 63l7 -4v-696c0 -17.333 2.16699 -28 6.5 -32s15.5 -6.66699 33.5 -8l27 -2v-32h-312v33l51 3
c14 0.666992 23.5 1.66699 28.5 3s9.16699 4.5 12.5 9.5s5 13.5 5 25.5v223c-36.667 -41.333 -81.667 -62 -135 -62zM198 256c0 -58.667 11.332 -106.667 33.999 -144s51.334 -56 86.001 -56c22.667 0 42 6.66699 58 20v364c-14.667 15.333 -33 23 -55 23
c-36 0 -65.5 -18.5 -88.5 -55.5s-34.5 -87.5 -34.5 -151.5z" />
    <glyph glyph-name="r" unicode="r" horiz-adv-x="446" 
d="M30 0v32.001l27 2c18 1.33301 29.167 4 33.5 8s6.5 14.667 6.5 32v283l-76 72v6l224 94v-173c25.333 105.333 83.333 158 174 158h10v-149l-53 7c-48.667 6.66699 -82.667 4.66699 -102 -6s-29 -28.334 -29 -53.001v-239c0 -12 1.66699 -20.5 5 -25.5
s7.5 -8.16699 12.5 -9.5s14.5 -2.33301 28.5 -3l51 -3v-33h-312z" />
    <glyph glyph-name="s" unicode="s" horiz-adv-x="472" 
d="M209 -13c-47.333 0 -95.9961 8 -145.996 24l-16 178h22l76 -124l8 -11.5c2.66699 -3.66699 5.16699 -6.83398 7.5 -9.50098s5.16602 -5 8.49902 -7s6 -3.66699 8 -5s4.66699 -2.5 8 -3.5s5.83301 -1.66699 7.5 -2s4.5 -0.666016 8.5 -0.999023s6.66699 -0.5 8 -0.5h8.5
h8.5c24 0 44.333 6.66699 61 20s25 31 25 53c0 44 -25.667 71.667 -77 83l-53 12c-41.333 9.33301 -74 28.166 -98 56.499s-36 63.833 -36 106.5c0 50.667 21.167 90.834 63.5 120.501s92.833 44.5 151.5 44.5c51.333 0 96 -6.66699 134 -20l19 -170h-22l-85 122
c-6.66699 10 -13.834 17.333 -21.501 22s-14.334 7.5 -20.001 8.5s-13.834 1.5 -24.501 1.5c-24 0 -43.5 -6.5 -58.5 -19.5s-22.5 -30.833 -22.5 -53.5c0 -44.667 25.667 -72.667 77 -84l43 -9c102.667 -22 154 -75.333 154 -160c0 -50 -21.5 -91.167 -64.5 -123.5
s-97.167 -48.5 -162.5 -48.5z" />
    <glyph glyph-name="t" unicode="t" horiz-adv-x="429" 
d="M231 -7c-44.667 0 -78 8.66797 -100 26.001s-33 50.666 -33 99.999v306h-101v6l242 200h7v-129h200l-48 -77h-152v-272c0 -36 5.66699 -61 17 -75s29 -21 53 -21c24.667 0 51.667 9.66699 81 29l16 -26c-22 -18 -49.333 -33.667 -82 -47s-66 -20 -100 -20z" />
    <glyph glyph-name="u" unicode="u" horiz-adv-x="610" 
d="M224 -13c-94.667 0 -142 62.333 -142 187v271l-65 25v32h213v-300c0 -48.667 5.83301 -82 17.5 -100s28.5 -27 50.5 -27c52 0 78 42.667 78 128v242l-65 25v32h213v-436h73v-32l-221 -45v118c-24 -80 -74.667 -120 -152 -120z" />
    <glyph glyph-name="v" unicode="v" horiz-adv-x="554" 
d="M254 -12l-187.999 424.999c-8.66699 20 -16.5 33.667 -23.5 41s-18.833 12 -35.5 14l-16 2v32h286v-32l-21 -2c-34.667 -2.66699 -45.334 -19 -32.001 -49l108 -242l92 214c20 46.667 11 72 -27 76l-28 3v32h199v-32l-20 -2c-17.333 -2 -30.5 -7.16699 -39.5 -15.5
s-18.5 -23.166 -28.5 -44.499l-186 -420h-40z" />
    <glyph glyph-name="w" unicode="w" horiz-adv-x="866" 
d="M254 -12l-187.998 424.999c-8.66699 20 -16.5 33.667 -23.5 41s-18.833 12 -35.5 14l-16 2v32h286v-32l-21 -2c-34.667 -2.66699 -45.334 -19 -32.001 -49l108 -242l75 170l-68 155h250v-32l-21 -2c-34.667 -2.66699 -45.334 -19 -32.001 -49l108 -241l92 213
c20 46.667 11 72 -27 76l-28 3v32h199v-32l-20 -2c-17.333 -2 -30.5 -7.16699 -39.5 -15.5s-18.5 -23.166 -28.5 -44.499l-186 -420h-40l-136 307l-136 -307h-40z" />
    <glyph glyph-name="x" unicode="x" horiz-adv-x="619" 
d="M-6 0v32l20 2c34 4 76.667 32 128 84l107 109l-140 186c-10 13.333 -17.5 22.833 -22.5 28.5s-11.833 11.167 -20.5 16.5s-18.667 8.66602 -30 9.99902l-16 2v32h298v-32l-21 -2c-34 -2.66699 -40 -19 -18 -49l69 -92l63 64c13.333 13.333 22.333 25.666 27 36.999
s4.83398 20.333 0.500977 27s-12.5 10.667 -24.5 12l-28 3v32h226v-32l-20 -2c-34 -4 -75.667 -30.667 -125 -80l-93 -95l153 -204c10 -13.333 17.5 -22.833 22.5 -28.5s11.833 -11.167 20.5 -16.5s18.667 -8.66602 30 -9.99902l16 -2v-32h-298v32l21 2
c34 2.66699 40 19 18 49l-82 109l-80 -81c-13.333 -13.333 -22.333 -25.666 -27 -36.999s-4.83398 -20.333 -0.500977 -27s12.5 -10.667 24.5 -12l28 -3v-32h-226z" />
    <glyph glyph-name="y" unicode="y" horiz-adv-x="555" 
d="M210 -88l38 83l-179 418c-8.66699 20 -16.5 33.667 -23.5 41s-18.833 12 -35.5 14l-16 2v32h286v-32l-21 -2c-34 -2.66699 -44.667 -19 -32 -49l102 -247l99 219c20.667 46 11.667 71.333 -27 76l-28 3v32h198v-32l-20 -2c-17.333 -2 -30.5 -7.16699 -39.5 -15.5
s-18.5 -23.166 -28.5 -44.499l-248 -542c-20.667 -44 -40 -75.167 -58 -93.5s-40.667 -27.5 -68 -27.5c-21.333 0 -38.5 7.16699 -51.5 21.5s-19.5 32.166 -19.5 53.499c0 30 15.833 54.167 47.5 72.5s73.167 24.833 124.5 19.5z" />
    <glyph glyph-name="z" unicode="z" horiz-adv-x="547" 
d="M21 0l301.999 461.999h-110c-27.333 0 -46.666 -8.66699 -57.999 -26l-101 -152h-22l41 218h443l-301 -462h101c16 0 28 1.83301 36 5.5s17.333 11.834 28 24.501l128 155h22l-67 -225h-442z" />
    <glyph glyph-name="braceleft" unicode="{" horiz-adv-x="357" 
d="M336 -238c-31.333 4 -61.333 11.8271 -90 23.4941s-55 27.334 -79 47.001s-41.667 45.5 -53 77.5s-13.666 67.333 -6.99902 106l16 93c9.33301 57.333 3.33301 97.5 -18 120.5s-56.333 38.167 -105 45.5v35c48.667 7.33301 83.667 22.5 105 45.5s27.333 63.167 18 120.5
l-16 93c-6.66699 38.667 -4.33398 74 6.99902 106s29 57.833 53 77.5s50.333 35.334 79 47.001s58.667 19.5 90 23.5l6 -30c-46 -8.66699 -77.833 -28.667 -95.5 -60s-21.834 -70.666 -12.501 -117.999l14 -71c6.66699 -45.333 7.66699 -83 3 -113
s-16.5 -54.833 -35.5 -74.5s-39.667 -34.167 -62 -43.5s-47.833 -15.666 -76.5 -18.999v-3c28.667 -3.33301 54.167 -9.66602 76.5 -18.999s43 -23.833 62 -43.5s30.833 -44.5 35.5 -74.5s3.66699 -67.667 -3 -113l-14 -71
c-9.33301 -47.333 -5.16602 -86.666 12.501 -117.999s49.5 -51.333 95.5 -60z" />
    <glyph glyph-name="bar" unicode="|" horiz-adv-x="275" 
d="M92 -238v1064h91v-1064h-91z" />
    <glyph glyph-name="braceright" unicode="}" horiz-adv-x="357" 
d="M29 823c31.333 -4 61.333 -11.8271 90 -23.4941s55 -27.334 79 -47.001s41.667 -45.5 53 -77.5s13.666 -67.333 6.99902 -106l-16 -93c-9.33301 -57.333 -3.33301 -97.5 18 -120.5s56.333 -38.167 105 -45.5v-35c-48.667 -7.33301 -83.667 -22.5 -105 -45.5
s-27.333 -63.167 -18 -120.5l16 -93c6.66699 -38.667 4.33398 -74 -6.99902 -106s-29 -57.833 -53 -77.5s-50.333 -35.334 -79 -47.001s-58.667 -19.5 -90 -23.5l-6 30c46 8.66699 77.833 28.667 95.5 60s21.834 70.666 12.501 117.999l-14 71
c-6.66699 45.333 -7.66699 83 -3 113s16.5 54.833 35.5 74.5s39.667 34.167 62 43.5s47.833 15.666 76.5 18.999v3c-28.667 3.33301 -54.167 9.66602 -76.5 18.999s-43 23.833 -62 43.5s-30.833 44.5 -35.5 74.5s-3.66699 67.667 3 113l14 71
c9.33301 47.333 5.16602 86.666 -12.501 117.999s-49.5 51.333 -95.5 60z" />
    <glyph glyph-name="asciitilde" unicode="~" horiz-adv-x="645" 
d="M197 332c30 0 60.499 -7.16797 91.499 -21.501s60.167 -28.666 87.5 -42.999s51 -21.5 71 -21.5c53.333 0 81.333 26.667 84 80h65c-2.66699 -43.333 -17.834 -77.666 -45.501 -102.999s-61.5 -38 -101.5 -38c-32.667 0 -75.667 14.333 -129 43s-93.666 43 -120.999 43
c-53.333 0 -81.333 -26.667 -84 -80h-65c2.66699 43.333 17.834 77.666 45.501 102.999s61.5 38 101.5 38z" />
    <glyph glyph-name="uni00A0" unicode="&#xa0;" horiz-adv-x="220" 
 />
    <glyph glyph-name="exclamdown" unicode="&#xa1;" horiz-adv-x="270" 
d="M130 521c28 0 51.5 -9.5 70.5 -28.5s28.5 -42.5 28.5 -70.5c0 -26 -9.5 -48.333 -28.5 -67s-42.5 -28 -70.5 -28c-26 0 -48.333 9.33301 -67 28s-28 41 -28 67c0 28 9.33301 51.5 28 70.5s41 28.5 67 28.5zM115 267h44c4 -86 16.333 -170.333 37 -253
s31 -162.667 31 -240c0 -14.667 -15 -25 -45 -31s-60 -6 -90 0s-45 16.333 -45 31c0 76.667 10.333 156.5 31 239.5s33 167.5 37 253.5z" />
    <glyph glyph-name="cent" unicode="&#xa2;" horiz-adv-x="581" 
d="M283 -120l0.000976562 108c-75.333 4 -134.833 30.833 -178.5 80.5s-65.5 112.834 -65.5 189.501c0 70.667 23.5 129.834 70.5 177.501s104.833 75.5 173.5 83.5v101h46v-99c52.667 -1.33301 97.167 -12.833 133.5 -34.5s54.5 -50.834 54.5 -87.501
c0 -25.333 -9 -44.333 -27 -57s-43 -17.334 -75 -14.001l-33 3c2 78.667 -15.667 126.667 -53 144v-403c12 -3.33301 24 -5 36 -5c38 0 70.667 11.833 98 35.5s44.666 61.167 51.999 112.5h32c-6.66699 -70.667 -28.667 -125 -66 -163s-88 -59.333 -152 -64v-108h-46z
M201.001 318c0 -107.333 27.333 -182 82 -224v387c-24.667 -4 -44.5 -19.333 -59.5 -46s-22.5 -65.667 -22.5 -117z" />
    <glyph glyph-name="sterling" unicode="&#xa3;" horiz-adv-x="618" 
d="M29 0v4.00098l160 142c42.667 38 64 76 64 114c0 16 -3.66699 34 -11 54h-161v54h132c-7.33301 11.333 -16.666 23.666 -27.999 36.999l-41 49c-28.667 35.333 -43 69.666 -43 102.999c0 50 35.333 99.667 106 149c69.333 48.667 142 73 218 73
c36.667 0 66.834 -7.66699 90.501 -23s35.5 -36.333 35.5 -63c0 -20 -10.333 -38.5 -31 -55.5s-48.334 -23.833 -83.001 -20.5c-9.33301 32.667 -24 57.334 -44 74.001s-43 25 -69 25c-24 0 -45.333 -6.33301 -64 -19c-26 -16.667 -39 -33.334 -39 -50.001
c0 -18.667 18 -49.667 54 -93l38 -45c43.333 -52 65 -97 65 -135v-6h162v-54h-168c-12.667 -45.333 -46.334 -90.666 -101.001 -135.999l-62 -52h362l-31 -126h-511z" />
    <glyph glyph-name="yen" unicode="&#xa5;" horiz-adv-x="826" 
d="M154 167l-0.00195312 53.999h185v59h-185v54h185v8l-220 335c-11.333 17.333 -20.666 28.666 -27.999 33.999s-19.333 9 -36 11l-33 4v32h343v-32l-43 -4c-40 -3.33301 -51.333 -18.333 -34 -45l177 -276l182 276c8.66699 16.667 10 27.834 4 33.501
s-18.667 9.5 -38 11.5l-43 4v32h234v-32l-33 -4c-16.667 -2 -28.667 -5.66699 -36 -11s-16.666 -16.666 -27.999 -33.999l-220 -336v-7h185v-54h-185v-59h185v-54h-185v-84c0 -16.667 4.16699 -28.667 12.5 -36s21.5 -11.666 39.5 -12.999l35 -2v-32h-322v32l35 2
c18 1.33301 31.167 5.66602 39.5 12.999s12.5 19.333 12.5 36v84h-185z" />
    <glyph glyph-name="brokenbar" unicode="&#xa6;" horiz-adv-x="275" 
d="M92 405v421h91v-421h-91zM92 -238v421h91v-421h-91z" />
    <glyph glyph-name="section" unicode="&#xa7;" horiz-adv-x="632" 
d="M252 177l-66 66.0029c-50.667 50.667 -86.334 95.667 -107.001 135s-31 84 -31 134c0 70 30.833 132 92.5 186s137.834 81 228.501 81c61.333 0 112.5 -12.5 153.5 -37.5s61.5 -56.5 61.5 -94.5c0 -31.333 -11.167 -54.833 -33.5 -70.5s-56.5 -20.834 -102.5 -15.501
c-7.33301 114.667 -52.333 172 -135 172c-30 0 -53.167 -8 -69.5 -24s-24.5 -37.333 -24.5 -64c0 -30.667 11.667 -63.834 35 -99.501s60.333 -78.834 111 -129.501l66 -66c58 -58 100 -107 126 -147s39 -84.667 39 -134c0 -70.667 -31.167 -132.5 -93.5 -185.5
s-132.833 -79.5 -211.5 -79.5c-71.333 0 -131.666 14.333 -180.999 43s-74 64.667 -74 108c0 28.667 12.5 51.167 37.5 67.5s59.5 21.833 103.5 16.5c8.66699 -64 22.5 -112.5 41.5 -145.5s50.5 -49.5 94.5 -49.5c32 0 56.833 8.5 74.5 25.5s26.5 39.833 26.5 68.5
c0 34.667 -12.333 68.5 -37 101.5s-66.334 78.833 -125.001 137.5zM433 -126.997c60 43.333 89.999 95.3311 89.999 155.998c0 41.333 -12 82 -36 122s-62 86 -114 138l-70 70c-95.333 95.333 -143 177 -143 245c0 43.333 11 77 33 101c-54 -42 -81 -92.667 -81 -152
c0 -41.333 10.5 -81.666 31.5 -120.999s56.167 -83.666 105.5 -132.999l70 -70c54.667 -54.667 94.334 -101.5 119.001 -140.5s37 -75.5 37 -109.5c0 -44.667 -14 -80 -42 -106z" />
    <glyph glyph-name="dieresis" unicode="&#xa8;" 
d="M113 636c-19.333 0 -35.5 6.66699 -48.5 20s-19.5 29.666 -19.5 48.999c0 20 6.5 36.5 19.5 49.5s29.167 19.5 48.5 19.5s35.5 -6.5 48.5 -19.5s19.5 -29.5 19.5 -49.5c0 -19.333 -6.5 -35.666 -19.5 -48.999s-29.167 -20 -48.5 -20zM-113 636
c-19.333 0 -35.5 6.66699 -48.5 20s-19.5 29.666 -19.5 48.999c0 20 6.5 36.5 19.5 49.5s29.167 19.5 48.5 19.5s35.5 -6.5 48.5 -19.5s19.5 -29.5 19.5 -49.5c0 -19.333 -6.5 -35.666 -19.5 -48.999s-29.167 -20 -48.5 -20z" />
    <glyph glyph-name="copyright" unicode="&#xa9;" horiz-adv-x="872" 
d="M436 -13c-112 0 -206.5 37.167 -283.5 111.5s-115.5 169.166 -115.5 284.499s38.5 210.166 115.5 284.499s171.5 111.5 283.5 111.5s206.5 -37.167 283.5 -111.5s115.5 -169.166 115.5 -284.499s-38.5 -210.166 -115.5 -284.499s-171.5 -111.5 -283.5 -111.5zM436 35
c98.667 0 180.334 32 245.001 96s97 148 97 252s-32.333 188 -97 252s-146.334 96 -245.001 96s-180.334 -32 -245.001 -96s-97 -148 -97 -252s32.333 -188 97 -252s146.334 -96 245.001 -96zM450 162c-74 0 -134.499 20.999 -181.499 62.999s-70.5 96.333 -70.5 163
s23.833 120.834 71.5 162.501s109.167 62.5 184.5 62.5c44 0 87.333 -5.66699 130 -17l26 -160h-7l-90 117c-12 15.333 -24 25 -36 29c-8 1.33301 -17.667 2 -29 2c-36 0 -67.5 -13.833 -94.5 -41.5s-40.5 -72.167 -40.5 -133.5c0 -60.667 12.333 -112 37 -154
s61 -63 109 -63c11.333 0 21 1 29 3c12.667 4 24.667 13.333 36 28l89 115h7l-30 -159c-42.667 -11.333 -89.334 -17 -140.001 -17z" />
    <glyph glyph-name="ordfeminine" unicode="&#xaa;" horiz-adv-x="472" 
d="M168 359c-36 0 -65.665 11.334 -88.998 34.001s-35 49.334 -35 80.001c0 14 2.66699 26.667 8 38s13.666 21.166 24.999 29.499s21.333 15 30 20s20.834 10.667 36.501 17s25.834 10.833 30.501 13.5c40 19.333 65.5 35.833 76.5 49.5s16.5 33.834 16.5 60.501
c0 18 -4.16699 32.5 -12.5 43.5s-19.5 16.5 -33.5 16.5c-26.667 0 -44.334 -11.833 -53.001 -35.5s-7.33398 -55.167 3.99902 -94.5c-16 -2 -31 -3 -45 -3c-55.333 0 -83 15 -83 45c0 24.667 30.667 51 92 79c4 2 11.5 5.5 22.5 10.5s18.667 8.33301 23 10
s11.166 4.16699 20.499 7.5s17 5.66602 23 6.99902s13.333 2.66602 22 3.99902s17.334 2 26.001 2c41.333 0 71.166 -9.5 89.499 -28.5s27.5 -54.5 27.5 -106.5l-3 -231h53v-28l-162 -37l-10 67c-18.667 -46.667 -52 -70 -100 -70zM223.002 412.001
c10.667 0 20.501 6.83203 29.501 20.499s13.5 34.167 13.5 61.5v133c-8.66699 -10 -20.334 -20.667 -35.001 -32c-34 -26 -51 -61 -51 -105c0 -19.333 3.66699 -37.166 11 -53.499s18 -24.5 32 -24.5z" />
    <glyph glyph-name="guillemotleft" unicode="&#xab;" horiz-adv-x="543" 
d="M169 250l116 -223l-13 -9l-238 233l238 233l13 -9zM379 250l116 -223l-13 -9l-238 233l238 233l13 -9z" />
    <glyph glyph-name="uni00AD" unicode="&#xad;" horiz-adv-x="406" 
d="M56 222v81h294v-81h-294z" />
    <glyph glyph-name="registered" unicode="&#xae;" horiz-adv-x="872" 
d="M436 -13c-112 0 -206.5 37.167 -283.5 111.5s-115.5 169.166 -115.5 284.499s38.5 210.166 115.5 284.499s171.5 111.5 283.5 111.5s206.5 -37.167 283.5 -111.5s115.5 -169.166 115.5 -284.499s-38.5 -210.166 -115.5 -284.499s-171.5 -111.5 -283.5 -111.5zM436 35
c98.667 0 180.334 32 245.001 96s97 148 97 252s-32.333 188 -97 252s-146.334 96 -245.001 96s-180.334 -32 -245.001 -96s-97 -148 -97 -252s32.333 -188 97 -252s146.334 -96 245.001 -96zM222 180v23l17 2c11.333 1.33301 19.666 4 24.999 8s8 11.667 8 23v318
c0 11.333 -2.66699 19 -8 23s-13.666 6.66699 -24.999 8l-17 2v23h186c126 0 189 -34 189 -102c0 -22 -7.66699 -42.833 -23 -62.5s-40.666 -33.5 -75.999 -41.5l177 -224h-127l-158 209h-14v-153c0 -11.333 2.66699 -19 8 -23s13.666 -6.66699 24.999 -8l17 -2v-23h-204z
M376 417h28c52 0 78 27.667 78 83c0 54.667 -26 82 -78 82h-28v-165z" />
    <glyph glyph-name="macron" unicode="&#xaf;" 
d="M-157 669v68h314v-68h-314z" />
    <glyph glyph-name="degree" unicode="&#xb0;" horiz-adv-x="408" 
d="M204 441c-47.333 0 -87.5 16.333 -120.5 49s-49.5 72.667 -49.5 120s16.5 87.333 49.5 120s73.167 49 120.5 49s87.5 -16.333 120.5 -49s49.5 -72.667 49.5 -120s-16.5 -87.333 -49.5 -120s-73.167 -49 -120.5 -49zM204 496c30.667 0 56.5 10.667 77.5 32
s31.5 48.666 31.5 81.999s-10.5 60.666 -31.5 81.999s-46.833 32 -77.5 32s-56.5 -10.667 -77.5 -32s-31.5 -48.666 -31.5 -81.999s10.5 -60.666 31.5 -81.999s46.833 -32 77.5 -32z" />
    <glyph glyph-name="plusminus" unicode="&#xb1;" horiz-adv-x="645" 
d="M283 120v163h-209v75h209v158h79v-158h209v-75h-209v-163h-79zM74 0v75h497v-75h-497z" />
    <glyph glyph-name="twosuperior" unicode="&#xb2;" horiz-adv-x="331" 
d="M5 401v2.00195c124.667 131.333 187 234.666 187 309.999c0 43.333 -19.333 65 -58 65c-20 0 -37.5 -7.33301 -52.5 -22s-24.5 -37 -28.5 -67h-23c1.33301 46.667 15.833 82 43.5 106s61.5 36 101.5 36s70.5 -9.83301 91.5 -29.5s31.5 -42.834 31.5 -69.501
c0 -20.667 -8.5 -43.834 -25.5 -69.501s-31.833 -44.667 -44.5 -57l-70 -66.5l-53 -50h88c30 0 50.5 1.83301 61.5 5.5s19.5 12.834 25.5 27.501l3 8h23l-29 -129h-272z" />
    <glyph glyph-name="threesuperior" unicode="&#xb3;" horiz-adv-x="337" 
d="M110 393c-26.667 0 -49.333 5.83203 -68 17.499s-28 28.5 -28 50.5c0 16 7 29.333 21 40s32.667 14 56 10c5.33301 -28.667 12.833 -49.834 22.5 -63.501s23.834 -20.5 42.501 -20.5c16 0 30.667 5.83301 44 17.5s20 29.834 20 54.501c0 31.333 -9.33301 56.5 -28 75.5
s-40.334 28.5 -65.001 28.5c-16.667 0 -30 -2.66699 -40 -8l-8 25l16 6c30.667 12 55.167 27.5 73.5 46.5s27.5 38.167 27.5 57.5c0 15.333 -4.83301 27.166 -14.5 35.499s-22.5 12.5 -38.5 12.5c-44 0 -69.333 -24.667 -76 -74h-23c8 84.667 56 127 144 127
c27.333 0 51.333 -6.16699 72 -18.5s31 -29.166 31 -50.499c0 -18 -7.16699 -33.167 -21.5 -45.5s-38.833 -22.166 -73.5 -29.499v-2c36.667 -10 65 -26.667 85 -50s30 -48.333 30 -75c0 -47.333 -20.5 -87 -61.5 -119s-87.5 -48 -139.5 -48z" />
    <glyph glyph-name="acute" unicode="&#xb4;" 
d="M-129 609l110 179h148v-11l-230 -168h-28z" />
    <glyph glyph-name="paragraph" unicode="&#xb6;" horiz-adv-x="587" 
d="M279 -213v499.999c-4 -0.666992 -10.333 -1 -19 -1c-71.333 0 -128 20.333 -170 61s-63 94.334 -63 161.001c0 73.333 29.167 133.5 87.5 180.5s139.5 70.167 243.5 69.5h188v-36l-35 -4c-20 -2 -34 -6.16699 -42 -12.5s-12 -18.5 -12 -36.5v-746l-101 -77v457
c-13.333 -4 -23.333 -6.66699 -30 -8v-471z" />
    <glyph glyph-name="periodcentered" unicode="&#xb7;" horiz-adv-x="296" 
d="M146 165c-26 0 -48.333 9.5 -67 28.5s-28 42.5 -28 70.5c0 26 9.33301 48.333 28 67s41 28 67 28c28 0 51.5 -9.33301 70.5 -28s28.5 -41 28.5 -67c0 -28 -9.5 -51.5 -28.5 -70.5s-42.5 -28.5 -70.5 -28.5z" />
    <glyph glyph-name="cedilla" unicode="&#xb8;" 
d="M-33 -265c-23.333 0 -43.834 4.5 -61.501 13.5s-26.5 21.833 -26.5 38.5c0 12 4.83301 21.5 14.5 28.5s22.834 9.16699 39.501 6.5c0 -16.667 5.5 -30 16.5 -40s24.5 -15 40.5 -15c12 0 21.833 2.83301 29.5 8.5s11.5 12.834 11.5 21.501
c0 19.333 -38.667 46.333 -116 81l119 127h44l-75 -80c29.333 -15.333 50.166 -30 62.499 -44s18.5 -31.667 18.5 -53c0 -24.667 -10.667 -46.334 -32 -65.001s-49.666 -28 -84.999 -28z" />
    <glyph glyph-name="onesuperior" unicode="&#xb9;" horiz-adv-x="245" 
d="M78 458l-0.000976562 292l-61 -23v32l161 67v-368c0 -10.667 1.83301 -18.167 5.5 -22.5s10.834 -6.83301 21.501 -7.5l22 -2v-25h-197v26l23 2c10 0.666992 16.667 3 20 7s5 11.333 5 22z" />
    <glyph glyph-name="ordmasculine" unicode="&#xba;" horiz-adv-x="496" 
d="M246 359c-62.667 0 -114.167 20.667 -154.5 62s-60.5 91.333 -60.5 150c0 63.333 21.333 115.833 64 157.5s94.334 62.5 155.001 62.5c62.667 0 114.167 -20.5 154.5 -61.5s60.5 -90.833 60.5 -149.5c0 -63.333 -21.333 -116 -64 -158s-94.334 -63 -155.001 -63zM248 394
c24.667 0 43 13.667 55 41s18 74.333 18 141s-6 113.667 -18 141s-30.333 41 -55 41c-25.333 0 -44.166 -13.5 -56.499 -40.5s-18.5 -74.167 -18.5 -141.5s6.16699 -114.5 18.5 -141.5s31.166 -40.5 56.499 -40.5z" />
    <glyph glyph-name="guillemotright" unicode="&#xbb;" horiz-adv-x="543" 
d="M172 250l-116 225l13 9l238 -233l-238 -233l-13 9zM382 250l-116 225l13 9l238 -233l-238 -233l-13 9z" />
    <glyph glyph-name="onequarter" unicode="&#xbc;" horiz-adv-x="805" 
d="M79 398l-0.000976562 292l-61 -23v32l161 67v-368c0 -10.667 1.83301 -18.167 5.5 -22.5s10.834 -6.83301 21.501 -7.5l22 -2v-25h-197v26l23 2c10 0.666992 16.667 3 20 7s5 11.333 5 22zM21.999 0l566 758h92l-566 -758h-92zM620.999 0v100h-194l204 316h90v-244h69
v-72h-69v-100h-100zM510.999 172h110v173z" />
    <glyph glyph-name="onehalf" unicode="&#xbd;" horiz-adv-x="784" 
d="M79 398l-0.000976562 292l-61 -23v32l161 67v-368c0 -10.667 1.83301 -18.167 5.5 -22.5s10.834 -6.83301 21.501 -7.5l22 -2v-25h-197v26l23 2c10 0.666992 16.667 3 20 7s5 11.333 5 22zM21.999 0l566 758h92l-566 -758h-92zM457.999 0v2.00195
c124.667 131.333 187 234.666 187 309.999c0 43.333 -19.333 65 -58 65c-20 0 -37.5 -7.33301 -52.5 -22s-24.5 -37 -28.5 -67h-23c1.33301 46.667 15.833 82 43.5 106s61.5 36 101.5 36s70.5 -9.83301 91.5 -29.5s31.5 -42.834 31.5 -69.501
c0 -20.667 -8.5 -43.834 -25.5 -69.501s-31.833 -44.667 -44.5 -57l-70 -66.5l-53 -50h88c30 0 50.5 1.83301 61.5 5.5s19.5 12.834 25.5 27.501l3 8h23l-29 -129h-272z" />
    <glyph glyph-name="threequarters" unicode="&#xbe;" horiz-adv-x="897" 
d="M111 333c-26.667 0 -49.333 5.83203 -68 17.499s-28 28.5 -28 50.5c0 16 7 29.333 21 40s32.667 14 56 10c5.33301 -28.667 12.833 -49.834 22.5 -63.501s23.834 -20.5 42.501 -20.5c16 0 30.667 5.83301 44 17.5s20 29.834 20 54.501c0 31.333 -9.33301 56.5 -28 75.5
s-40.334 28.5 -65.001 28.5c-16.667 0 -30 -2.66699 -40 -8l-8 25l16 6c30.667 12 55.167 27.5 73.5 46.5s27.5 38.167 27.5 57.5c0 15.333 -4.83301 27.166 -14.5 35.499s-22.5 12.5 -38.5 12.5c-44 0 -69.333 -24.667 -76 -74h-23c8 84.667 56 127 144 127
c27.333 0 51.333 -6.16699 72 -18.5s31 -29.166 31 -50.499c0 -18 -7.16699 -33.167 -21.5 -45.5s-38.833 -22.166 -73.5 -29.499v-2c36.667 -10 65 -26.667 85 -50s30 -48.333 30 -75c0 -47.333 -20.5 -87 -61.5 -119s-87.5 -48 -139.5 -48zM114.001 -0.000976562l566 758
h92l-566 -758h-92zM713.001 -0.000976562v100h-194l204 316h90v-244h69v-72h-69v-100h-100zM603.001 171.999h110v173z" />
    <glyph glyph-name="questiondown" unicode="&#xbf;" horiz-adv-x="561" 
d="M387 521c26 0 48.333 -9.5 67 -28.5s28 -42.5 28 -70.5c0 -26 -9.33301 -48.333 -28 -67s-41 -28 -67 -28c-28 0 -51.5 9.33301 -70.5 28s-28.5 41 -28.5 67c0 28 9.5 51.5 28.5 70.5s42.5 28.5 70.5 28.5zM293 -215c78.667 0 117.998 42.333 117.998 127
c34.667 1.33301 65.667 -5 93 -19s41 -34.667 41 -62c0 -28 -19 -50.333 -57 -67s-85.333 -25 -142 -25c-94 0 -169.333 23.833 -226 71.5s-85 111.5 -85 191.5c0 94 61.667 149 185 165l109 14c15.333 2 24.833 4.66699 28.5 8s5.83398 11.666 6.50098 24.999l2 61h32
l26 -157c2 -11.333 3 -21.5 3 -30.5s-0.666992 -16.667 -2 -23s-4.16602 -11.666 -8.49902 -15.999s-8.5 -8 -12.5 -11s-10.333 -5.5 -19 -7.5s-16.5 -3.66699 -23.5 -5s-16.5 -2.66602 -28.5 -3.99902l-123 -15c-40.667 -5.33301 -67.667 -14 -81 -26s-20 -29 -20 -51
c0 -38.667 19.5 -72.334 58.5 -101.001s80.833 -43 125.5 -43z" />
    <glyph glyph-name="Agrave" unicode="&#xc0;" horiz-adv-x="758" 
d="M412 843h-31l-251 126v3h183zM685 85c6.66699 -16.667 14.3301 -27.834 22.9971 -33.501s22.334 -9.5 41.001 -11.5l33 -4v-36h-344v36l43 4c18.667 1.33301 30.5 4.83301 35.5 10.5s4.5 17.167 -1.5 34.5l-64 162h-257l-65 -162c-6 -17.333 -6.5 -28.833 -1.5 -34.5
s16.833 -9.16699 35.5 -10.5l43 -4v-36h-231v36l33 4c18.667 2 32.334 5.83301 41.001 11.5s16.334 16.834 23.001 33.501l297 723h20zM322.996 568l-105 -262h209z" />
    <glyph glyph-name="Aacute" unicode="&#xc1;" horiz-adv-x="758" 
d="M361 843l99 129h183v-3l-251 -126h-31zM685 85c6.66699 -16.667 14.3301 -27.834 22.9971 -33.501s22.334 -9.5 41.001 -11.5l33 -4v-36h-344v36l43 4c18.667 1.33301 30.5 4.83301 35.5 10.5s4.5 17.167 -1.5 34.5l-64 162h-257l-65 -162
c-6 -17.333 -6.5 -28.833 -1.5 -34.5s16.833 -9.16699 35.5 -10.5l43 -4v-36h-231v36l33 4c18.667 2 32.334 5.83301 41.001 11.5s16.334 16.834 23.001 33.501l297 723h20zM322.996 568l-105 -262h209z" />
    <glyph glyph-name="Acircumflex" unicode="&#xc2;" horiz-adv-x="758" 
d="M206 833l165 159h16l165 -159h-33l-140 64l-140 -64h-33zM685 85c6.66699 -16.667 14.3301 -27.834 22.9971 -33.501s22.334 -9.5 41.001 -11.5l33 -4v-36h-344v36l43 4c18.667 1.33301 30.5 4.83301 35.5 10.5s4.5 17.167 -1.5 34.5l-64 162h-257l-65 -162
c-6 -17.333 -6.5 -28.833 -1.5 -34.5s16.833 -9.16699 35.5 -10.5l43 -4v-36h-231v36l33 4c18.667 2 32.334 5.83301 41.001 11.5s16.334 16.834 23.001 33.501l297 723h20zM322.996 568l-105 -262h209z" />
    <glyph glyph-name="Atilde" unicode="&#xc3;" horiz-adv-x="758" 
d="M452 829c-23.333 0 -51.165 9.66602 -83.498 28.999s-56.833 29 -73.5 29c-34 0 -52.667 -18 -56 -54h-21c0 40.667 8 75.334 24 104.001s40 43 72 43c19.333 0 45.833 -9.66699 79.5 -29s57.5 -29 71.5 -29c34 0 52 16.667 54 50h21
c-0.666992 -50 -9.33398 -86.333 -26.001 -109s-37.334 -34 -62.001 -34zM685.001 84.999c6.66699 -16.667 14.3301 -27.834 22.9971 -33.501s22.334 -9.5 41.001 -11.5l33 -4v-36h-344v36l43 4c18.667 1.33301 30.5 4.83301 35.5 10.5s4.5 17.167 -1.5 34.5l-64 162h-257
l-65 -162c-6 -17.333 -6.5 -28.833 -1.5 -34.5s16.833 -9.16699 35.5 -10.5l43 -4v-36h-231v36l33 4c18.667 2 32.334 5.83301 41.001 11.5s16.334 16.834 23.001 33.501l297 723h20zM322.997 567.999l-105 -262h209z" />
    <glyph glyph-name="Adieresis" unicode="&#xc4;" horiz-adv-x="758" 
d="M266 837c-20 0 -36.667 6.83301 -50 20.5s-20 30.5 -20 50.5c0 20.667 6.66699 37.667 20 51s30 20 50 20s36.667 -6.83301 50 -20.5s20 -30.5 20 -50.5s-6.83301 -36.833 -20.5 -50.5s-30.167 -20.5 -49.5 -20.5zM492 837c-20 0 -36.667 6.83301 -50 20.5
s-20 30.5 -20 50.5c0 20.667 6.66699 37.667 20 51s30 20 50 20s36.667 -6.83301 50 -20.5s20 -30.5 20 -50.5s-6.83301 -36.833 -20.5 -50.5s-30.167 -20.5 -49.5 -20.5zM685 85c6.66699 -16.667 14.3301 -27.834 22.9971 -33.501s22.334 -9.5 41.001 -11.5l33 -4v-36h-344
v36l43 4c18.667 1.33301 30.5 4.83301 35.5 10.5s4.5 17.167 -1.5 34.5l-64 162h-257l-65 -162c-6 -17.333 -6.5 -28.833 -1.5 -34.5s16.833 -9.16699 35.5 -10.5l43 -4v-36h-231v36l33 4c18.667 2 32.334 5.83301 41.001 11.5s16.334 16.834 23.001 33.501l297 723h20z
M322.996 568l-105 -262h209z" />
    <glyph glyph-name="Aring" unicode="&#xc5;" horiz-adv-x="758" 
d="M379 837c-34 0 -63.167 11.667 -87.5 35s-36.5 51.666 -36.5 84.999s12.167 61.833 36.5 85.5s53.5 35.5 87.5 35.5c35.333 0 65.333 -11.833 90 -35.5s37 -52.167 37 -85.5s-12.333 -61.666 -37 -84.999s-54.667 -35 -90 -35zM379 890c20.667 0 36.834 6 48.501 18
s17.5 28.333 17.5 49s-5.83301 36.834 -17.5 48.501s-27.834 17.5 -48.501 17.5c-20 0 -35.833 -5.83301 -47.5 -17.5s-17.5 -27.834 -17.5 -48.501s5.83301 -37 17.5 -49s27.5 -18 47.5 -18zM685 85c6.66699 -16.667 14.3301 -27.834 22.9971 -33.501
s22.334 -9.5 41.001 -11.5l33 -4v-36h-344v36l43 4c18.667 1.33301 30.5 4.83301 35.5 10.5s4.5 17.167 -1.5 34.5l-64 162h-257l-65 -162c-6 -17.333 -6.5 -28.833 -1.5 -34.5s16.833 -9.16699 35.5 -10.5l43 -4v-36h-231v36l33 4c18.667 2 32.334 5.83301 41.001 11.5
s16.334 16.834 23.001 33.501l297 723h20zM322.996 568l-105 -262h209z" />
    <glyph glyph-name="AE" unicode="&#xc6;" horiz-adv-x="1180" 
d="M453 0l-0.000976562 36l35 4c20 2 34 6.16699 42 12.5s12 18.5 12 36.5v158h-286l-110 -162c-11.333 -15.333 -16.333 -26.333 -15 -33s10.333 -10.667 27 -12l43 -4v-36h-233v36l33 4c40.667 4.66699 69.334 19.667 86.001 45l455 673h507l37 -271h-12l-153 207
c-6 8 -11 13 -15 15s-11.333 3 -22 3h-182v-293h116c8 0 13.667 3.66699 17 11l58 131h12v-336h-12l-58 131c-3.33301 7.33301 -9 11 -17 11h-116v-321h227c8.66699 0 14.5 0.833008 17.5 2.5s7.5 5.5 13.5 11.5l194 211h12l-75 -271h-638zM294.999 306h247v365z" />
    <glyph glyph-name="Ccedilla" unicode="&#xc7;" horiz-adv-x="810" 
d="M388 -270c-23.333 0 -43.834 4.49805 -61.501 13.498s-26.5 21.833 -26.5 38.5c0 12 4.83301 21.5 14.5 28.5s22.834 9.16699 39.501 6.5c0 -16.667 5.5 -30 16.5 -40s24.5 -15 40.5 -15c12 0 21.833 2.83301 29.5 8.5s11.5 12.834 11.5 21.501
c0 19.333 -38.667 46.333 -116 81l108 115c-123.333 6.66699 -222.166 45.834 -296.499 117.501s-111.5 164.167 -111.5 277.5c0 118.667 41 214.334 123 287.001s190 109 324 109c88.667 0 165.667 -11.667 231 -35l46 -262h-22l-132 192c-17.333 25.333 -37 42 -59 50
c-16.667 6 -40.667 9 -72 9c-34 0 -65.833 -5.5 -95.5 -16.5s-57.334 -28.167 -83.001 -51.5s-46 -56.333 -61 -99s-22.5 -92.667 -22.5 -150c0 -70.667 9.33301 -134 28 -190s49.5 -102.167 92.5 -138.5s95.5 -54.5 157.5 -54.5c31.333 0 55.333 3 72 9
c22 8 41.667 24.667 59 50l132 192h22l-53 -262c-63.333 -22 -142 -33.667 -236 -35l-63 -67c29.333 -15.333 50.166 -30 62.499 -44s18.5 -31.667 18.5 -53c0 -24.667 -10.667 -46.334 -32 -65.001s-49.666 -28 -84.999 -28z" />
    <glyph glyph-name="Egrave" unicode="&#xc8;" horiz-adv-x="769" 
d="M427 843h-31l-251 126v3h183zM42 0l-0.000976562 36l45 4c18 1.33301 29.833 5 35.5 11s8.5 18.667 8.5 38v580c0 19.333 -2.83301 32 -8.5 38s-17.5 9.66699 -35.5 11l-45 4v36h596l37 -271h-22l-143 207c-5.33301 8 -10.166 13 -14.499 15s-11.833 3 -22.5 3h-182v-293
h116c8.66699 0 14.334 3.66699 17.001 11l48 131h22v-336h-22l-48 131c-2.66699 7.33301 -8.33398 11 -17.001 11h-116v-321h227c8.66699 0 14.5 0.833008 17.5 2.5s7.5 5.5 13.5 11.5l184 211h22l-75 -271h-638z" />
    <glyph glyph-name="Eacute" unicode="&#xc9;" horiz-adv-x="769" 
d="M376 843l99 129h183v-3l-251 -126h-31zM42 0l-0.000976562 36l45 4c18 1.33301 29.833 5 35.5 11s8.5 18.667 8.5 38v580c0 19.333 -2.83301 32 -8.5 38s-17.5 9.66699 -35.5 11l-45 4v36h596l37 -271h-22l-143 207c-5.33301 8 -10.166 13 -14.499 15s-11.833 3 -22.5 3
h-182v-293h116c8.66699 0 14.334 3.66699 17.001 11l48 131h22v-336h-22l-48 131c-2.66699 7.33301 -8.33398 11 -17.001 11h-116v-321h227c8.66699 0 14.5 0.833008 17.5 2.5s7.5 5.5 13.5 11.5l184 211h22l-75 -271h-638z" />
    <glyph glyph-name="Ecircumflex" unicode="&#xca;" horiz-adv-x="769" 
d="M221 833l165 159h16l165 -159h-33l-140 64l-140 -64h-33zM42 0l-0.000976562 36l45 4c18 1.33301 29.833 5 35.5 11s8.5 18.667 8.5 38v580c0 19.333 -2.83301 32 -8.5 38s-17.5 9.66699 -35.5 11l-45 4v36h596l37 -271h-22l-143 207c-5.33301 8 -10.166 13 -14.499 15
s-11.833 3 -22.5 3h-182v-293h116c8.66699 0 14.334 3.66699 17.001 11l48 131h22v-336h-22l-48 131c-2.66699 7.33301 -8.33398 11 -17.001 11h-116v-321h227c8.66699 0 14.5 0.833008 17.5 2.5s7.5 5.5 13.5 11.5l184 211h22l-75 -271h-638z" />
    <glyph glyph-name="Edieresis" unicode="&#xcb;" horiz-adv-x="769" 
d="M281 837c-20 0 -36.667 6.83301 -50 20.5s-20 30.5 -20 50.5c0 20.667 6.66699 37.667 20 51s30 20 50 20c19.333 0 35.833 -6.83301 49.5 -20.5s20.5 -30.5 20.5 -50.5s-6.83301 -36.833 -20.5 -50.5s-30.167 -20.5 -49.5 -20.5zM507 837
c-20 0 -36.667 6.83301 -50 20.5s-20 30.5 -20 50.5c0 20.667 6.66699 37.667 20 51s30 20 50 20c19.333 0 35.833 -6.83301 49.5 -20.5s20.5 -30.5 20.5 -50.5s-6.83301 -36.833 -20.5 -50.5s-30.167 -20.5 -49.5 -20.5zM42 0l-0.000976562 36l45 4
c18 1.33301 29.833 5 35.5 11s8.5 18.667 8.5 38v580c0 19.333 -2.83301 32 -8.5 38s-17.5 9.66699 -35.5 11l-45 4v36h596l37 -271h-22l-143 207c-5.33301 8 -10.166 13 -14.499 15s-11.833 3 -22.5 3h-182v-293h116c8.66699 0 14.334 3.66699 17.001 11l48 131h22v-336
h-22l-48 131c-2.66699 7.33301 -8.33398 11 -17.001 11h-116v-321h227c8.66699 0 14.5 0.833008 17.5 2.5s7.5 5.5 13.5 11.5l184 211h22l-75 -271h-638z" />
    <glyph glyph-name="Igrave" unicode="&#xcc;" horiz-adv-x="422" 
d="M244 843h-31l-251 126v3h183zM42 0v36l45 4c18 1.33301 29.833 5 35.5 11s8.5 18.667 8.5 38v580c0 19.333 -2.83301 32 -8.5 38s-17.5 9.66699 -35.5 11l-45 4v36h338v-36l-45 -4c-18 -1.33301 -29.833 -5 -35.5 -11s-8.5 -18.667 -8.5 -38v-580
c0 -19.333 2.83301 -32 8.5 -38s17.5 -9.66699 35.5 -11l45 -4v-36h-338z" />
    <glyph glyph-name="Iacute" unicode="&#xcd;" horiz-adv-x="422" 
d="M193 843l99 129h183v-3l-251 -126h-31zM42 0v36l45 4c18 1.33301 29.833 5 35.5 11s8.5 18.667 8.5 38v580c0 19.333 -2.83301 32 -8.5 38s-17.5 9.66699 -35.5 11l-45 4v36h338v-36l-45 -4c-18 -1.33301 -29.833 -5 -35.5 -11s-8.5 -18.667 -8.5 -38v-580
c0 -19.333 2.83301 -32 8.5 -38s17.5 -9.66699 35.5 -11l45 -4v-36h-338z" />
    <glyph glyph-name="Icircumflex" unicode="&#xce;" horiz-adv-x="422" 
d="M38 833l165 159h16l165 -159h-33l-140 64l-140 -64h-33zM42 0v36l45 4c18 1.33301 29.833 5 35.5 11s8.5 18.667 8.5 38v580c0 19.333 -2.83301 32 -8.5 38s-17.5 9.66699 -35.5 11l-45 4v36h338v-36l-45 -4c-18 -1.33301 -29.833 -5 -35.5 -11s-8.5 -18.667 -8.5 -38
v-580c0 -19.333 2.83301 -32 8.5 -38s17.5 -9.66699 35.5 -11l45 -4v-36h-338z" />
    <glyph glyph-name="Idieresis" unicode="&#xcf;" horiz-adv-x="422" 
d="M98 837c-20 0 -36.667 6.83301 -50 20.5s-20 30.5 -20 50.5c0 20.667 6.66699 37.667 20 51s30 20 50 20s36.667 -6.83301 50 -20.5s20 -30.5 20 -50.5s-6.83301 -36.833 -20.5 -50.5s-30.167 -20.5 -49.5 -20.5zM324 837c-20 0 -36.667 6.83301 -50 20.5
s-20 30.5 -20 50.5c0 20.667 6.66699 37.667 20 51s30 20 50 20s36.667 -6.83301 50 -20.5s20 -30.5 20 -50.5s-6.83301 -36.833 -20.5 -50.5s-30.167 -20.5 -49.5 -20.5zM42 0v36l45 4c18 1.33301 29.833 5 35.5 11s8.5 18.667 8.5 38v580c0 19.333 -2.83301 32 -8.5 38
s-17.5 9.66699 -35.5 11l-45 4v36h338v-36l-45 -4c-18 -1.33301 -29.833 -5 -35.5 -11s-8.5 -18.667 -8.5 -38v-580c0 -19.333 2.83301 -32 8.5 -38s17.5 -9.66699 35.5 -11l45 -4v-36h-338z" />
    <glyph glyph-name="Eth" unicode="&#xd0;" horiz-adv-x="860" 
d="M56 0v36l45 4c18 1.33301 29.833 5 35.5 11s8.5 18.667 8.5 38v279h-89v59h89v242c0 19.333 -2.83301 32 -8.5 38s-17.5 9.66699 -35.5 11l-45 4v36h301c138 0 249.667 -32.833 335 -98.5s128 -157.167 128 -274.5s-42.667 -210.833 -128 -280.5
s-194.333 -104.5 -327 -104.5h-309zM305 44l52 0.000976562c189.333 0 284 102.333 284 307c0 125.333 -23.667 217.166 -71 275.499s-120.333 87.5 -219 87.5h-46v-287h150v-59h-150v-324z" />
    <glyph glyph-name="Ntilde" unicode="&#xd1;" horiz-adv-x="877" 
d="M535 829c-23.333 0 -51.165 9.66602 -83.498 28.999s-56.833 29 -73.5 29c-34 0 -52.667 -18 -56 -54h-21c0 40.667 8 75.334 24 104.001s40 43 72 43c19.333 0 45.833 -9.66699 79.5 -29s57.5 -29 71.5 -29c34 0 52 16.667 54 50h21
c-0.666992 -50 -9.33398 -86.333 -26.001 -109s-37.334 -34 -62.001 -34zM46.001 -0.000976562v36l45 4c18 1.33301 29.833 5 35.5 11s8.5 18.667 8.5 38v558l-101 109v2h210l456 -475v386c0 19.333 -2.83301 32 -8.5 38s-17.5 9.66699 -35.5 11l-45 4v36h234v-36l-45 -4
c-18 -1.33301 -29.833 -5 -35.5 -11s-8.5 -18.667 -8.5 -38v-686h-4l-561 604v-498c0 -19.333 2.83301 -32 8.5 -38s17.5 -9.66699 35.5 -11l45 -4v-36h-234z" />
    <glyph glyph-name="Ograve" unicode="&#xd2;" horiz-adv-x="892" 
d="M479 843h-31l-251 126v3h183zM446 -13c-72.667 0 -139.667 15.333 -201 46s-111.5 76.5 -150.5 137.5s-58.5 131.833 -58.5 212.5s19.5 151.5 58.5 212.5s89.167 106.833 150.5 137.5s128.333 46 201 46s139.667 -15.333 201 -46s111.5 -76.5 150.5 -137.5
s58.5 -131.833 58.5 -212.5s-19.5 -151.5 -58.5 -212.5s-89.167 -106.833 -150.5 -137.5s-128.333 -46 -201 -46zM446 35c72.667 0 129.5 30.167 170.5 90.5s61.5 146.166 61.5 257.499s-20.5 197.166 -61.5 257.499s-97.833 90.5 -170.5 90.5s-129.5 -30.167 -170.5 -90.5
s-61.5 -146.166 -61.5 -257.499s20.5 -197.166 61.5 -257.499s97.833 -90.5 170.5 -90.5z" />
    <glyph glyph-name="Oacute" unicode="&#xd3;" horiz-adv-x="892" 
d="M428 843l99 129h183v-3l-251 -126h-31zM446 -13c-72.667 0 -139.667 15.333 -201 46s-111.5 76.5 -150.5 137.5s-58.5 131.833 -58.5 212.5s19.5 151.5 58.5 212.5s89.167 106.833 150.5 137.5s128.333 46 201 46s139.667 -15.333 201 -46s111.5 -76.5 150.5 -137.5
s58.5 -131.833 58.5 -212.5s-19.5 -151.5 -58.5 -212.5s-89.167 -106.833 -150.5 -137.5s-128.333 -46 -201 -46zM446 35c72.667 0 129.5 30.167 170.5 90.5s61.5 146.166 61.5 257.499s-20.5 197.166 -61.5 257.499s-97.833 90.5 -170.5 90.5s-129.5 -30.167 -170.5 -90.5
s-61.5 -146.166 -61.5 -257.499s20.5 -197.166 61.5 -257.499s97.833 -90.5 170.5 -90.5z" />
    <glyph glyph-name="Ocircumflex" unicode="&#xd4;" horiz-adv-x="892" 
d="M273 833l165 159h16l165 -159h-33l-140 64l-140 -64h-33zM446 -13c-72.667 0 -139.667 15.333 -201 46s-111.5 76.5 -150.5 137.5s-58.5 131.833 -58.5 212.5s19.5 151.5 58.5 212.5s89.167 106.833 150.5 137.5s128.333 46 201 46s139.667 -15.333 201 -46
s111.5 -76.5 150.5 -137.5s58.5 -131.833 58.5 -212.5s-19.5 -151.5 -58.5 -212.5s-89.167 -106.833 -150.5 -137.5s-128.333 -46 -201 -46zM446 35c72.667 0 129.5 30.167 170.5 90.5s61.5 146.166 61.5 257.499s-20.5 197.166 -61.5 257.499s-97.833 90.5 -170.5 90.5
s-129.5 -30.167 -170.5 -90.5s-61.5 -146.166 -61.5 -257.499s20.5 -197.166 61.5 -257.499s97.833 -90.5 170.5 -90.5z" />
    <glyph glyph-name="Otilde" unicode="&#xd5;" horiz-adv-x="892" 
d="M519 829c-23.333 0 -51.165 9.66602 -83.498 28.999s-56.833 29 -73.5 29c-34 0 -52.667 -18 -56 -54h-21c0 40.667 8 75.334 24 104.001s40 43 72 43c19.333 0 45.833 -9.66699 79.5 -29s57.5 -29 71.5 -29c34 0 52 16.667 54 50h21
c-0.666992 -50 -9.33398 -86.333 -26.001 -109s-37.334 -34 -62.001 -34zM446.001 -13.001c-72.667 0 -139.667 15.333 -201 46s-111.5 76.5 -150.5 137.5s-58.5 131.833 -58.5 212.5s19.5 151.5 58.5 212.5s89.167 106.833 150.5 137.5s128.333 46 201 46
s139.667 -15.333 201 -46s111.5 -76.5 150.5 -137.5s58.5 -131.833 58.5 -212.5s-19.5 -151.5 -58.5 -212.5s-89.167 -106.833 -150.5 -137.5s-128.333 -46 -201 -46zM446.001 34.999c72.667 0 129.5 30.167 170.5 90.5s61.5 146.166 61.5 257.499
s-20.5 197.166 -61.5 257.499s-97.833 90.5 -170.5 90.5s-129.5 -30.167 -170.5 -90.5s-61.5 -146.166 -61.5 -257.499s20.5 -197.166 61.5 -257.499s97.833 -90.5 170.5 -90.5z" />
    <glyph glyph-name="Odieresis" unicode="&#xd6;" horiz-adv-x="892" 
d="M333 837c-20 0 -36.667 6.83301 -50 20.5s-20 30.5 -20 50.5c0 20.667 6.66699 37.667 20 51s30 20 50 20c19.333 0 35.833 -6.83301 49.5 -20.5s20.5 -30.5 20.5 -50.5s-6.83301 -36.833 -20.5 -50.5s-30.167 -20.5 -49.5 -20.5zM559 837
c-20 0 -36.667 6.83301 -50 20.5s-20 30.5 -20 50.5c0 20.667 6.66699 37.667 20 51s30 20 50 20c19.333 0 35.833 -6.83301 49.5 -20.5s20.5 -30.5 20.5 -50.5s-6.83301 -36.833 -20.5 -50.5s-30.167 -20.5 -49.5 -20.5zM446 -13c-72.667 0 -139.667 15.333 -201 46
s-111.5 76.5 -150.5 137.5s-58.5 131.833 -58.5 212.5s19.5 151.5 58.5 212.5s89.167 106.833 150.5 137.5s128.333 46 201 46s139.667 -15.333 201 -46s111.5 -76.5 150.5 -137.5s58.5 -131.833 58.5 -212.5s-19.5 -151.5 -58.5 -212.5s-89.167 -106.833 -150.5 -137.5
s-128.333 -46 -201 -46zM446 35c72.667 0 129.5 30.167 170.5 90.5s61.5 146.166 61.5 257.499s-20.5 197.166 -61.5 257.499s-97.833 90.5 -170.5 90.5s-129.5 -30.167 -170.5 -90.5s-61.5 -146.166 -61.5 -257.499s20.5 -197.166 61.5 -257.499s97.833 -90.5 170.5 -90.5z
" />
    <glyph glyph-name="multiply" unicode="&#xd7;" horiz-adv-x="645" 
d="M138 24l-53 53l185 186l-185 185l53 53l185 -185l185 185l53 -53l-185 -185l185 -186l-53 -53l-185 185z" />
    <glyph glyph-name="Oslash" unicode="&#xd8;" horiz-adv-x="892" 
d="M81 -73l-45 40l117 132c-78 73.333 -117 168 -117 284c0 80.667 19.5 151.5 58.5 212.5s89.167 106.833 150.5 137.5s128.333 46 201 46c93.333 0 175.333 -24.333 246 -73l119 134l45 -40l-117 -132c78 -74.667 117 -169.667 117 -285
c0 -80.667 -19.5 -151.5 -58.5 -212.5s-89.167 -106.833 -150.5 -137.5s-128.333 -46 -201 -46c-92 0 -174 24.667 -246 74zM214 383c0 -72.667 9 -134.668 27 -186.001l383 432c-40.667 68 -100 102 -178 102c-72.667 0 -129.5 -30.167 -170.5 -90.5
s-61.5 -146.166 -61.5 -257.499zM446 34.999c72.667 0 129.5 30.168 170.5 90.501s61.5 146.166 61.5 257.499c0 74 -9 136 -27 186l-383 -431c40.667 -68.667 100 -103 178 -103z" />
    <glyph glyph-name="Ugrave" unicode="&#xd9;" horiz-adv-x="855" 
d="M494 843h-31l-251 126v3h183zM433 -13c-215.333 0 -323 102.667 -323 308v374c0 19.333 -2.83301 32 -8.5 38s-17.5 9.66699 -35.5 11l-45 4v36h338v-36l-45 -4c-18 -1.33301 -29.833 -5 -35.5 -11s-8.5 -18.667 -8.5 -38v-377c0 -84.667 17 -144.5 51 -179.5
s85.333 -52.5 154 -52.5c143.333 0 215 82 215 246v363c0 19.333 -2.83301 32 -8.5 38s-17.5 9.66699 -35.5 11l-45 4v36h234v-36l-45 -4c-18 -1.33301 -29.833 -5 -35.5 -11s-8.5 -18.667 -8.5 -38v-373c0 -100 -27 -176.5 -81 -229.5s-131.333 -79.5 -232 -79.5z" />
    <glyph glyph-name="Uacute" unicode="&#xda;" horiz-adv-x="855" 
d="M443 843l99 129h183v-3l-251 -126h-31zM433 -13c-215.333 0 -323 102.667 -323 308v374c0 19.333 -2.83301 32 -8.5 38s-17.5 9.66699 -35.5 11l-45 4v36h338v-36l-45 -4c-18 -1.33301 -29.833 -5 -35.5 -11s-8.5 -18.667 -8.5 -38v-377c0 -84.667 17 -144.5 51 -179.5
s85.333 -52.5 154 -52.5c143.333 0 215 82 215 246v363c0 19.333 -2.83301 32 -8.5 38s-17.5 9.66699 -35.5 11l-45 4v36h234v-36l-45 -4c-18 -1.33301 -29.833 -5 -35.5 -11s-8.5 -18.667 -8.5 -38v-373c0 -100 -27 -176.5 -81 -229.5s-131.333 -79.5 -232 -79.5z" />
    <glyph glyph-name="Ucircumflex" unicode="&#xdb;" horiz-adv-x="855" 
d="M288 833l165 159h16l165 -159h-33l-140 64l-140 -64h-33zM433 -13c-215.333 0 -323 102.667 -323 308v374c0 19.333 -2.83301 32 -8.5 38s-17.5 9.66699 -35.5 11l-45 4v36h338v-36l-45 -4c-18 -1.33301 -29.833 -5 -35.5 -11s-8.5 -18.667 -8.5 -38v-377
c0 -84.667 17 -144.5 51 -179.5s85.333 -52.5 154 -52.5c143.333 0 215 82 215 246v363c0 19.333 -2.83301 32 -8.5 38s-17.5 9.66699 -35.5 11l-45 4v36h234v-36l-45 -4c-18 -1.33301 -29.833 -5 -35.5 -11s-8.5 -18.667 -8.5 -38v-373c0 -100 -27 -176.5 -81 -229.5
s-131.333 -79.5 -232 -79.5z" />
    <glyph glyph-name="Udieresis" unicode="&#xdc;" horiz-adv-x="855" 
d="M348 837c-20 0 -36.667 6.83301 -50 20.5s-20 30.5 -20 50.5c0 20.667 6.66699 37.667 20 51s30 20 50 20s36.667 -6.83301 50 -20.5s20 -30.5 20 -50.5s-6.83301 -36.833 -20.5 -50.5s-30.167 -20.5 -49.5 -20.5zM574 837c-20 0 -36.667 6.83301 -50 20.5
s-20 30.5 -20 50.5c0 20.667 6.66699 37.667 20 51s30 20 50 20s36.667 -6.83301 50 -20.5s20 -30.5 20 -50.5s-6.83301 -36.833 -20.5 -50.5s-30.167 -20.5 -49.5 -20.5zM433 -13c-215.333 0 -323 102.667 -323 308v374c0 19.333 -2.83301 32 -8.5 38
s-17.5 9.66699 -35.5 11l-45 4v36h338v-36l-45 -4c-18 -1.33301 -29.833 -5 -35.5 -11s-8.5 -18.667 -8.5 -38v-377c0 -84.667 17 -144.5 51 -179.5s85.333 -52.5 154 -52.5c143.333 0 215 82 215 246v363c0 19.333 -2.83301 32 -8.5 38s-17.5 9.66699 -35.5 11l-45 4v36
h234v-36l-45 -4c-18 -1.33301 -29.833 -5 -35.5 -11s-8.5 -18.667 -8.5 -38v-373c0 -100 -27 -176.5 -81 -229.5s-131.333 -79.5 -232 -79.5z" />
    <glyph glyph-name="Yacute" unicode="&#xdd;" horiz-adv-x="760" 
d="M409 843l99 129h183v-3l-251 -126h-31zM186 0l-0.00195312 37.999l70 4c18 1.33301 29.833 4.66602 35.5 9.99902s8.5 17.666 8.5 36.999v253l-220 331c-11.333 17.333 -20.666 28.666 -27.999 33.999s-19.333 9 -36 11l-33 4v36h350v-36l-43 -4
c-40 -3.33301 -51.333 -18.333 -34 -45l180 -276l184 276c8.66699 16.667 10 27.834 4 33.501s-18.667 9.5 -38 11.5l-43 4v36h234v-36l-33 -4c-16.667 -2 -28.667 -5.66699 -36 -11s-16.666 -16.666 -27.999 -33.999l-220 -332v-252c0 -19.333 2.83301 -31.666 8.5 -36.999
s17.5 -8.66602 35.5 -9.99902l70 -4v-38h-388z" />
    <glyph glyph-name="Thorn" unicode="&#xde;" horiz-adv-x="735" 
d="M42 0v36l35 4c20 2 34 6.16699 42 12.5s12 18.5 12 36.5v580c0 18 -4 30.167 -12 36.5s-22 10.5 -42 12.5l-35 4v36h338v-36l-35 -4c-20 -2 -34 -6.16699 -42 -12.5s-12 -18.5 -12 -36.5v-85h81c50.667 0 95.167 -3.16699 133.5 -9.5s73.333 -17 105 -32
s55.834 -36 72.501 -63s25 -60.167 25 -99.5c0 -142.667 -112 -214 -336 -214h-81v-77c0 -18 4.16699 -30 12.5 -36s22.166 -9.66699 41.499 -11l70 -4v-38h-373zM291 540v-329h74c58.667 0 101 13.167 127 39.5s39 67.5 39 123.5s-13 97.667 -39 125s-68.333 41 -127 41
h-74z" />
    <glyph glyph-name="germandbls" unicode="&#xdf;" horiz-adv-x="693" 
d="M442 -13c-46.667 0 -84.6699 8.83203 -114.003 26.499s-44 40.167 -44 67.5c0 23.333 9.33301 42.166 28 56.499s42.667 19.833 72 16.5c9.33301 -42.667 20.833 -74.5 34.5 -95.5s34.5 -31.5 62.5 -31.5c22 0 40.667 6.33301 56 19s23 30.667 23 54
c0 15.333 -5.66699 31 -17 47s-23.666 29.833 -36.999 41.5s-38 31.834 -74 60.501l-24 19c-41.333 32 -69.833 59 -85.5 81s-23.5 44.333 -23.5 67c0 37.333 26 74 78 110l26 19c41.333 28.667 62 63.334 62 104.001c0 31.333 -9.33301 55.666 -28 72.999s-42 26 -70 26
c-33.333 0 -62.666 -11.667 -87.999 -35s-38 -64.333 -38 -123v-590h-215v32l27 2c18 1.33301 29.167 4 33.5 8s6.5 14.667 6.5 32v351h-67v32c44.667 7.33301 67 22.333 67 45v12c0 73.333 30.167 137.5 90.5 192.5s128.5 82.5 204.5 82.5c54 0 98.833 -9.66699 134.5 -29
s53.5 -48 53.5 -86s-23.333 -72.667 -70 -104l-62 -41c-15.333 -10 -25.333 -17.333 -30 -22s-7 -10 -7 -16c0 -10 8 -22.667 24 -38s43.333 -38.666 82 -69.999l35 -28c42.667 -34.667 73.167 -65.667 91.5 -93s27.5 -58.333 27.5 -93c0 -54 -21.667 -97.833 -65 -131.5
s-96.666 -50.5 -159.999 -50.5z" />
    <glyph glyph-name="agrave" unicode="&#xe0;" horiz-adv-x="551" 
d="M301 609h-28l-230 168v11h148zM194 -13c-46.667 0 -85.501 13.665 -116.501 40.998s-46.5 60 -46.5 98c0 10 1.16699 19.667 3.5 29s6.33301 18 12 26s10.834 15 15.501 21s12.167 12.167 22.5 18.5l24 15c5.66699 3.66699 15.167 8.33398 28.5 14.001
s22.5 9.33398 27.5 11.001l30 10.5c15 5.33301 23.833 8.66602 26.5 9.99902c48 17.333 79.167 35 93.5 53s21.5 41.333 21.5 70c0 24 -7.33301 43.833 -22 59.5s-34.334 23.5 -59.001 23.5c-37.333 0 -63.5 -13.167 -78.5 -39.5s-16.833 -61.833 -5.5 -106.5
c-24 -5.33301 -46.333 -8 -67 -8c-24.667 0 -43.5 5.66699 -56.5 17s-19.5 24 -19.5 38c0 34.667 42.333 68.334 127 101.001c60 22.667 114.667 34 164 34c47.333 0 85.333 -11.333 114 -34s42.334 -58.667 41.001 -108l-8 -315h78v-32l-194 -45l-20 89
c-24 -60.667 -69.333 -91 -136 -91zM261.999 47.998c17.333 0 32.332 8.99902 44.999 26.999s19.334 45.333 20.001 82l1 153c-12 -10 -30 -22.333 -54 -37c-52 -32 -78 -74 -78 -126c0 -25.333 6 -48.166 18 -68.499s28 -30.5 48 -30.5z" />
    <glyph glyph-name="aacute" unicode="&#xe1;" horiz-adv-x="551" 
d="M237 609l110 179h148v-11l-230 -168h-28zM194 -13c-46.667 0 -85.501 13.665 -116.501 40.998s-46.5 60 -46.5 98c0 10 1.16699 19.667 3.5 29s6.33301 18 12 26s10.834 15 15.501 21s12.167 12.167 22.5 18.5l24 15c5.66699 3.66699 15.167 8.33398 28.5 14.001
s22.5 9.33398 27.5 11.001l30 10.5c15 5.33301 23.833 8.66602 26.5 9.99902c48 17.333 79.167 35 93.5 53s21.5 41.333 21.5 70c0 24 -7.33301 43.833 -22 59.5s-34.334 23.5 -59.001 23.5c-37.333 0 -63.5 -13.167 -78.5 -39.5s-16.833 -61.833 -5.5 -106.5
c-24 -5.33301 -46.333 -8 -67 -8c-24.667 0 -43.5 5.66699 -56.5 17s-19.5 24 -19.5 38c0 34.667 42.333 68.334 127 101.001c60 22.667 114.667 34 164 34c47.333 0 85.333 -11.333 114 -34s42.334 -58.667 41.001 -108l-8 -315h78v-32l-194 -45l-20 89
c-24 -60.667 -69.333 -91 -136 -91zM261.999 47.998c17.333 0 32.332 8.99902 44.999 26.999s19.334 45.333 20.001 82l1 153c-12 -10 -30 -22.333 -54 -37c-52 -32 -78 -74 -78 -126c0 -25.333 6 -48.166 18 -68.499s28 -30.5 48 -30.5z" />
    <glyph glyph-name="acircumflex" unicode="&#xe2;" horiz-adv-x="551" 
d="M99 609l164 201h12l164 -201h-29l-141 86l-141 -86h-29zM194 -13c-46.667 0 -85.501 13.665 -116.501 40.998s-46.5 60 -46.5 98c0 10 1.16699 19.667 3.5 29s6.33301 18 12 26s10.834 15 15.501 21s12.167 12.167 22.5 18.5l24 15
c5.66699 3.66699 15.167 8.33398 28.5 14.001s22.5 9.33398 27.5 11.001l30 10.5c15 5.33301 23.833 8.66602 26.5 9.99902c48 17.333 79.167 35 93.5 53s21.5 41.333 21.5 70c0 24 -7.33301 43.833 -22 59.5s-34.334 23.5 -59.001 23.5
c-37.333 0 -63.5 -13.167 -78.5 -39.5s-16.833 -61.833 -5.5 -106.5c-24 -5.33301 -46.333 -8 -67 -8c-24.667 0 -43.5 5.66699 -56.5 17s-19.5 24 -19.5 38c0 34.667 42.333 68.334 127 101.001c60 22.667 114.667 34 164 34c47.333 0 85.333 -11.333 114 -34
s42.334 -58.667 41.001 -108l-8 -315h78v-32l-194 -45l-20 89c-24 -60.667 -69.333 -91 -136 -91zM261.999 47.998c17.333 0 32.332 8.99902 44.999 26.999s19.334 45.333 20.001 82l1 153c-12 -10 -30 -22.333 -54 -37c-52 -32 -78 -74 -78 -126
c0 -25.333 6 -48.166 18 -68.499s28 -30.5 48 -30.5z" />
    <glyph glyph-name="atilde" unicode="&#xe3;" horiz-adv-x="551" 
d="M342 645c-23.333 0 -51.165 9.66602 -83.498 28.999s-56.833 29 -73.5 29c-34 0 -52.667 -18 -56 -54h-21c0 40.667 8 75.334 24 104.001s40 43 72 43c19.333 0 45.833 -9.66699 79.5 -29s57.5 -29 71.5 -29c34 0 52 16.667 54 50h21
c-0.666992 -50 -9.33398 -86.333 -26.001 -109s-37.334 -34 -62.001 -34zM194.001 -13.001c-46.667 0 -85.501 13.665 -116.501 40.998s-46.5 60 -46.5 98c0 10 1.16699 19.667 3.5 29s6.33301 18 12 26s10.834 15 15.501 21s12.167 12.167 22.5 18.5l24 15
c5.66699 3.66699 15.167 8.33398 28.5 14.001s22.5 9.33398 27.5 11.001l30 10.5c15 5.33301 23.833 8.66602 26.5 9.99902c48 17.333 79.167 35 93.5 53s21.5 41.333 21.5 70c0 24 -7.33301 43.833 -22 59.5s-34.334 23.5 -59.001 23.5
c-37.333 0 -63.5 -13.167 -78.5 -39.5s-16.833 -61.833 -5.5 -106.5c-24 -5.33301 -46.333 -8 -67 -8c-24.667 0 -43.5 5.66699 -56.5 17s-19.5 24 -19.5 38c0 34.667 42.333 68.334 127 101.001c60 22.667 114.667 34 164 34c47.333 0 85.333 -11.333 114 -34
s42.334 -58.667 41.001 -108l-8 -315h78v-32l-194 -45l-20 89c-24 -60.667 -69.333 -91 -136 -91zM262 47.9971c17.333 0 32.332 8.99902 44.999 26.999s19.334 45.333 20.001 82l1 153c-12 -10 -30 -22.333 -54 -37c-52 -32 -78 -74 -78 -126
c0 -25.333 6 -48.166 18 -68.499s28 -30.5 48 -30.5z" />
    <glyph glyph-name="adieresis" unicode="&#xe4;" horiz-adv-x="551" 
d="M382 636c-19.333 0 -35.5 6.66699 -48.5 20s-19.5 29.666 -19.5 48.999c0 20 6.5 36.5 19.5 49.5s29.167 19.5 48.5 19.5s35.5 -6.5 48.5 -19.5s19.5 -29.5 19.5 -49.5c0 -19.333 -6.5 -35.666 -19.5 -48.999s-29.167 -20 -48.5 -20zM156 636
c-19.333 0 -35.5 6.66699 -48.5 20s-19.5 29.666 -19.5 48.999c0 20 6.5 36.5 19.5 49.5s29.167 19.5 48.5 19.5s35.5 -6.5 48.5 -19.5s19.5 -29.5 19.5 -49.5c0 -19.333 -6.5 -35.666 -19.5 -48.999s-29.167 -20 -48.5 -20zM194 -13
c-46.667 0 -85.501 13.665 -116.501 40.998s-46.5 60 -46.5 98c0 10 1.16699 19.667 3.5 29s6.33301 18 12 26s10.834 15 15.501 21s12.167 12.167 22.5 18.5l24 15c5.66699 3.66699 15.167 8.33398 28.5 14.001s22.5 9.33398 27.5 11.001l30 10.5
c15 5.33301 23.833 8.66602 26.5 9.99902c48 17.333 79.167 35 93.5 53s21.5 41.333 21.5 70c0 24 -7.33301 43.833 -22 59.5s-34.334 23.5 -59.001 23.5c-37.333 0 -63.5 -13.167 -78.5 -39.5s-16.833 -61.833 -5.5 -106.5c-24 -5.33301 -46.333 -8 -67 -8
c-24.667 0 -43.5 5.66699 -56.5 17s-19.5 24 -19.5 38c0 34.667 42.333 68.334 127 101.001c60 22.667 114.667 34 164 34c47.333 0 85.333 -11.333 114 -34s42.334 -58.667 41.001 -108l-8 -315h78v-32l-194 -45l-20 89c-24 -60.667 -69.333 -91 -136 -91zM261.999 47.998
c17.333 0 32.332 8.99902 44.999 26.999s19.334 45.333 20.001 82l1 153c-12 -10 -30 -22.333 -54 -37c-52 -32 -78 -74 -78 -126c0 -25.333 6 -48.166 18 -68.499s28 -30.5 48 -30.5z" />
    <glyph glyph-name="aring" unicode="&#xe5;" horiz-adv-x="551" 
d="M269 585c-34 0 -63.167 11.667 -87.5 35s-36.5 51.666 -36.5 84.999s12.167 61.833 36.5 85.5s53.5 35.5 87.5 35.5c35.333 0 65.333 -11.833 90 -35.5s37 -52.167 37 -85.5s-12.333 -61.666 -37 -84.999s-54.667 -35 -90 -35zM269 638c20.667 0 36.834 6 48.501 18
s17.5 28.333 17.5 49s-5.83301 36.834 -17.5 48.501s-27.834 17.5 -48.501 17.5c-20 0 -35.833 -5.83301 -47.5 -17.5s-17.5 -27.834 -17.5 -48.501s5.83301 -37 17.5 -49s27.5 -18 47.5 -18zM194 -13c-46.667 0 -85.501 13.665 -116.501 40.998s-46.5 60 -46.5 98
c0 10 1.16699 19.667 3.5 29s6.33301 18 12 26s10.834 15 15.501 21s12.167 12.167 22.5 18.5l24 15c5.66699 3.66699 15.167 8.33398 28.5 14.001s22.5 9.33398 27.5 11.001l30 10.5c15 5.33301 23.833 8.66602 26.5 9.99902c48 17.333 79.167 35 93.5 53
s21.5 41.333 21.5 70c0 24 -7.33301 43.833 -22 59.5s-34.334 23.5 -59.001 23.5c-37.333 0 -63.5 -13.167 -78.5 -39.5s-16.833 -61.833 -5.5 -106.5c-24 -5.33301 -46.333 -8 -67 -8c-24.667 0 -43.5 5.66699 -56.5 17s-19.5 24 -19.5 38
c0 34.667 42.333 68.334 127 101.001c60 22.667 114.667 34 164 34c47.333 0 85.333 -11.333 114 -34s42.334 -58.667 41.001 -108l-8 -315h78v-32l-194 -45l-20 89c-24 -60.667 -69.333 -91 -136 -91zM261.999 47.998c17.333 0 32.332 8.99902 44.999 26.999
s19.334 45.333 20.001 82l1 153c-12 -10 -30 -22.333 -54 -37c-52 -32 -78 -74 -78 -126c0 -25.333 6 -48.166 18 -68.499s28 -30.5 48 -30.5z" />
    <glyph glyph-name="ae" unicode="&#xe6;" horiz-adv-x="867" 
d="M192 -13c-47.333 0 -85.667 13.499 -115 40.499s-44 59.5 -44 97.5c0 10 1 19.5 3 28.5s5.83301 17.5 11.5 25.5l14.5 21c4 6 11.167 12.333 21.5 19l23 15c5 3.33301 14 8 27 14s21.667 9.83301 26 11.5l29 11c15 5.66699 23.833 9.16699 26.5 10.5
c46 18 76.833 36 92.5 54s23.5 40.667 23.5 68c0 23.333 -6.5 42.333 -19.5 57s-31.167 22 -54.5 22c-34.667 0 -59.167 -12.667 -73.5 -38s-15.166 -60.333 -2.49902 -105c-24 -5.33301 -46.333 -8 -67 -8c-28 0 -48.5 5.5 -61.5 16.5s-19.5 24.5 -19.5 40.5
c0 16.667 11.5 33.667 34.5 51s54.167 33 93.5 47c65.333 23.333 123.666 35 174.999 35c55.333 0 92.333 -13 111 -39c42.667 26 87.334 39 134.001 39c64 0 117.333 -17.667 160 -53s70.667 -86.666 84 -153.999h-355c1.33301 -66.667 18 -121.167 50 -163.5
s75.667 -63.5 131 -63.5c36.667 0 70.667 10 102 30s51.666 49.667 60.999 89h29c-11.333 -72 -39.333 -126.5 -84 -163.5s-103 -55.5 -175 -55.5c-99.333 0 -173 36.667 -221 110c-26.667 -73.333 -83.667 -110 -171 -110zM574.999 484.999
c-28.667 0 -51.999 -11.168 -69.999 -33.501s-29 -54.166 -33 -95.499h189c-2.66699 86 -31.334 129 -86.001 129zM198 146.998c0 -25.333 5.16699 -48.168 15.5 -68.501s25.5 -30.5 45.5 -30.5c46 0 73 31 81 93c-13.333 34 -20 70.333 -20 109v10l1 50
c-10.667 -9.33301 -28 -21.666 -52 -36.999c-47.333 -30.667 -71 -72.667 -71 -126z" />
    <glyph glyph-name="ccedilla" unicode="&#xe7;" horiz-adv-x="556" 
d="M287 -13c-78 0 -140.168 24.667 -186.501 74s-69.5 111 -69.5 185c0 82 27.5 148.333 82.5 199s120.5 76 196.5 76c54.667 0 101.5 -10.833 140.5 -32.5s58.5 -51.5 58.5 -89.5c0 -48 -30.667 -72 -92 -72c-17.333 0 -34.333 1.33301 -51 4
c8.66699 104 -17.666 156 -78.999 156c-28.667 0 -53.834 -14.667 -75.501 -44s-32.5 -73 -32.5 -131c0 -64.667 16 -119 48 -163s75 -66 129 -66c35.333 0 67.833 10.5 97.5 31.5s49.167 51.5 58.5 91.5h29c-20 -122 -83.333 -193 -190 -213l-63 -68
c29.333 -15.333 50.166 -30 62.499 -44s18.5 -31.667 18.5 -53c0 -24.667 -10.667 -46.334 -32 -65.001s-49.666 -28 -84.999 -28c-23.333 0 -43.833 4.5 -61.5 13.5s-26.5 21.833 -26.5 38.5c0 12 4.83301 21.5 14.5 28.5s22.834 9.16699 39.501 6.5
c0 -16.667 5.5 -30 16.5 -40s24.5 -15 40.5 -15c12 0 21.833 2.83301 29.5 8.5s11.5 12.834 11.5 21.501c0 19.333 -38.667 46.333 -116 81l102 109h-15z" />
    <glyph glyph-name="egrave" unicode="&#xe8;" horiz-adv-x="578" 
d="M319 609h-28l-230 168v11h148zM295 -13c-80.667 0 -144.833 24.833 -192.5 74.5s-71.5 112.5 -71.5 188.5c0 79.333 26.333 144.333 79 195s113.334 76 182.001 76c64 0 117.333 -17.333 160 -52s70.667 -85.667 84 -153h-355c0.666992 -67.333 17.667 -123 51 -167
s78 -66 134 -66c36 0 69.167 10.5 99.5 31.5s50.166 51.5 59.499 91.5h29c-11.333 -72 -39.333 -126.5 -84 -163.5s-103 -55.5 -175 -55.5zM286.001 487c-28 0 -50.999 -11.332 -68.999 -33.999s-29.333 -54.334 -34 -95.001h189c-2.66699 86 -31.334 129 -86.001 129z" />
    <glyph glyph-name="eacute" unicode="&#xe9;" horiz-adv-x="578" 
d="M255 609l110 179h148v-11l-230 -168h-28zM295 -13c-80.667 0 -144.833 24.833 -192.5 74.5s-71.5 112.5 -71.5 188.5c0 79.333 26.333 144.333 79 195s113.334 76 182.001 76c64 0 117.333 -17.333 160 -52s70.667 -85.667 84 -153h-355
c0.666992 -67.333 17.667 -123 51 -167s78 -66 134 -66c36 0 69.167 10.5 99.5 31.5s50.166 51.5 59.499 91.5h29c-11.333 -72 -39.333 -126.5 -84 -163.5s-103 -55.5 -175 -55.5zM286.001 487c-28 0 -50.999 -11.332 -68.999 -33.999s-29.333 -54.334 -34 -95.001h189
c-2.66699 86 -31.334 129 -86.001 129z" />
    <glyph glyph-name="ecircumflex" unicode="&#xea;" horiz-adv-x="578" 
d="M117 609l164 201h12l164 -201h-29l-141 86l-141 -86h-29zM295 -13c-80.667 0 -144.833 24.833 -192.5 74.5s-71.5 112.5 -71.5 188.5c0 79.333 26.333 144.333 79 195s113.334 76 182.001 76c64 0 117.333 -17.333 160 -52s70.667 -85.667 84 -153h-355
c0.666992 -67.333 17.667 -123 51 -167s78 -66 134 -66c36 0 69.167 10.5 99.5 31.5s50.166 51.5 59.499 91.5h29c-11.333 -72 -39.333 -126.5 -84 -163.5s-103 -55.5 -175 -55.5zM286.001 487c-28 0 -50.999 -11.332 -68.999 -33.999s-29.333 -54.334 -34 -95.001h189
c-2.66699 86 -31.334 129 -86.001 129z" />
    <glyph glyph-name="edieresis" unicode="&#xeb;" horiz-adv-x="578" 
d="M400 636c-19.333 0 -35.5 6.66699 -48.5 20s-19.5 29.666 -19.5 48.999c0 20 6.5 36.5 19.5 49.5s29.167 19.5 48.5 19.5s35.5 -6.5 48.5 -19.5s19.5 -29.5 19.5 -49.5c0 -19.333 -6.5 -35.666 -19.5 -48.999s-29.167 -20 -48.5 -20zM174 636
c-19.333 0 -35.5 6.66699 -48.5 20s-19.5 29.666 -19.5 48.999c0 20 6.5 36.5 19.5 49.5s29.167 19.5 48.5 19.5s35.5 -6.5 48.5 -19.5s19.5 -29.5 19.5 -49.5c0 -19.333 -6.5 -35.666 -19.5 -48.999s-29.167 -20 -48.5 -20zM295 -13c-80.667 0 -144.833 24.833 -192.5 74.5
s-71.5 112.5 -71.5 188.5c0 79.333 26.333 144.333 79 195s113.334 76 182.001 76c64 0 117.333 -17.333 160 -52s70.667 -85.667 84 -153h-355c0.666992 -67.333 17.667 -123 51 -167s78 -66 134 -66c36 0 69.167 10.5 99.5 31.5s50.166 51.5 59.499 91.5h29
c-11.333 -72 -39.333 -126.5 -84 -163.5s-103 -55.5 -175 -55.5zM286.001 487c-28 0 -50.999 -11.332 -68.999 -33.999s-29.333 -54.334 -34 -95.001h189c-2.66699 86 -31.334 129 -86.001 129z" />
    <glyph glyph-name="igrave" unicode="&#xec;" horiz-adv-x="337" 
d="M200 609h-28l-230 168v11h148zM34 0v32l27 2c18 1.33301 29.167 4 33.5 8s6.5 14.667 6.5 32v283l-76 72v6l224 94v-455c0 -17.333 2.16699 -28 6.5 -32s15.5 -6.66699 33.5 -8l27 -2v-32h-282z" />
    <glyph glyph-name="iacute" unicode="&#xed;" horiz-adv-x="337" 
d="M136 609l110 179h148v-11l-230 -168h-28zM34 0v32l27 2c18 1.33301 29.167 4 33.5 8s6.5 14.667 6.5 32v283l-76 72v6l224 94v-455c0 -17.333 2.16699 -28 6.5 -32s15.5 -6.66699 33.5 -8l27 -2v-32h-282z" />
    <glyph glyph-name="icircumflex" unicode="&#xee;" horiz-adv-x="337" 
d="M-2 609l164 201h12l164 -201h-29l-141 86l-141 -86h-29zM34 0v32l27 2c18 1.33301 29.167 4 33.5 8s6.5 14.667 6.5 32v283l-76 72v6l224 94v-455c0 -17.333 2.16699 -28 6.5 -32s15.5 -6.66699 33.5 -8l27 -2v-32h-282z" />
    <glyph glyph-name="idieresis" unicode="&#xef;" horiz-adv-x="337" 
d="M68 636c-19.333 0 -35.5 6.66699 -48.5 20s-19.5 29.666 -19.5 48.999c0 20 6.5 36.5 19.5 49.5s29.167 19.5 48.5 19.5s35.5 -6.5 48.5 -19.5s19.5 -29.5 19.5 -49.5c0 -19.333 -6.5 -35.666 -19.5 -48.999s-29.167 -20 -48.5 -20zM268 636
c-19.333 0 -35.5 6.66699 -48.5 20s-19.5 29.666 -19.5 48.999c0 20 6.5 36.5 19.5 49.5s29.167 19.5 48.5 19.5s35.5 -6.5 48.5 -19.5s19.5 -29.5 19.5 -49.5c0 -19.333 -6.5 -35.666 -19.5 -48.999s-29.167 -20 -48.5 -20zM34 0v32l27 2c18 1.33301 29.167 4 33.5 8
s6.5 14.667 6.5 32v283l-76 72v6l224 94v-455c0 -17.333 2.16699 -28 6.5 -32s15.5 -6.66699 33.5 -8l27 -2v-32h-282z" />
    <glyph glyph-name="eth" unicode="&#xf0;" horiz-adv-x="620" 
d="M293 -13c-76.667 0 -139.498 24.168 -188.498 72.501s-73.5 113.5 -73.5 195.5c0 78 24 141.833 72 191.5s106 74.5 174 74.5c40.667 0 77.667 -13.667 111 -41c-24 67.333 -61 126 -111 176l-125 -67l-21 42l109 59c-42.667 34 -88 60 -136 78l9 29
c71.333 -15.333 136.666 -39 195.999 -71l131 71l20 -42l-104 -56c72.667 -46.667 128.667 -102.834 168 -168.501s59 -137.167 59 -214.5c0 -53.333 -8.33301 -101.333 -25 -144s-38.834 -77.167 -66.501 -103.5s-58.5 -46.5 -92.5 -60.5s-69.333 -21 -106 -21z
M195.002 246.001c0 -143.333 36.666 -214.999 109.999 -214.999c76.667 0 115 87.333 115 262c0 53.333 -7.33301 105.666 -22 156.999c-19.333 10.667 -41.666 16 -66.999 16c-38 0 -70.167 -18.167 -96.5 -54.5s-39.5 -91.5 -39.5 -165.5z" />
    <glyph glyph-name="ntilde" unicode="&#xf1;" horiz-adv-x="621" 
d="M389 645c-23.333 0 -51.165 9.66602 -83.498 28.999s-56.833 29 -73.5 29c-34 0 -52.667 -18 -56 -54h-21c0 40.667 8 75.334 24 104.001s40 43 72 43c19.333 0 45.833 -9.66699 79.5 -29s57.5 -29 71.5 -29c34 0 52 16.667 54 50h21
c-0.666992 -50 -9.33398 -86.333 -26.001 -109s-37.334 -34 -62.001 -34zM30.001 -0.000976562v32l27 2c18 1.33301 29.167 4 33.5 8s6.5 14.667 6.5 32v283l-76 72v6l224 94v-128c24 80 74.667 120 152 120c94.667 0 142 -62.333 142 -187v-260
c0 -17.333 2.16699 -28 6.5 -32s15.5 -6.66699 33.5 -8l27 -2v-32h-271v32l19 2c18 2 28.667 4.83301 32 8.5s5 14.167 5 31.5v232c0 48.667 -5.83301 82 -17.5 100s-28.5 27 -50.5 27c-52 0 -78 -42.667 -78 -128v-231c0 -17.333 1.66699 -27.833 5 -31.5s14 -6.5 32 -8.5
l19 -2v-32h-271z" />
    <glyph glyph-name="ograve" unicode="&#xf2;" horiz-adv-x="616" 
d="M341 609h-28l-230 168v11h148zM306 -13c-81.333 0 -147.666 25.333 -198.999 76s-77 112.667 -77 186c0 79.333 26.833 144.5 80.5 195.5s120.167 76.5 199.5 76.5c81.333 0 147.666 -25.333 198.999 -76s77 -112.667 77 -186c0 -79.333 -26.833 -144.5 -80.5 -195.5
s-120.167 -76.5 -199.5 -76.5zM308 28c74 0 111 75.667 111 227s-37 227 -111 227c-75.333 0 -113 -75.667 -113 -227s37.667 -227 113 -227z" />
    <glyph glyph-name="oacute" unicode="&#xf3;" horiz-adv-x="616" 
d="M277 609l110 179h148v-11l-230 -168h-28zM306 -13c-81.333 0 -147.666 25.333 -198.999 76s-77 112.667 -77 186c0 79.333 26.833 144.5 80.5 195.5s120.167 76.5 199.5 76.5c81.333 0 147.666 -25.333 198.999 -76s77 -112.667 77 -186
c0 -79.333 -26.833 -144.5 -80.5 -195.5s-120.167 -76.5 -199.5 -76.5zM308 28c74 0 111 75.667 111 227s-37 227 -111 227c-75.333 0 -113 -75.667 -113 -227s37.667 -227 113 -227z" />
    <glyph glyph-name="ocircumflex" unicode="&#xf4;" horiz-adv-x="616" 
d="M139 609l164 201h12l164 -201h-29l-141 86l-141 -86h-29zM306 -13c-81.333 0 -147.666 25.333 -198.999 76s-77 112.667 -77 186c0 79.333 26.833 144.5 80.5 195.5s120.167 76.5 199.5 76.5c81.333 0 147.666 -25.333 198.999 -76s77 -112.667 77 -186
c0 -79.333 -26.833 -144.5 -80.5 -195.5s-120.167 -76.5 -199.5 -76.5zM308 28c74 0 111 75.667 111 227s-37 227 -111 227c-75.333 0 -113 -75.667 -113 -227s37.667 -227 113 -227z" />
    <glyph glyph-name="otilde" unicode="&#xf5;" horiz-adv-x="616" 
d="M382 645c-23.333 0 -51.165 9.66602 -83.498 28.999s-56.833 29 -73.5 29c-34 0 -52.667 -18 -56 -54h-21c0 40.667 8 75.334 24 104.001s40 43 72 43c19.333 0 45.833 -9.66699 79.5 -29s57.5 -29 71.5 -29c34 0 52 16.667 54 50h21
c-0.666992 -50 -9.33398 -86.333 -26.001 -109s-37.334 -34 -62.001 -34zM306.001 -13.001c-81.333 0 -147.666 25.333 -198.999 76s-77 112.667 -77 186c0 79.333 26.833 144.5 80.5 195.5s120.167 76.5 199.5 76.5c81.333 0 147.666 -25.333 198.999 -76
s77 -112.667 77 -186c0 -79.333 -26.833 -144.5 -80.5 -195.5s-120.167 -76.5 -199.5 -76.5zM308.001 27.999c74 0 111 75.667 111 227s-37 227 -111 227c-75.333 0 -113 -75.667 -113 -227s37.667 -227 113 -227z" />
    <glyph glyph-name="odieresis" unicode="&#xf6;" horiz-adv-x="616" 
d="M422 636c-19.333 0 -35.5 6.66699 -48.5 20s-19.5 29.666 -19.5 48.999c0 20 6.5 36.5 19.5 49.5s29.167 19.5 48.5 19.5s35.5 -6.5 48.5 -19.5s19.5 -29.5 19.5 -49.5c0 -19.333 -6.5 -35.666 -19.5 -48.999s-29.167 -20 -48.5 -20zM196 636
c-19.333 0 -35.5 6.66699 -48.5 20s-19.5 29.666 -19.5 48.999c0 20 6.5 36.5 19.5 49.5s29.167 19.5 48.5 19.5s35.5 -6.5 48.5 -19.5s19.5 -29.5 19.5 -49.5c0 -19.333 -6.5 -35.666 -19.5 -48.999s-29.167 -20 -48.5 -20zM306 -13c-81.333 0 -147.666 25.333 -198.999 76
s-77 112.667 -77 186c0 79.333 26.833 144.5 80.5 195.5s120.167 76.5 199.5 76.5c81.333 0 147.666 -25.333 198.999 -76s77 -112.667 77 -186c0 -79.333 -26.833 -144.5 -80.5 -195.5s-120.167 -76.5 -199.5 -76.5zM308 28c74 0 111 75.667 111 227s-37 227 -111 227
c-75.333 0 -113 -75.667 -113 -227s37.667 -227 113 -227z" />
    <glyph glyph-name="divide" unicode="&#xf7;" horiz-adv-x="645" 
d="M322 363c-24.667 0 -45.6689 8.83301 -63.002 26.5s-26 38.834 -26 63.501s8.66699 45.667 26 63s38.333 26 63 26s45.834 -8.66699 63.501 -26s26.5 -38.333 26.5 -63s-8.66699 -45.834 -26 -63.501s-38.666 -26.5 -63.999 -26.5zM58.998 225v75h527v-75h-527z
M321.998 -17c-24.667 0 -45.6689 8.83301 -63.002 26.5s-26 38.834 -26 63.501s8.66699 45.667 26 63s38.333 26 63 26s45.834 -8.66699 63.501 -26s26.5 -38.333 26.5 -63s-8.66699 -45.834 -26 -63.501s-38.666 -26.5 -63.999 -26.5z" />
    <glyph glyph-name="oslash" unicode="&#xf8;" horiz-adv-x="636" 
d="M316 -13c-58 0 -110.001 14 -156.001 42l-71 -85l-38 33l69 83c-53.333 50 -80 113 -80 189c0 79.333 26.833 144.5 80.5 195.5s120.167 76.5 199.5 76.5c56.667 0 107.334 -13.333 152.001 -40l76 91l38 -33l-74 -88c56 -50 84 -114 84 -192
c0 -79.333 -26.833 -144.5 -80.5 -195.5s-120.167 -76.5 -199.5 -76.5zM204.999 255c0 -30 1.66699 -59 5 -87l199 238c-18.667 50.667 -49 76 -91 76c-75.333 0 -113 -75.667 -113 -227zM317.999 28c74 0 111 75.667 111 227c0 34 -2 63.667 -6 89l-199 -238
c18 -52 49.333 -78 94 -78z" />
    <glyph glyph-name="ugrave" unicode="&#xf9;" horiz-adv-x="610" 
d="M332 609h-28l-230 168v11h148zM224 -13c-94.667 0 -142 62.333 -142 187v271l-65 25v32h213v-300c0 -48.667 5.83301 -82 17.5 -100s28.5 -27 50.5 -27c52 0 78 42.667 78 128v242l-65 25v32h213v-436h73v-32l-221 -45v118c-24 -80 -74.667 -120 -152 -120z" />
    <glyph glyph-name="uacute" unicode="&#xfa;" horiz-adv-x="610" 
d="M268 609l110 179h148v-11l-230 -168h-28zM224 -13c-94.667 0 -142 62.333 -142 187v271l-65 25v32h213v-300c0 -48.667 5.83301 -82 17.5 -100s28.5 -27 50.5 -27c52 0 78 42.667 78 128v242l-65 25v32h213v-436h73v-32l-221 -45v118c-24 -80 -74.667 -120 -152 -120z
" />
    <glyph glyph-name="ucircumflex" unicode="&#xfb;" horiz-adv-x="610" 
d="M130 609l164 201h12l164 -201h-29l-141 86l-141 -86h-29zM224 -13c-94.667 0 -142 62.333 -142 187v271l-65 25v32h213v-300c0 -48.667 5.83301 -82 17.5 -100s28.5 -27 50.5 -27c52 0 78 42.667 78 128v242l-65 25v32h213v-436h73v-32l-221 -45v118
c-24 -80 -74.667 -120 -152 -120z" />
    <glyph glyph-name="udieresis" unicode="&#xfc;" horiz-adv-x="610" 
d="M413 636c-19.333 0 -35.5 6.66699 -48.5 20s-19.5 29.666 -19.5 48.999c0 20 6.5 36.5 19.5 49.5s29.167 19.5 48.5 19.5s35.5 -6.5 48.5 -19.5s19.5 -29.5 19.5 -49.5c0 -19.333 -6.5 -35.666 -19.5 -48.999s-29.167 -20 -48.5 -20zM187 636
c-19.333 0 -35.5 6.66699 -48.5 20s-19.5 29.666 -19.5 48.999c0 20 6.5 36.5 19.5 49.5s29.167 19.5 48.5 19.5s35.5 -6.5 48.5 -19.5s19.5 -29.5 19.5 -49.5c0 -19.333 -6.5 -35.666 -19.5 -48.999s-29.167 -20 -48.5 -20zM224 -13c-94.667 0 -142 62.333 -142 187v271
l-65 25v32h213v-300c0 -48.667 5.83301 -82 17.5 -100s28.5 -27 50.5 -27c52 0 78 42.667 78 128v242l-65 25v32h213v-436h73v-32l-221 -45v118c-24 -80 -74.667 -120 -152 -120z" />
    <glyph glyph-name="yacute" unicode="&#xfd;" horiz-adv-x="555" 
d="M284 609l110 179h148v-11l-230 -168h-28zM210 -88l38 83l-179 418c-8.66699 20 -16.5 33.667 -23.5 41s-18.833 12 -35.5 14l-16 2v32h286v-32l-21 -2c-34 -2.66699 -44.667 -19 -32 -49l102 -247l99 219c20.667 46 11.667 71.333 -27 76l-28 3v32h198v-32l-20 -2
c-17.333 -2 -30.5 -7.16699 -39.5 -15.5s-18.5 -23.166 -28.5 -44.499l-248 -542c-20.667 -44 -40 -75.167 -58 -93.5s-40.667 -27.5 -68 -27.5c-21.333 0 -38.5 7.16699 -51.5 21.5s-19.5 32.166 -19.5 53.499c0 30 15.833 54.167 47.5 72.5s73.167 24.833 124.5 19.5z" />
    <glyph glyph-name="thorn" unicode="&#xfe;" horiz-adv-x="591" 
d="M350 521c58.667 0 108 -23.833 148 -71.5s60 -113.167 60 -196.5c0 -78 -22.167 -141.833 -66.5 -191.5s-98.833 -74.5 -163.5 -74.5c-45.333 0 -83 16 -113 48v-209c0 -12 1.66699 -20.5 5 -25.5s7.5 -8.16699 12.5 -9.5s14.5 -2.33301 28.5 -3l51 -3v-33h-312v32l27 2
c18 1.33301 29.167 4 33.5 8s6.5 14.667 6.5 32v829l-76 64v6l224 77v-343c36.667 41.333 81.667 62 135 62zM273 452c-22.667 0 -41.999 -6.66699 -57.999 -20v-369c14.667 -12.667 33 -19 55 -19c36 0 65.5 18.667 88.5 56s34.5 88 34.5 152
c0 58.667 -11.333 106.667 -34 144s-51.334 56 -86.001 56z" />
    <glyph glyph-name="ydieresis" unicode="&#xff;" horiz-adv-x="555" 
d="M429 636c-19.333 0 -35.5 6.66699 -48.5 20s-19.5 29.666 -19.5 48.999c0 20 6.5 36.5 19.5 49.5s29.167 19.5 48.5 19.5s35.5 -6.5 48.5 -19.5s19.5 -29.5 19.5 -49.5c0 -19.333 -6.5 -35.666 -19.5 -48.999s-29.167 -20 -48.5 -20zM203 636
c-19.333 0 -35.5 6.66699 -48.5 20s-19.5 29.666 -19.5 48.999c0 20 6.5 36.5 19.5 49.5s29.167 19.5 48.5 19.5s35.5 -6.5 48.5 -19.5s19.5 -29.5 19.5 -49.5c0 -19.333 -6.5 -35.666 -19.5 -48.999s-29.167 -20 -48.5 -20zM210 -88l38 83l-179 418
c-8.66699 20 -16.5 33.667 -23.5 41s-18.833 12 -35.5 14l-16 2v32h286v-32l-21 -2c-34 -2.66699 -44.667 -19 -32 -49l102 -247l99 219c20.667 46 11.667 71.333 -27 76l-28 3v32h198v-32l-20 -2c-17.333 -2 -30.5 -7.16699 -39.5 -15.5s-18.5 -23.166 -28.5 -44.499
l-248 -542c-20.667 -44 -40 -75.167 -58 -93.5s-40.667 -27.5 -68 -27.5c-21.333 0 -38.5 7.16699 -51.5 21.5s-19.5 32.166 -19.5 53.499c0 30 15.833 54.167 47.5 72.5s73.167 24.833 124.5 19.5z" />
    <glyph glyph-name="Amacron" unicode="&#x100;" horiz-adv-x="758" 
d="M222 872v68h314v-68h-314zM685 85c6.66699 -16.667 14.3301 -27.834 22.9971 -33.501s22.334 -9.5 41.001 -11.5l33 -4v-36h-344v36l43 4c18.667 1.33301 30.5 4.83301 35.5 10.5s4.5 17.167 -1.5 34.5l-64 162h-257l-65 -162c-6 -17.333 -6.5 -28.833 -1.5 -34.5
s16.833 -9.16699 35.5 -10.5l43 -4v-36h-231v36l33 4c18.667 2 32.334 5.83301 41.001 11.5s16.334 16.834 23.001 33.501l297 723h20zM322.996 568l-105 -262h209z" />
    <glyph glyph-name="amacron" unicode="&#x101;" horiz-adv-x="551" 
d="M112 669v68h314v-68h-314zM194 -13c-46.667 0 -85.501 13.665 -116.501 40.998s-46.5 60 -46.5 98c0 10 1.16699 19.667 3.5 29s6.33301 18 12 26s10.834 15 15.501 21s12.167 12.167 22.5 18.5l24 15c5.66699 3.66699 15.167 8.33398 28.5 14.001
s22.5 9.33398 27.5 11.001l30 10.5c15 5.33301 23.833 8.66602 26.5 9.99902c48 17.333 79.167 35 93.5 53s21.5 41.333 21.5 70c0 24 -7.33301 43.833 -22 59.5s-34.334 23.5 -59.001 23.5c-37.333 0 -63.5 -13.167 -78.5 -39.5s-16.833 -61.833 -5.5 -106.5
c-24 -5.33301 -46.333 -8 -67 -8c-24.667 0 -43.5 5.66699 -56.5 17s-19.5 24 -19.5 38c0 34.667 42.333 68.334 127 101.001c60 22.667 114.667 34 164 34c47.333 0 85.333 -11.333 114 -34s42.334 -58.667 41.001 -108l-8 -315h78v-32l-194 -45l-20 89
c-24 -60.667 -69.333 -91 -136 -91zM261.999 47.998c17.333 0 32.332 8.99902 44.999 26.999s19.334 45.333 20.001 82l1 153c-12 -10 -30 -22.333 -54 -37c-52 -32 -78 -74 -78 -126c0 -25.333 6 -48.166 18 -68.499s28 -30.5 48 -30.5z" />
    <glyph glyph-name="Abreve" unicode="&#x102;" horiz-adv-x="758" 
d="M379 827c-14.667 0 -29.498 2 -44.498 6s-31.333 11 -49 21s-32.834 26.5 -45.501 49.5s-20.667 50.833 -24 83.5h58c4.66699 -33.333 16.5 -59.333 35.5 -78s42.167 -28 69.5 -28s50.5 9.33301 69.5 28s30.833 44.667 35.5 78h58
c-3.33301 -32.667 -11.333 -60.5 -24 -83.5s-27.834 -39.5 -45.501 -49.5s-34 -17 -49 -21s-29.833 -6 -44.5 -6zM685.002 85c6.66699 -16.667 14.3301 -27.834 22.9971 -33.501s22.334 -9.5 41.001 -11.5l33 -4v-36h-344v36l43 4c18.667 1.33301 30.5 4.83301 35.5 10.5
s4.5 17.167 -1.5 34.5l-64 162h-257l-65 -162c-6 -17.333 -6.5 -28.833 -1.5 -34.5s16.833 -9.16699 35.5 -10.5l43 -4v-36h-231v36l33 4c18.667 2 32.334 5.83301 41.001 11.5s16.334 16.834 23.001 33.501l297 723h20zM322.998 568l-105 -262h209z" />
    <glyph glyph-name="abreve" unicode="&#x103;" horiz-adv-x="551" 
d="M269 628c-14.667 0 -29.498 2 -44.498 6s-31.333 11 -49 21s-32.834 26.5 -45.501 49.5s-20.667 50.833 -24 83.5h58c4.66699 -33.333 16.5 -59.333 35.5 -78s42.167 -28 69.5 -28s50.5 9.33301 69.5 28s30.833 44.667 35.5 78h58
c-3.33301 -32.667 -11.333 -60.5 -24 -83.5s-27.834 -39.5 -45.501 -49.5s-34 -17 -49 -21s-29.833 -6 -44.5 -6zM194.002 -13c-46.667 0 -85.501 13.665 -116.501 40.998s-46.5 60 -46.5 98c0 10 1.16699 19.667 3.5 29s6.33301 18 12 26s10.834 15 15.501 21
s12.167 12.167 22.5 18.5l24 15c5.66699 3.66699 15.167 8.33398 28.5 14.001s22.5 9.33398 27.5 11.001l30 10.5c15 5.33301 23.833 8.66602 26.5 9.99902c48 17.333 79.167 35 93.5 53s21.5 41.333 21.5 70c0 24 -7.33301 43.833 -22 59.5s-34.334 23.5 -59.001 23.5
c-37.333 0 -63.5 -13.167 -78.5 -39.5s-16.833 -61.833 -5.5 -106.5c-24 -5.33301 -46.333 -8 -67 -8c-24.667 0 -43.5 5.66699 -56.5 17s-19.5 24 -19.5 38c0 34.667 42.333 68.334 127 101.001c60 22.667 114.667 34 164 34c47.333 0 85.333 -11.333 114 -34
s42.334 -58.667 41.001 -108l-8 -315h78v-32l-194 -45l-20 89c-24 -60.667 -69.333 -91 -136 -91zM262.001 47.998c17.333 0 32.332 8.99902 44.999 26.999s19.334 45.333 20.001 82l1 153c-12 -10 -30 -22.333 -54 -37c-52 -32 -78 -74 -78 -126
c0 -25.333 6 -48.166 18 -68.499s28 -30.5 48 -30.5z" />
    <glyph glyph-name="Aogonek" unicode="&#x104;" horiz-adv-x="758" 
d="M619 -234c-30 0 -55.8369 7.66699 -77.5039 23s-32.5 36 -32.5 62c0 24.667 12.667 50.167 38 76.5s56 50.5 92 72.5h-201v36l43 4c18.667 1.33301 30.5 4.83301 35.5 10.5s4.5 17.167 -1.5 34.5l-64 162h-257l-65 -162c-6 -17.333 -6.5 -28.833 -1.5 -34.5
s16.833 -9.16699 35.5 -10.5l43 -4v-36h-231v36l33 4c18.667 2 32.334 5.83301 41.001 11.5s16.334 16.834 23.001 33.501l297 723h20l296 -723c6.66699 -16.667 14.334 -27.834 23.001 -33.501s22.334 -9.5 41.001 -11.5l33 -4v-36h-113c-45.333 -45.333 -68 -87 -68 -125
s24 -57 72 -57c15.333 0 31.333 2 48 6v-31c-36 -18 -70 -27 -102 -27zM322.996 568l-105 -262h209z" />
    <glyph glyph-name="aogonek" unicode="&#x105;" horiz-adv-x="551" 
d="M194 -13c-46.667 0 -85.501 13.6641 -116.501 40.9971s-46.5 60 -46.5 98c0 10 1.16699 19.667 3.5 29s6.33301 18 12 26s10.834 15 15.501 21s12.167 12.167 22.5 18.5l24 15c5.66699 3.66699 15.167 8.33398 28.5 14.001s22.5 9.33398 27.5 11.001l30 10.5
c15 5.33301 23.833 8.66602 26.5 9.99902c48 17.333 79.167 35 93.5 53s21.5 41.333 21.5 70c0 24 -7.33301 43.833 -22 59.5s-34.334 23.5 -59.001 23.5c-37.333 0 -63.5 -13.167 -78.5 -39.5s-16.833 -61.833 -5.5 -106.5c-24 -5.33301 -46.333 -8 -67 -8
c-24.667 0 -43.5 5.66699 -56.5 17s-19.5 24 -19.5 38c0 34.667 42.333 68.334 127 101.001c60 22.667 114.667 34 164 34c47.333 0 85.333 -11.333 114 -34s42.334 -58.667 41.001 -108l-8 -315h78v-32l-117 -27c-39.333 -42 -59 -82 -59 -120s24 -57 72 -57
c14.667 0 30.667 2 48 6v-31c-36 -18 -70 -27 -102 -27c-30 0 -55.833 7.66699 -77.5 23s-32.5 36 -32.5 62c0 40.667 36.667 85.334 110 134.001l-36 -8l-20 89c-24 -60.667 -69.333 -91 -136 -91zM261.999 47.9971c17.333 0 32.332 8.99902 44.999 26.999
s19.334 45.333 20.001 82l1 153c-12 -10 -30 -22.333 -54 -37c-52 -32 -78 -74 -78 -126c0 -25.333 6 -48.166 18 -68.499s28 -30.5 48 -30.5z" />
    <glyph glyph-name="Cacute" unicode="&#x106;" horiz-adv-x="810" 
d="M454 843l99 129h183v-3l-251 -126h-31zM477 -13c-132 0 -238.499 36.3311 -319.499 108.998s-121.5 168.334 -121.5 287.001s41 214.334 123 287.001s190 109 324 109c88.667 0 165.667 -11.667 231 -35l46 -262h-22l-132 192c-17.333 25.333 -37 42 -59 50
c-16.667 6 -40.667 9 -72 9c-34 0 -65.833 -5.5 -95.5 -16.5s-57.334 -28.167 -83.001 -51.5s-46 -56.333 -61 -99s-22.5 -92.667 -22.5 -150c0 -70.667 9.33301 -134 28 -190s49.5 -102.167 92.5 -138.5s95.5 -54.5 157.5 -54.5c31.333 0 55.333 3 72 9
c22 8 41.667 24.667 59 50l132 192h22l-53 -262c-65.333 -23.333 -147.333 -35 -246 -35z" />
    <glyph glyph-name="cacute" unicode="&#x107;" horiz-adv-x="556" 
d="M255 609l110 179h148v-11l-230 -168h-28zM287 -13c-78 0 -140.167 24.667 -186.5 74s-69.5 111 -69.5 185c0 82 27.5 148.333 82.5 199s120.5 76 196.5 76c54.667 0 101.5 -10.833 140.5 -32.5s58.5 -51.5 58.5 -89.5c0 -48 -30.667 -72 -92 -72
c-17.333 0 -34.333 1.33301 -51 4c8.66699 104 -17.666 156 -78.999 156c-28.667 0 -53.834 -14.667 -75.501 -44s-32.5 -73 -32.5 -131c0 -64.667 16 -119 48 -163s75 -66 129 -66c35.333 0 67.833 10.5 97.5 31.5s49.167 51.5 58.5 91.5h29
c-24 -146 -108.667 -219 -254 -219z" />
    <glyph glyph-name="Ccircumflex" unicode="&#x108;" horiz-adv-x="810" 
d="M299 833l165 159h16l165 -159h-33l-140 64l-140 -64h-33zM477 -13c-132 0 -238.499 36.3311 -319.499 108.998s-121.5 168.334 -121.5 287.001s41 214.334 123 287.001s190 109 324 109c88.667 0 165.667 -11.667 231 -35l46 -262h-22l-132 192
c-17.333 25.333 -37 42 -59 50c-16.667 6 -40.667 9 -72 9c-34 0 -65.833 -5.5 -95.5 -16.5s-57.334 -28.167 -83.001 -51.5s-46 -56.333 -61 -99s-22.5 -92.667 -22.5 -150c0 -70.667 9.33301 -134 28 -190s49.5 -102.167 92.5 -138.5s95.5 -54.5 157.5 -54.5
c31.333 0 55.333 3 72 9c22 8 41.667 24.667 59 50l132 192h22l-53 -262c-65.333 -23.333 -147.333 -35 -246 -35z" />
    <glyph glyph-name="ccircumflex" unicode="&#x109;" horiz-adv-x="556" 
d="M117 609l164 201h12l164 -201h-29l-141 86l-141 -86h-29zM287 -13c-78 0 -140.167 24.667 -186.5 74s-69.5 111 -69.5 185c0 82 27.5 148.333 82.5 199s120.5 76 196.5 76c54.667 0 101.5 -10.833 140.5 -32.5s58.5 -51.5 58.5 -89.5c0 -48 -30.667 -72 -92 -72
c-17.333 0 -34.333 1.33301 -51 4c8.66699 104 -17.666 156 -78.999 156c-28.667 0 -53.834 -14.667 -75.501 -44s-32.5 -73 -32.5 -131c0 -64.667 16 -119 48 -163s75 -66 129 -66c35.333 0 67.833 10.5 97.5 31.5s49.167 51.5 58.5 91.5h29
c-24 -146 -108.667 -219 -254 -219z" />
    <glyph glyph-name="Cdotaccent" unicode="&#x10a;" horiz-adv-x="810" 
d="M472 837c-20 0 -36.667 6.83301 -50 20.5s-20 30.5 -20 50.5c0 20.667 6.66699 37.667 20 51s30 20 50 20s36.667 -6.83301 50 -20.5s20 -30.5 20 -50.5s-6.83301 -36.833 -20.5 -50.5s-30.167 -20.5 -49.5 -20.5zM477 -13c-132 0 -238.499 36.3311 -319.499 108.998
s-121.5 168.334 -121.5 287.001s41 214.334 123 287.001s190 109 324 109c88.667 0 165.667 -11.667 231 -35l46 -262h-22l-132 192c-17.333 25.333 -37 42 -59 50c-16.667 6 -40.667 9 -72 9c-34 0 -65.833 -5.5 -95.5 -16.5s-57.334 -28.167 -83.001 -51.5
s-46 -56.333 -61 -99s-22.5 -92.667 -22.5 -150c0 -70.667 9.33301 -134 28 -190s49.5 -102.167 92.5 -138.5s95.5 -54.5 157.5 -54.5c31.333 0 55.333 3 72 9c22 8 41.667 24.667 59 50l132 192h22l-53 -262c-65.333 -23.333 -147.333 -35 -246 -35z" />
    <glyph glyph-name="cdotaccent" unicode="&#x10b;" horiz-adv-x="556" 
d="M287 636c-19.333 0 -35.5 6.66699 -48.5 20s-19.5 29.666 -19.5 48.999c0 20 6.5 36.5 19.5 49.5s29.167 19.5 48.5 19.5s35.5 -6.5 48.5 -19.5s19.5 -29.5 19.5 -49.5c0 -19.333 -6.5 -35.666 -19.5 -48.999s-29.167 -20 -48.5 -20zM287 -13
c-78 0 -140.167 24.667 -186.5 74s-69.5 111 -69.5 185c0 82 27.5 148.333 82.5 199s120.5 76 196.5 76c54.667 0 101.5 -10.833 140.5 -32.5s58.5 -51.5 58.5 -89.5c0 -48 -30.667 -72 -92 -72c-17.333 0 -34.333 1.33301 -51 4c8.66699 104 -17.666 156 -78.999 156
c-28.667 0 -53.834 -14.667 -75.501 -44s-32.5 -73 -32.5 -131c0 -64.667 16 -119 48 -163s75 -66 129 -66c35.333 0 67.833 10.5 97.5 31.5s49.167 51.5 58.5 91.5h29c-24 -146 -108.667 -219 -254 -219z" />
    <glyph glyph-name="Ccaron" unicode="&#x10c;" horiz-adv-x="810" 
d="M299 992h33l140 -64l140 64h33l-165 -159h-16zM477 -13c-132 0 -238.499 36.3311 -319.499 108.998s-121.5 168.334 -121.5 287.001s41 214.334 123 287.001s190 109 324 109c88.667 0 165.667 -11.667 231 -35l46 -262h-22l-132 192c-17.333 25.333 -37 42 -59 50
c-16.667 6 -40.667 9 -72 9c-34 0 -65.833 -5.5 -95.5 -16.5s-57.334 -28.167 -83.001 -51.5s-46 -56.333 -61 -99s-22.5 -92.667 -22.5 -150c0 -70.667 9.33301 -134 28 -190s49.5 -102.167 92.5 -138.5s95.5 -54.5 157.5 -54.5c31.333 0 55.333 3 72 9
c22 8 41.667 24.667 59 50l132 192h22l-53 -262c-65.333 -23.333 -147.333 -35 -246 -35z" />
    <glyph glyph-name="ccaron" unicode="&#x10d;" horiz-adv-x="556" 
d="M117 810h29l141 -86l141 86h29l-164 -201h-12zM287 -13c-78 0 -140.167 24.667 -186.5 74s-69.5 111 -69.5 185c0 82 27.5 148.333 82.5 199s120.5 76 196.5 76c54.667 0 101.5 -10.833 140.5 -32.5s58.5 -51.5 58.5 -89.5c0 -48 -30.667 -72 -92 -72
c-17.333 0 -34.333 1.33301 -51 4c8.66699 104 -17.666 156 -78.999 156c-28.667 0 -53.834 -14.667 -75.501 -44s-32.5 -73 -32.5 -131c0 -64.667 16 -119 48 -163s75 -66 129 -66c35.333 0 67.833 10.5 97.5 31.5s49.167 51.5 58.5 91.5h29
c-24 -146 -108.667 -219 -254 -219z" />
    <glyph glyph-name="Dcaron" unicode="&#x10e;" horiz-adv-x="842" 
d="M255 992h33l140 -64l140 64h33l-165 -159h-16zM42 0v36l45 4c18 1.33301 29.833 5 35.5 11s8.5 18.667 8.5 38v580c0 19.333 -2.83301 32 -8.5 38s-17.5 9.66699 -35.5 11l-45 4v36h301c138 0 249.667 -32.833 335 -98.5s128 -157.167 128 -274.5
s-42.667 -210.833 -128 -280.5s-194.333 -104.5 -327 -104.5h-309zM291 44l52 0.000976562c189.333 0 284 102.333 284 307c0 125.333 -23.667 217.166 -71 275.499s-120.333 87.5 -219 87.5h-46v-670z" />
    <glyph glyph-name="dcaron" unicode="&#x10f;" horiz-adv-x="650" 
d="M591 519l-14 28.002c60.667 30 91 64 91 102c0 44.667 -30 72 -90 82c-0.666992 24.667 5.66602 44.167 18.999 58.5s32 21.5 56 21.5c30 0 55.167 -11 75.5 -33s30.5 -48 30.5 -78c0 -38.667 -16.167 -73.334 -48.5 -104.001s-72.166 -56.334 -119.499 -77.001z
M241 -12.998c-58.667 0 -108 23.833 -148 71.5s-60 113.167 -60 196.5c0 78 22.167 141.833 66.5 191.5s98.833 74.5 163.5 74.5c45.333 0 83 -16 113 -48v182l-94 64v6l242 77v-736h73v-32l-221 -45v60c-36.667 -41.333 -81.667 -62 -135 -62zM198 256.002
c0 -58.667 11.332 -106.667 33.999 -144s51.334 -56 86.001 -56c22.667 0 42 6.66699 58 20v369c-14.667 12.667 -33 19 -55 19c-36 0 -65.5 -18.667 -88.5 -56s-34.5 -88 -34.5 -152z" />
    <glyph glyph-name="Dcroat" unicode="&#x110;" horiz-adv-x="860" 
d="M56 0v36l45 4c18 1.33301 29.833 5 35.5 11s8.5 18.667 8.5 38v279h-89v59h89v242c0 19.333 -2.83301 32 -8.5 38s-17.5 9.66699 -35.5 11l-45 4v36h301c138 0 249.667 -32.833 335 -98.5s128 -157.167 128 -274.5s-42.667 -210.833 -128 -280.5
s-194.333 -104.5 -327 -104.5h-309zM305 44l52 0.000976562c189.333 0 284 102.333 284 307c0 125.333 -23.667 217.166 -71 275.499s-120.333 87.5 -219 87.5h-46v-287h150v-59h-150v-324z" />
    <glyph glyph-name="dcroat" unicode="&#x111;" horiz-adv-x="610" 
d="M241 -13c-58.667 0 -108 23.833 -148 71.5s-60 113.167 -60 196.5c0 78 22.167 141.833 66.5 191.5s98.833 74.5 163.5 74.5c45.333 0 83 -16 113 -48v92h-105v51h105v39l-94 64v6l242 77v-186h73v-51h-73v-499h73v-32l-221 -45v60c-36.667 -41.333 -81.667 -62 -135 -62
zM198 256c0 -58.667 11.332 -106.667 33.999 -144s51.334 -56 86.001 -56c22.667 0 42 6.66699 58 20v369c-14.667 12.667 -33 19 -55 19c-36 0 -65.5 -18.667 -88.5 -56s-34.5 -88 -34.5 -152z" />
    <glyph glyph-name="Emacron" unicode="&#x112;" horiz-adv-x="769" 
d="M237 872v68h314v-68h-314zM42 0l-0.000976562 36l45 4c18 1.33301 29.833 5 35.5 11s8.5 18.667 8.5 38v580c0 19.333 -2.83301 32 -8.5 38s-17.5 9.66699 -35.5 11l-45 4v36h596l37 -271h-22l-143 207c-5.33301 8 -10.166 13 -14.499 15s-11.833 3 -22.5 3h-182v-293
h116c8.66699 0 14.334 3.66699 17.001 11l48 131h22v-336h-22l-48 131c-2.66699 7.33301 -8.33398 11 -17.001 11h-116v-321h227c8.66699 0 14.5 0.833008 17.5 2.5s7.5 5.5 13.5 11.5l184 211h22l-75 -271h-638z" />
    <glyph glyph-name="emacron" unicode="&#x113;" horiz-adv-x="578" 
d="M130 669v68h314v-68h-314zM295 -13c-80.667 0 -144.833 24.833 -192.5 74.5s-71.5 112.5 -71.5 188.5c0 79.333 26.333 144.333 79 195s113.334 76 182.001 76c64 0 117.333 -17.333 160 -52s70.667 -85.667 84 -153h-355c0.666992 -67.333 17.667 -123 51 -167
s78 -66 134 -66c36 0 69.167 10.5 99.5 31.5s50.166 51.5 59.499 91.5h29c-11.333 -72 -39.333 -126.5 -84 -163.5s-103 -55.5 -175 -55.5zM286.001 487c-28 0 -50.999 -11.332 -68.999 -33.999s-29.333 -54.334 -34 -95.001h189c-2.66699 86 -31.334 129 -86.001 129z" />
    <glyph glyph-name="Ebreve" unicode="&#x114;" horiz-adv-x="769" 
d="M394 827c-14.667 0 -29.498 2 -44.498 6s-31.333 11 -49 21s-32.834 26.5 -45.501 49.5s-20.667 50.833 -24 83.5h58c4.66699 -33.333 16.5 -59.333 35.5 -78s42.167 -28 69.5 -28s50.5 9.33301 69.5 28s30.833 44.667 35.5 78h58
c-3.33301 -32.667 -11.333 -60.5 -24 -83.5s-27.834 -39.5 -45.501 -49.5s-34 -17 -49 -21s-29.833 -6 -44.5 -6zM42.002 0l-0.000976562 36l45 4c18 1.33301 29.833 5 35.5 11s8.5 18.667 8.5 38v580c0 19.333 -2.83301 32 -8.5 38s-17.5 9.66699 -35.5 11l-45 4v36h596
l37 -271h-22l-143 207c-5.33301 8 -10.166 13 -14.499 15s-11.833 3 -22.5 3h-182v-293h116c8.66699 0 14.334 3.66699 17.001 11l48 131h22v-336h-22l-48 131c-2.66699 7.33301 -8.33398 11 -17.001 11h-116v-321h227c8.66699 0 14.5 0.833008 17.5 2.5s7.5 5.5 13.5 11.5
l184 211h22l-75 -271h-638z" />
    <glyph glyph-name="ebreve" unicode="&#x115;" horiz-adv-x="578" 
d="M287 628c-14.667 0 -29.498 2 -44.498 6s-31.333 11 -49 21s-32.834 26.5 -45.501 49.5s-20.667 50.833 -24 83.5h58c4.66699 -33.333 16.5 -59.333 35.5 -78s42.167 -28 69.5 -28s50.5 9.33301 69.5 28s30.833 44.667 35.5 78h58
c-3.33301 -32.667 -11.333 -60.5 -24 -83.5s-27.834 -39.5 -45.501 -49.5s-34 -17 -49 -21s-29.833 -6 -44.5 -6zM295.002 -13c-80.667 0 -144.833 24.833 -192.5 74.5s-71.5 112.5 -71.5 188.5c0 79.333 26.333 144.333 79 195s113.334 76 182.001 76
c64 0 117.333 -17.333 160 -52s70.667 -85.667 84 -153h-355c0.666992 -67.333 17.667 -123 51 -167s78 -66 134 -66c36 0 69.167 10.5 99.5 31.5s50.166 51.5 59.499 91.5h29c-11.333 -72 -39.333 -126.5 -84 -163.5s-103 -55.5 -175 -55.5zM286.003 487
c-28 0 -50.999 -11.332 -68.999 -33.999s-29.333 -54.334 -34 -95.001h189c-2.66699 86 -31.334 129 -86.001 129z" />
    <glyph glyph-name="Edotaccent" unicode="&#x116;" horiz-adv-x="769" 
d="M394 837c-20 0 -36.667 6.83301 -50 20.5s-20 30.5 -20 50.5c0 20.667 6.66699 37.667 20 51s30 20 50 20s36.667 -6.83301 50 -20.5s20 -30.5 20 -50.5s-6.83301 -36.833 -20.5 -50.5s-30.167 -20.5 -49.5 -20.5zM42 0l-0.000976562 36l45 4
c18 1.33301 29.833 5 35.5 11s8.5 18.667 8.5 38v580c0 19.333 -2.83301 32 -8.5 38s-17.5 9.66699 -35.5 11l-45 4v36h596l37 -271h-22l-143 207c-5.33301 8 -10.166 13 -14.499 15s-11.833 3 -22.5 3h-182v-293h116c8.66699 0 14.334 3.66699 17.001 11l48 131h22v-336
h-22l-48 131c-2.66699 7.33301 -8.33398 11 -17.001 11h-116v-321h227c8.66699 0 14.5 0.833008 17.5 2.5s7.5 5.5 13.5 11.5l184 211h22l-75 -271h-638z" />
    <glyph glyph-name="edotaccent" unicode="&#x117;" horiz-adv-x="578" 
d="M287 636c-19.333 0 -35.5 6.66699 -48.5 20s-19.5 29.666 -19.5 48.999c0 20 6.5 36.5 19.5 49.5s29.167 19.5 48.5 19.5s35.5 -6.5 48.5 -19.5s19.5 -29.5 19.5 -49.5c0 -19.333 -6.5 -35.666 -19.5 -48.999s-29.167 -20 -48.5 -20zM295 -13
c-80.667 0 -144.833 24.833 -192.5 74.5s-71.5 112.5 -71.5 188.5c0 79.333 26.333 144.333 79 195s113.334 76 182.001 76c64 0 117.333 -17.333 160 -52s70.667 -85.667 84 -153h-355c0.666992 -67.333 17.667 -123 51 -167s78 -66 134 -66c36 0 69.167 10.5 99.5 31.5
s50.166 51.5 59.499 91.5h29c-11.333 -72 -39.333 -126.5 -84 -163.5s-103 -55.5 -175 -55.5zM286.001 487c-28 0 -50.999 -11.332 -68.999 -33.999s-29.333 -54.334 -34 -95.001h189c-2.66699 86 -31.334 129 -86.001 129z" />
    <glyph glyph-name="Eogonek" unicode="&#x118;" horiz-adv-x="769" 
d="M42 0l-0.000976562 36l45 4c18 1.33301 29.833 5 35.5 11s8.5 18.667 8.5 38v580c0 19.333 -2.83301 32 -8.5 38s-17.5 9.66699 -35.5 11l-45 4v36h596l37 -271h-22l-143 207c-5.33301 8 -10.166 13 -14.499 15s-11.833 3 -22.5 3h-182v-293h116
c8.66699 0 14.334 3.66699 17.001 11l48 131h22v-336h-22l-48 131c-2.66699 7.33301 -8.33398 11 -17.001 11h-116v-321h227c8.66699 0 14.5 0.833008 17.5 2.5s7.5 5.5 13.5 11.5l184 211h22l-75 -271c-45.333 -45.333 -68 -87 -68 -125s24 -57 72 -57
c14.667 0 30.667 2 48 6v-31c-36 -18 -70 -27 -102 -27c-30 0 -55.833 7.66699 -77.5 23s-32.5 36 -32.5 62c0 24.667 12.667 50.167 38 76.5s56 50.5 92 72.5h-608z" />
    <glyph glyph-name="eogonek" unicode="&#x119;" horiz-adv-x="578" 
d="M443 -207c-36 -18 -70.001 -27.001 -102.001 -27.001c-30 0 -55.833 7.66699 -77.5 23s-32.5 36 -32.5 62c0 47.333 46.333 95 139 143c-26.667 -4.66699 -51.667 -7 -75 -7c-80.667 0 -144.834 24.833 -192.501 74.5s-71.5 112.5 -71.5 188.5
c0 79.333 26.333 144.333 79 195s113.334 76 182.001 76c64 0 117.333 -17.333 160 -52s70.667 -85.667 84 -153h-355c0.666992 -67.333 17.667 -123 51 -167s78 -66 134 -66c37.333 0 71.5 11.333 102.5 34s50.5 55.334 58.5 98.001h28
c-3.33301 -29.333 -9.5 -55.333 -18.5 -78s-21.5 -43 -37.5 -61s-29.167 -31.5 -39.5 -40.5s-26.166 -21.167 -47.499 -36.5c-31.333 -23.333 -54 -44.5 -68 -63.5s-21 -39.167 -21 -60.5c0 -38 24 -57 72 -57c15.333 0 31.333 2 48 6v-31zM285.999 486.999
c-28 0 -50.999 -11.332 -68.999 -33.999s-29.333 -54.334 -34 -95.001h189c-2.66699 86 -31.334 129 -86.001 129z" />
    <glyph glyph-name="Ecaron" unicode="&#x11a;" horiz-adv-x="769" 
d="M221 992h33l140 -64l140 64h33l-165 -159h-16zM42 0l-0.000976562 36l45 4c18 1.33301 29.833 5 35.5 11s8.5 18.667 8.5 38v580c0 19.333 -2.83301 32 -8.5 38s-17.5 9.66699 -35.5 11l-45 4v36h596l37 -271h-22l-143 207c-5.33301 8 -10.166 13 -14.499 15
s-11.833 3 -22.5 3h-182v-293h116c8.66699 0 14.334 3.66699 17.001 11l48 131h22v-336h-22l-48 131c-2.66699 7.33301 -8.33398 11 -17.001 11h-116v-321h227c8.66699 0 14.5 0.833008 17.5 2.5s7.5 5.5 13.5 11.5l184 211h22l-75 -271h-638z" />
    <glyph glyph-name="ecaron" unicode="&#x11b;" horiz-adv-x="578" 
d="M117 810h29l141 -86l141 86h29l-164 -201h-12zM295 -13c-80.667 0 -144.833 24.833 -192.5 74.5s-71.5 112.5 -71.5 188.5c0 79.333 26.333 144.333 79 195s113.334 76 182.001 76c64 0 117.333 -17.333 160 -52s70.667 -85.667 84 -153h-355
c0.666992 -67.333 17.667 -123 51 -167s78 -66 134 -66c36 0 69.167 10.5 99.5 31.5s50.166 51.5 59.499 91.5h29c-11.333 -72 -39.333 -126.5 -84 -163.5s-103 -55.5 -175 -55.5zM286.001 487c-28 0 -50.999 -11.332 -68.999 -33.999s-29.333 -54.334 -34 -95.001h189
c-2.66699 86 -31.334 129 -86.001 129z" />
    <glyph glyph-name="Gcircumflex" unicode="&#x11c;" horiz-adv-x="866" 
d="M306 833l165 159h16l165 -159h-33l-140 64l-140 -64h-33zM476 -13c-132 0 -238.498 36.332 -319.498 108.999s-121.5 168.334 -121.5 287.001c0 118 41.5 213.5 124.5 286.5s190.5 109.5 322.5 109.5c88.667 0 165.667 -11.667 231 -35l46 -262h-22l-132 192
c-17.333 25.333 -37 42 -59 50c-16.667 6 -40.667 9 -72 9c-32.667 0 -63.834 -5.5 -93.501 -16.5s-57.5 -28.167 -83.5 -51.5s-46.667 -56.333 -62 -99s-23 -92.667 -23 -150c0 -70.667 9.33301 -133.834 28 -189.501s49.5 -101.5 92.5 -137.5s95.5 -54 157.5 -54
c43.333 0 80.666 3.66699 111.999 11v214c0 19.333 -2.83301 31.833 -8.5 37.5s-17.5 9.16699 -35.5 10.5l-81 4v41h374v-45h-89v-202l4 -71c-36.667 -13.333 -82.5 -24.666 -137.5 -33.999s-105.833 -14 -152.5 -14z" />
    <glyph glyph-name="gcircumflex" unicode="&#x11d;" horiz-adv-x="604" 
d="M123 609l164 201h12l164 -201h-29l-141 86l-141 -86h-29zM270 170c-28 0 -53.3311 2.99902 -75.998 8.99902l-61 -73l268 -22c66 -5.33301 111 -17.333 135 -36s36 -44.667 36 -78c0 -60 -37.333 -113.5 -112 -160.5s-165.334 -70.5 -272.001 -70.5
c-55.333 0 -98.5 9.83301 -129.5 29.5s-46.5 44.167 -46.5 73.5c0 28 15.167 52 45.5 72s68.833 34.667 115.5 44c-32.667 12.667 -81 40.667 -145 84l129 150c-34 15.333 -60.667 36.333 -80 63s-29 56.334 -29 89.001c0 49.333 21.167 91.166 63.5 125.499
s96.166 51.5 161.499 51.5c64 0 118 -17 162 -51l44 86h142l-51 -99h-121c31.333 -31.333 47 -68 47 -110c0 -49.333 -21.167 -91.166 -63.5 -125.499s-96.5 -51.5 -162.5 -51.5zM300.002 203.999c17.333 0 31.167 7.83105 41.5 23.498s15.5 39.834 15.5 72.501
c0 50.667 -10 94.834 -30 132.501s-46.333 56.5 -79 56.5c-38.667 0 -58 -32.333 -58 -97c0 -50 10 -93.833 30 -131.5s46.667 -56.5 80 -56.5zM243.003 -213.003c51.333 0 98.667 10.501 142 31.501s65 45.5 65 73.5c0 22.667 -14.667 38.5 -44 47.5s-74 13.5 -134 13.5
c-54 0 -93.333 -8 -118 -24s-37 -35.333 -37 -58c0 -24.667 10 -44.834 30 -60.501s52 -23.5 96 -23.5z" />
    <glyph glyph-name="Gbreve" unicode="&#x11e;" horiz-adv-x="866" 
d="M479 827c-14.667 0 -29.498 2 -44.498 6s-31.333 11 -49 21s-32.834 26.5 -45.501 49.5s-20.667 50.833 -24 83.5h58c4.66699 -33.333 16.5 -59.333 35.5 -78s42.167 -28 69.5 -28s50.5 9.33301 69.5 28s30.833 44.667 35.5 78h58
c-3.33301 -32.667 -11.333 -60.5 -24 -83.5s-27.834 -39.5 -45.501 -49.5s-34 -17 -49 -21s-29.833 -6 -44.5 -6zM476.002 -13c-132 0 -238.498 36.332 -319.498 108.999s-121.5 168.334 -121.5 287.001c0 118 41.5 213.5 124.5 286.5s190.5 109.5 322.5 109.5
c88.667 0 165.667 -11.667 231 -35l46 -262h-22l-132 192c-17.333 25.333 -37 42 -59 50c-16.667 6 -40.667 9 -72 9c-32.667 0 -63.834 -5.5 -93.501 -16.5s-57.5 -28.167 -83.5 -51.5s-46.667 -56.333 -62 -99s-23 -92.667 -23 -150
c0 -70.667 9.33301 -133.834 28 -189.501s49.5 -101.5 92.5 -137.5s95.5 -54 157.5 -54c43.333 0 80.666 3.66699 111.999 11v214c0 19.333 -2.83301 31.833 -8.5 37.5s-17.5 9.16699 -35.5 10.5l-81 4v41h374v-45h-89v-202l4 -71
c-36.667 -13.333 -82.5 -24.666 -137.5 -33.999s-105.833 -14 -152.5 -14z" />
    <glyph glyph-name="gbreve" unicode="&#x11f;" horiz-adv-x="604" 
d="M293 628c-14.667 0 -29.498 2 -44.498 6s-31.333 11 -49 21s-32.834 26.5 -45.501 49.5s-20.667 50.833 -24 83.5h58c4.66699 -33.333 16.5 -59.333 35.5 -78s42.167 -28 69.5 -28s50.5 9.33301 69.5 28s30.833 44.667 35.5 78h58
c-3.33301 -32.667 -11.333 -60.5 -24 -83.5s-27.834 -39.5 -45.501 -49.5s-34 -17 -49 -21s-29.833 -6 -44.5 -6zM270.002 170c-28 0 -53.3311 2.99902 -75.998 8.99902l-61 -73l268 -22c66 -5.33301 111 -17.333 135 -36s36 -44.667 36 -78
c0 -60 -37.333 -113.5 -112 -160.5s-165.334 -70.5 -272.001 -70.5c-55.333 0 -98.5 9.83301 -129.5 29.5s-46.5 44.167 -46.5 73.5c0 28 15.167 52 45.5 72s68.833 34.667 115.5 44c-32.667 12.667 -81 40.667 -145 84l129 150c-34 15.333 -60.667 36.333 -80 63
s-29 56.334 -29 89.001c0 49.333 21.167 91.166 63.5 125.499s96.166 51.5 161.499 51.5c64 0 118 -17 162 -51l44 86h142l-51 -99h-121c31.333 -31.333 47 -68 47 -110c0 -49.333 -21.167 -91.166 -63.5 -125.499s-96.5 -51.5 -162.5 -51.5zM300.004 203.999
c17.333 0 31.167 7.83105 41.5 23.498s15.5 39.834 15.5 72.501c0 50.667 -10 94.834 -30 132.501s-46.333 56.5 -79 56.5c-38.667 0 -58 -32.333 -58 -97c0 -50 10 -93.833 30 -131.5s46.667 -56.5 80 -56.5zM243.005 -213.003c51.333 0 98.667 10.501 142 31.501
s65 45.5 65 73.5c0 22.667 -14.667 38.5 -44 47.5s-74 13.5 -134 13.5c-54 0 -93.333 -8 -118 -24s-37 -35.333 -37 -58c0 -24.667 10 -44.834 30 -60.501s52 -23.5 96 -23.5z" />
    <glyph glyph-name="Gdotaccent" unicode="&#x120;" horiz-adv-x="866" 
d="M479 837c-20 0 -36.667 6.83301 -50 20.5s-20 30.5 -20 50.5c0 20.667 6.66699 37.667 20 51s30 20 50 20c19.333 0 35.833 -6.83301 49.5 -20.5s20.5 -30.5 20.5 -50.5s-6.83301 -36.833 -20.5 -50.5s-30.167 -20.5 -49.5 -20.5zM476 -13
c-132 0 -238.498 36.332 -319.498 108.999s-121.5 168.334 -121.5 287.001c0 118 41.5 213.5 124.5 286.5s190.5 109.5 322.5 109.5c88.667 0 165.667 -11.667 231 -35l46 -262h-22l-132 192c-17.333 25.333 -37 42 -59 50c-16.667 6 -40.667 9 -72 9
c-32.667 0 -63.834 -5.5 -93.501 -16.5s-57.5 -28.167 -83.5 -51.5s-46.667 -56.333 -62 -99s-23 -92.667 -23 -150c0 -70.667 9.33301 -133.834 28 -189.501s49.5 -101.5 92.5 -137.5s95.5 -54 157.5 -54c43.333 0 80.666 3.66699 111.999 11v214
c0 19.333 -2.83301 31.833 -8.5 37.5s-17.5 9.16699 -35.5 10.5l-81 4v41h374v-45h-89v-202l4 -71c-36.667 -13.333 -82.5 -24.666 -137.5 -33.999s-105.833 -14 -152.5 -14z" />
    <glyph glyph-name="gdotaccent" unicode="&#x121;" horiz-adv-x="604" 
d="M293 636c-19.333 0 -35.5 6.66699 -48.5 20s-19.5 29.666 -19.5 48.999c0 20 6.5 36.5 19.5 49.5s29.167 19.5 48.5 19.5s35.5 -6.5 48.5 -19.5s19.5 -29.5 19.5 -49.5c0 -19.333 -6.5 -35.666 -19.5 -48.999s-29.167 -20 -48.5 -20zM270 170
c-28 0 -53.3311 2.99902 -75.998 8.99902l-61 -73l268 -22c66 -5.33301 111 -17.333 135 -36s36 -44.667 36 -78c0 -60 -37.333 -113.5 -112 -160.5s-165.334 -70.5 -272.001 -70.5c-55.333 0 -98.5 9.83301 -129.5 29.5s-46.5 44.167 -46.5 73.5c0 28 15.167 52 45.5 72
s68.833 34.667 115.5 44c-32.667 12.667 -81 40.667 -145 84l129 150c-34 15.333 -60.667 36.333 -80 63s-29 56.334 -29 89.001c0 49.333 21.167 91.166 63.5 125.499s96.166 51.5 161.499 51.5c64 0 118 -17 162 -51l44 86h142l-51 -99h-121
c31.333 -31.333 47 -68 47 -110c0 -49.333 -21.167 -91.166 -63.5 -125.499s-96.5 -51.5 -162.5 -51.5zM300.002 203.999c17.333 0 31.167 7.83105 41.5 23.498s15.5 39.834 15.5 72.501c0 50.667 -10 94.834 -30 132.501s-46.333 56.5 -79 56.5
c-38.667 0 -58 -32.333 -58 -97c0 -50 10 -93.833 30 -131.5s46.667 -56.5 80 -56.5zM243.003 -213.003c51.333 0 98.667 10.501 142 31.501s65 45.5 65 73.5c0 22.667 -14.667 38.5 -44 47.5s-74 13.5 -134 13.5c-54 0 -93.333 -8 -118 -24s-37 -35.333 -37 -58
c0 -24.667 10 -44.834 30 -60.501s52 -23.5 96 -23.5z" />
    <glyph glyph-name="Gcommaaccent" unicode="&#x122;" horiz-adv-x="866" 
d="M476 -13c-132 0 -238.498 36.332 -319.498 108.999s-121.5 168.334 -121.5 287.001c0 118 41.5 213.5 124.5 286.5s190.5 109.5 322.5 109.5c88.667 0 165.667 -11.667 231 -35l46 -262h-22l-132 192c-17.333 25.333 -37 42 -59 50c-16.667 6 -40.667 9 -72 9
c-32.667 0 -63.834 -5.5 -93.501 -16.5s-57.5 -28.167 -83.5 -51.5s-46.667 -56.333 -62 -99s-23 -92.667 -23 -150c0 -70.667 9.33301 -133.834 28 -189.501s49.5 -101.5 92.5 -137.5s95.5 -54 157.5 -54c43.333 0 80.666 3.66699 111.999 11v214
c0 19.333 -2.83301 31.833 -8.5 37.5s-17.5 9.16699 -35.5 10.5l-81 4v41h374v-45h-89v-202l4 -71c-36.667 -13.333 -82.5 -24.666 -137.5 -33.999s-105.833 -14 -152.5 -14zM409.002 -378.001l-14 28.002c60.667 30 91 64 91 102c0 44.667 -30 72 -90 82
c-0.666992 24.667 5.66602 44.167 18.999 58.5s32 21.5 56 21.5c30 0 55.167 -11 75.5 -33s30.5 -48 30.5 -78c0 -38.667 -16.167 -73.334 -48.5 -104.001s-72.166 -56.334 -119.499 -77.001z" />
    <glyph glyph-name="gcommaaccent" unicode="&#x123;" horiz-adv-x="604" 
d="M370 885l14 -28.002c-60.667 -30 -91 -64 -91 -102c0 -44.667 30 -72 90 -82c0.666992 -24.667 -5.66602 -44.167 -18.999 -58.5s-32 -21.5 -56 -21.5c-30 0 -55.167 11 -75.5 33s-30.5 48 -30.5 78c0 38.667 16.167 73.334 48.5 104.001s72.166 56.334 119.499 77.001z
M270 169.998c-28 0 -53.3311 2.99902 -75.998 8.99902l-61 -73l268 -22c66 -5.33301 111 -17.333 135 -36s36 -44.667 36 -78c0 -60 -37.333 -113.5 -112 -160.5s-165.334 -70.5 -272.001 -70.5c-55.333 0 -98.5 9.83301 -129.5 29.5s-46.5 44.167 -46.5 73.5
c0 28 15.167 52 45.5 72s68.833 34.667 115.5 44c-32.667 12.667 -81 40.667 -145 84l129 150c-34 15.333 -60.667 36.333 -80 63s-29 56.334 -29 89.001c0 49.333 21.167 91.166 63.5 125.499s96.166 51.5 161.499 51.5c64 0 118 -17 162 -51l44 86h142l-51 -99h-121
c31.333 -31.333 47 -68 47 -110c0 -49.333 -21.167 -91.166 -63.5 -125.499s-96.5 -51.5 -162.5 -51.5zM300.002 203.997c17.333 0 31.167 7.83105 41.5 23.498s15.5 39.834 15.5 72.501c0 50.667 -10 94.834 -30 132.501s-46.333 56.5 -79 56.5
c-38.667 0 -58 -32.333 -58 -97c0 -50 10 -93.833 30 -131.5s46.667 -56.5 80 -56.5zM243.003 -213.005c51.333 0 98.667 10.501 142 31.501s65 45.5 65 73.5c0 22.667 -14.667 38.5 -44 47.5s-74 13.5 -134 13.5c-54 0 -93.333 -8 -118 -24s-37 -35.333 -37 -58
c0 -24.667 10 -44.834 30 -60.501s52 -23.5 96 -23.5z" />
    <glyph glyph-name="Hcircumflex" unicode="&#x124;" horiz-adv-x="903" 
d="M278 833l165 159h16l165 -159h-33l-140 64l-140 -64h-33zM42 0v36l45 4c18 1.33301 29.833 5 35.5 11s8.5 18.667 8.5 38v580c0 19.333 -2.83301 32 -8.5 38s-17.5 9.66699 -35.5 11l-45 4v36h338v-36l-45 -4c-18 -1.33301 -29.833 -5 -35.5 -11s-8.5 -18.667 -8.5 -38
v-242h321v242c0 19.333 -2.83301 32 -8.5 38s-17.5 9.66699 -35.5 11l-45 4v36h338v-36l-45 -4c-18 -1.33301 -29.833 -5 -35.5 -11s-8.5 -18.667 -8.5 -38v-580c0 -19.333 2.83301 -32 8.5 -38s17.5 -9.66699 35.5 -11l45 -4v-36h-338v36l45 4c18 1.33301 29.833 5 35.5 11
s8.5 18.667 8.5 38v279h-321v-279c0 -19.333 2.83301 -32 8.5 -38s17.5 -9.66699 35.5 -11l45 -4v-36h-338z" />
    <glyph glyph-name="hcircumflex" unicode="&#x125;" horiz-adv-x="608" 
d="M-17 833l165 159h16l165 -159h-33l-140 64l-140 -64h-33zM17 0v32l27 2c18 1.33301 29.167 4 33.5 8s6.5 14.667 6.5 32v581l-76 64v6l224 77v-401c24 80 74.667 120 152 120c94.667 0 142 -62.333 142 -187v-260c0 -17.333 2.16699 -28 6.5 -32s15.5 -6.66699 33.5 -8
l27 -2v-32h-271v32l19 2c18 2 28.667 4.83301 32 8.5s5 14.167 5 31.5v232c0 48.667 -5.83301 82 -17.5 100s-28.5 27 -50.5 27c-52 0 -78 -42.667 -78 -128v-231c0 -17.333 1.66699 -27.833 5 -31.5s14 -6.5 32 -8.5l19 -2v-32h-271z" />
    <glyph glyph-name="Hbar" unicode="&#x126;" horiz-adv-x="903" 
d="M42 0v36l45 4c18 1.33301 29.833 5 35.5 11s8.5 18.667 8.5 38v451h-89v59h89v70c0 19.333 -2.83301 32 -8.5 38s-17.5 9.66699 -35.5 11l-45 4v36h338v-36l-45 -4c-18 -1.33301 -29.833 -5 -35.5 -11s-8.5 -18.667 -8.5 -38v-70h321v70c0 19.333 -2.83301 32 -8.5 38
s-17.5 9.66699 -35.5 11l-45 4v36h338v-36l-45 -4c-18 -1.33301 -29.833 -5 -35.5 -11s-8.5 -18.667 -8.5 -38v-70h89v-59h-89v-451c0 -19.333 2.83301 -32 8.5 -38s17.5 -9.66699 35.5 -11l45 -4v-36h-338v36l45 4c18 1.33301 29.833 5 35.5 11s8.5 18.667 8.5 38v279h-321
v-279c0 -19.333 2.83301 -32 8.5 -38s17.5 -9.66699 35.5 -11l45 -4v-36h-338zM291 427h321v113h-321v-113z" />
    <glyph glyph-name="hbar" unicode="&#x127;" horiz-adv-x="608" 
d="M17 0v32l27 2c18 1.33301 29.167 4 33.5 8s6.5 14.667 6.5 32v491h-76v51h76v39l-76 64v6l224 77v-186h102v-51h-102v-164c24 80 74.667 120 152 120c94.667 0 142 -62.333 142 -187v-260c0 -17.333 2.16699 -28 6.5 -32s15.5 -6.66699 33.5 -8l27 -2v-32h-271v32l19 2
c18 2 28.667 4.83301 32 8.5s5 14.167 5 31.5v232c0 48.667 -5.83301 82 -17.5 100s-28.5 27 -50.5 27c-52 0 -78 -42.667 -78 -128v-231c0 -17.333 1.66699 -27.833 5 -31.5s14 -6.5 32 -8.5l19 -2v-32h-271z" />
    <glyph glyph-name="Itilde" unicode="&#x128;" horiz-adv-x="422" 
d="M284 829c-23.333 0 -51.165 9.66602 -83.498 28.999s-56.833 29 -73.5 29c-34 0 -52.667 -18 -56 -54h-21c0 40.667 8 75.334 24 104.001s40 43 72 43c19.333 0 45.833 -9.66699 79.5 -29s57.5 -29 71.5 -29c34 0 52 16.667 54 50h21
c-0.666992 -50 -9.33398 -86.333 -26.001 -109s-37.334 -34 -62.001 -34zM42.001 -0.000976562v36l45 4c18 1.33301 29.833 5 35.5 11s8.5 18.667 8.5 38v580c0 19.333 -2.83301 32 -8.5 38s-17.5 9.66699 -35.5 11l-45 4v36h338v-36l-45 -4
c-18 -1.33301 -29.833 -5 -35.5 -11s-8.5 -18.667 -8.5 -38v-580c0 -19.333 2.83301 -32 8.5 -38s17.5 -9.66699 35.5 -11l45 -4v-36h-338z" />
    <glyph glyph-name="itilde" unicode="&#x129;" horiz-adv-x="337" 
d="M241 645c-23.333 0 -51.165 9.66602 -83.498 28.999s-56.833 29 -73.5 29c-34 0 -52.667 -18 -56 -54h-21c0 40.667 8 75.334 24 104.001s40 43 72 43c19.333 0 45.833 -9.66699 79.5 -29s57.5 -29 71.5 -29c34 0 52 16.667 54 50h21
c-0.666992 -50 -9.33398 -86.333 -26.001 -109s-37.334 -34 -62.001 -34zM34.001 -0.000976562v32l27 2c18 1.33301 29.167 4 33.5 8s6.5 14.667 6.5 32v283l-76 72v6l224 94v-455c0 -17.333 2.16699 -28 6.5 -32s15.5 -6.66699 33.5 -8l27 -2v-32h-282z" />
    <glyph glyph-name="Imacron" unicode="&#x12a;" horiz-adv-x="422" 
d="M54 872v68h314v-68h-314zM42 0v36l45 4c18 1.33301 29.833 5 35.5 11s8.5 18.667 8.5 38v580c0 19.333 -2.83301 32 -8.5 38s-17.5 9.66699 -35.5 11l-45 4v36h338v-36l-45 -4c-18 -1.33301 -29.833 -5 -35.5 -11s-8.5 -18.667 -8.5 -38v-580
c0 -19.333 2.83301 -32 8.5 -38s17.5 -9.66699 35.5 -11l45 -4v-36h-338z" />
    <glyph glyph-name="imacron" unicode="&#x12b;" horiz-adv-x="337" 
d="M11 669v68h314v-68h-314zM34 0v32l27 2c18 1.33301 29.167 4 33.5 8s6.5 14.667 6.5 32v283l-76 72v6l224 94v-455c0 -17.333 2.16699 -28 6.5 -32s15.5 -6.66699 33.5 -8l27 -2v-32h-282z" />
    <glyph glyph-name="Ibreve" unicode="&#x12c;" horiz-adv-x="422" 
d="M211 827c-14.667 0 -29.498 2 -44.498 6s-31.333 11 -49 21s-32.834 26.5 -45.501 49.5s-20.667 50.833 -24 83.5h58c4.66699 -33.333 16.5 -59.333 35.5 -78s42.167 -28 69.5 -28s50.5 9.33301 69.5 28s30.833 44.667 35.5 78h58
c-3.33301 -32.667 -11.333 -60.5 -24 -83.5s-27.834 -39.5 -45.501 -49.5s-34 -17 -49 -21s-29.833 -6 -44.5 -6zM42.002 0v36l45 4c18 1.33301 29.833 5 35.5 11s8.5 18.667 8.5 38v580c0 19.333 -2.83301 32 -8.5 38s-17.5 9.66699 -35.5 11l-45 4v36h338v-36l-45 -4
c-18 -1.33301 -29.833 -5 -35.5 -11s-8.5 -18.667 -8.5 -38v-580c0 -19.333 2.83301 -32 8.5 -38s17.5 -9.66699 35.5 -11l45 -4v-36h-338z" />
    <glyph glyph-name="ibreve" unicode="&#x12d;" horiz-adv-x="337" 
d="M168 628c-14.667 0 -29.498 2 -44.498 6s-31.333 11 -49 21s-32.834 26.5 -45.501 49.5s-20.667 50.833 -24 83.5h58c4.66699 -33.333 16.5 -59.333 35.5 -78s42.167 -28 69.5 -28s50.5 9.33301 69.5 28s30.833 44.667 35.5 78h58
c-3.33301 -32.667 -11.333 -60.5 -24 -83.5s-27.834 -39.5 -45.501 -49.5s-34 -17 -49 -21s-29.833 -6 -44.5 -6zM34.002 0v32l27 2c18 1.33301 29.167 4 33.5 8s6.5 14.667 6.5 32v283l-76 72v6l224 94v-455c0 -17.333 2.16699 -28 6.5 -32s15.5 -6.66699 33.5 -8l27 -2
v-32h-282z" />
    <glyph glyph-name="Iogonek" unicode="&#x12e;" horiz-adv-x="422" 
d="M42 0v36l45 4c18 1.33301 29.833 5 35.5 11s8.5 18.667 8.5 38v580c0 19.333 -2.83301 32 -8.5 38s-17.5 9.66699 -35.5 11l-45 4v36h338v-36l-45 -4c-18 -1.33301 -29.833 -5 -35.5 -11s-8.5 -18.667 -8.5 -38v-580c0 -19.333 2.83301 -32 8.5 -38
s17.5 -9.66699 35.5 -11l45 -4v-36h-82c-45.333 -45.333 -68 -87 -68 -125s24 -57 72 -57c14.667 0 30.667 2 48 6v-31c-36 -18 -70 -27 -102 -27c-30 0 -55.833 7.66699 -77.5 23s-32.5 36 -32.5 62c0 24.667 12.667 50.167 38 76.5s56 50.5 92 72.5h-226z" />
    <glyph glyph-name="iogonek" unicode="&#x12f;" horiz-adv-x="337" 
d="M81 710c0 24.667 9.33301 46.334 28 65.001s40.334 28 65.001 28s46.5 -9.33301 65.5 -28s28.5 -40.334 28.5 -65.001c0 -25.333 -9.33301 -47.333 -28 -66s-40.667 -28 -66 -28c-24.667 0 -46.334 9.5 -65.001 28.5s-28 40.833 -28 65.5zM34 0v32l27 2
c18 1.33301 29.167 4 33.5 8s6.5 14.667 6.5 32v283l-76 72v6l224 94v-455c0 -17.333 2.16699 -28 6.5 -32s15.5 -6.66699 33.5 -8l27 -2v-32h-88c-45.333 -45.333 -68 -87 -68 -125s24 -57 72 -57c14.667 0 30.667 2 48 6v-31c-36 -18 -70 -27 -102 -27
c-30 0 -55.833 7.66699 -77.5 23s-32.5 36 -32.5 62c0 24.667 12.667 50.167 38 76.5s56 50.5 92 72.5h-164z" />
    <glyph glyph-name="Idotaccent" unicode="&#x130;" horiz-adv-x="422" 
d="M211 837c-20 0 -36.667 6.83301 -50 20.5s-20 30.5 -20 50.5c0 20.667 6.66699 37.667 20 51s30 20 50 20c19.333 0 35.833 -6.83301 49.5 -20.5s20.5 -30.5 20.5 -50.5s-6.83301 -36.833 -20.5 -50.5s-30.167 -20.5 -49.5 -20.5zM42 0v36l45 4
c18 1.33301 29.833 5 35.5 11s8.5 18.667 8.5 38v580c0 19.333 -2.83301 32 -8.5 38s-17.5 9.66699 -35.5 11l-45 4v36h338v-36l-45 -4c-18 -1.33301 -29.833 -5 -35.5 -11s-8.5 -18.667 -8.5 -38v-580c0 -19.333 2.83301 -32 8.5 -38s17.5 -9.66699 35.5 -11l45 -4v-36
h-338z" />
    <glyph glyph-name="dotlessi" unicode="&#x131;" horiz-adv-x="337" 
d="M34 0v32l27 2c18 1.33301 29.167 4 33.5 8s6.5 14.667 6.5 32v283l-76 72v6l224 94v-455c0 -17.333 2.16699 -28 6.5 -32s15.5 -6.66699 33.5 -8l27 -2v-32h-282z" />
    <glyph glyph-name="Jcircumflex" unicode="&#x134;" horiz-adv-x="414" 
d="M42 833l165 159h16l165 -159h-33l-140 64l-140 -64h-33zM10 -105l-23.002 30c30.667 26 51.334 43.833 62.001 53.5s23.834 23 39.501 40s25.5 31.667 29.5 44s7.83301 27.833 11.5 46.5s5.5 41 5.5 67v497c0 18 -2.5 29.333 -7.5 34s-16.5 7.33398 -34.5 8.00098l-53 2
v41h350v-41l-53 -2c-18 -0.666992 -29.5 -3.33398 -34.5 -8.00098s-7.5 -16 -7.5 -34v-459c0 -26 -2.5 -48.667 -7.5 -68s-14.333 -37.5 -28 -54.5s-25.5 -30 -35.5 -39s-26.667 -22.833 -50 -41.5c-15.333 -12 -70 -50.667 -164 -116z" />
    <glyph glyph-name="jcircumflex" unicode="&#x135;" horiz-adv-x="307" 
d="M-15 609l164 201h12l164 -201h-29l-141 86l-141 -86h-29zM-32 -263l-19 26.998c28 24.667 48.5 43.834 61.5 57.501s26.667 31.5 41 53.5s24 46 29 72s7.5 57.667 7.5 95v315l-76 72v6l224 94v-480c0 -51.333 -8.66699 -92.166 -26 -122.499s-45.333 -59.5 -84 -87.5
c-45.333 -32.667 -98 -66.667 -158 -102z" />
    <glyph glyph-name="Kcommaaccent" unicode="&#x136;" horiz-adv-x="824" 
d="M42 0l-0.000976562 36l45 4c18 1.33301 29.833 5 35.5 11s8.5 18.667 8.5 38v580c0 19.333 -2.83301 32 -8.5 38s-17.5 9.66699 -35.5 11l-45 4v36h338v-36l-45 -4c-18 -1.33301 -29.833 -5 -35.5 -11s-8.5 -18.667 -8.5 -38v-294l306 313
c7.33301 6.66699 9.33301 13.167 6 19.5s-12.333 9.83301 -27 10.5l-73 4v36h298v-36l-51 -3c-37.333 -2.66699 -66.666 -14.667 -87.999 -36l-226 -231l412 -452h-223l-334 367v-278c0 -19.333 2.83301 -32 8.5 -38s17.5 -9.66699 35.5 -11l45 -4v-36h-338zM408.999 -378
l-14 28.002c60.667 30 91 64 91 102c0 44.667 -30 72 -90 82c-0.666992 24.667 5.66602 44.167 18.999 58.5s32 21.5 56 21.5c30 0 55.167 -11 75.5 -33s30.5 -48 30.5 -78c0 -38.667 -16.167 -73.334 -48.5 -104.001s-72.166 -56.334 -119.499 -77.001z" />
    <glyph glyph-name="kcommaaccent" unicode="&#x137;" horiz-adv-x="625" 
d="M17 0v31.999l21 2c18 1.33301 30.167 5.33301 36.5 12s9.5 19 9.5 37v572l-76 64v6l224 77v-541l177 157c14 12.667 19.667 23.834 17 33.501s-12.667 15.167 -30 16.5l-38 2v32h239v-32l-27 -2c-20 -2 -36.667 -6.5 -50 -13.5s-30 -19.167 -50 -36.5l-106 -91l283 -327
h-199l-216 248v-165c0 -18 3.16699 -30.333 9.5 -37s18.5 -10.667 36.5 -12l21 -2v-32h-282zM277 -378.001l-14 28.002c60.667 30 91 64 91 102c0 44.667 -30 72 -90 82c-0.666992 24.667 5.66602 44.167 18.999 58.5s32 21.5 56 21.5c30 0 55.167 -11 75.5 -33
s30.5 -48 30.5 -78c0 -38.667 -16.167 -73.334 -48.5 -104.001s-72.166 -56.334 -119.499 -77.001z" />
    <glyph glyph-name="Lacute" unicode="&#x139;" horiz-adv-x="720" 
d="M193 843l99 129h183v-3l-251 -126h-31zM42 0v36l45 4c18 1.33301 29.833 5 35.5 11s8.5 18.667 8.5 38v580c0 19.333 -2.83301 32 -8.5 38s-17.5 9.66699 -35.5 11l-45 4v36h338v-36l-45 -4c-18 -1.33301 -29.833 -5 -35.5 -11s-8.5 -18.667 -8.5 -38v-623h187
c8.66699 0 14.5 0.833008 17.5 2.5s7.5 5.5 13.5 11.5l184 211h22l-75 -271h-598z" />
    <glyph glyph-name="lacute" unicode="&#x13a;" horiz-adv-x="324" 
d="M123 865l110 179h148v-11l-230 -168h-28zM21 0v32l27 2c18 1.33301 29.167 4 33.5 8s6.5 14.667 6.5 32v581l-76 64v6l224 77v-728c0 -17.333 2.16699 -28 6.5 -32s15.5 -6.66699 33.5 -8l27 -2v-32h-282z" />
    <glyph glyph-name="Lcommaaccent" unicode="&#x13b;" horiz-adv-x="720" 
d="M42 0v36l45 4c18 1.33301 29.833 5 35.5 11s8.5 18.667 8.5 38v580c0 19.333 -2.83301 32 -8.5 38s-17.5 9.66699 -35.5 11l-45 4v36h338v-36l-45 -4c-18 -1.33301 -29.833 -5 -35.5 -11s-8.5 -18.667 -8.5 -38v-623h187c8.66699 0 14.5 0.833008 17.5 2.5
s7.5 5.5 13.5 11.5l184 211h22l-75 -271h-598zM298 -378l-14 28.002c60.667 30 91 64 91 102c0 44.667 -30 72 -90 82c-0.666992 24.667 5.66602 44.167 18.999 58.5s32 21.5 56 21.5c30 0 55.167 -11 75.5 -33s30.5 -48 30.5 -78c0 -38.667 -16.167 -73.334 -48.5 -104.001
s-72.166 -56.334 -119.499 -77.001z" />
    <glyph glyph-name="lcommaaccent" unicode="&#x13c;" horiz-adv-x="324" 
d="M21 0v32l27 2c18 1.33301 29.167 4 33.5 8s6.5 14.667 6.5 32v581l-76 64v6l224 77v-728c0 -17.333 2.16699 -28 6.5 -32s15.5 -6.66699 33.5 -8l27 -2v-32h-282zM81 -378l-14 28.002c60.667 30 91 64 91 102c0 44.667 -30 72 -90 82
c-0.666992 24.667 5.66602 44.167 18.999 58.5s32 21.5 56 21.5c30 0 55.167 -11 75.5 -33s30.5 -48 30.5 -78c0 -38.667 -16.167 -73.334 -48.5 -104.001s-72.166 -56.334 -119.499 -77.001z" />
    <glyph glyph-name="Lcaron" unicode="&#x13d;" horiz-adv-x="720" 
d="M452 519l-14 28.002c60.667 30 91 64 91 102c0 44.667 -30 72 -90 82c-0.666992 24.667 5.66602 44.167 18.999 58.5s32 21.5 56 21.5c30 0 55.167 -11 75.5 -33s30.5 -48 30.5 -78c0 -38.667 -16.167 -73.334 -48.5 -104.001s-72.166 -56.334 -119.499 -77.001z
M42 0.00195312v36l45 4c18 1.33301 29.833 5 35.5 11s8.5 18.667 8.5 38v580c0 19.333 -2.83301 32 -8.5 38s-17.5 9.66699 -35.5 11l-45 4v36h338v-36l-45 -4c-18 -1.33301 -29.833 -5 -35.5 -11s-8.5 -18.667 -8.5 -38v-623h187c8.66699 0 14.5 0.833008 17.5 2.5
s7.5 5.5 13.5 11.5l184 211h22l-75 -271h-598z" />
    <glyph glyph-name="lcaron" unicode="&#x13e;" horiz-adv-x="364" 
d="M309 519l-14 28.002c60.667 30 91 64 91 102c0 44.667 -30 72 -90 82c-0.666992 24.667 5.66602 44.167 18.999 58.5s32 21.5 56 21.5c30 0 55.167 -11 75.5 -33s30.5 -48 30.5 -78c0 -38.667 -16.167 -73.334 -48.5 -104.001s-72.166 -56.334 -119.499 -77.001z
M21 0.00195312v32l27 2c18 1.33301 29.167 4 33.5 8s6.5 14.667 6.5 32v581l-76 64v6l224 77v-728c0 -17.333 2.16699 -28 6.5 -32s15.5 -6.66699 33.5 -8l27 -2v-32h-282z" />
    <glyph glyph-name="Ldot" unicode="&#x13f;" horiz-adv-x="720" 
d="M42 0v36l45 4c18 1.33301 29.833 5 35.5 11s8.5 18.667 8.5 38v580c0 19.333 -2.83301 32 -8.5 38s-17.5 9.66699 -35.5 11l-45 4v36h338v-36l-45 -4c-18 -1.33301 -29.833 -5 -35.5 -11s-8.5 -18.667 -8.5 -38v-623h187c8.66699 0 14.5 0.833008 17.5 2.5
s7.5 5.5 13.5 11.5l184 211h22l-75 -271h-598zM579 351c-20 0 -36.667 6.83301 -50 20.5s-20 30.5 -20 50.5c0 20.667 6.66699 37.667 20 51s30 20 50 20c19.333 0 35.833 -6.83301 49.5 -20.5s20.5 -30.5 20.5 -50.5s-6.83301 -36.833 -20.5 -50.5
s-30.167 -20.5 -49.5 -20.5z" />
    <glyph glyph-name="ldot" unicode="&#x140;" horiz-adv-x="434" 
d="M21 0v32l27 2c18 1.33301 29.167 4 33.5 8s6.5 14.667 6.5 32v581l-76 64v6l224 77v-728c0 -17.333 2.16699 -28 6.5 -32s15.5 -6.66699 33.5 -8l27 -2v-32h-282zM382 326c-19.333 0 -35.5 6.66699 -48.5 20s-19.5 29.666 -19.5 48.999c0 20 6.5 36.5 19.5 49.5
s29.167 19.5 48.5 19.5s35.5 -6.5 48.5 -19.5s19.5 -29.5 19.5 -49.5c0 -19.333 -6.5 -35.666 -19.5 -48.999s-29.167 -20 -48.5 -20z" />
    <glyph glyph-name="Lslash" unicode="&#x141;" horiz-adv-x="720" 
d="M42 0v36l45 4c18 1.33301 29.833 5 35.5 11s8.5 18.667 8.5 38v214l-136 -70v67l136 70v299c0 19.333 -2.83301 32 -8.5 38s-17.5 9.66699 -35.5 11l-45 4v36h338v-36l-45 -4c-18 -1.33301 -29.833 -5 -35.5 -11s-8.5 -18.667 -8.5 -38v-216l137 71v-67l-137 -71v-340
h187c8.66699 0 14.5 0.833008 17.5 2.5s7.5 5.5 13.5 11.5l184 211h22l-75 -271h-598z" />
    <glyph glyph-name="lslash" unicode="&#x142;" horiz-adv-x="404" 
d="M61 0v32l27 2c18 1.33301 29.167 4 33.5 8s6.5 14.667 6.5 32v249l-117 -62v60l117 62v272l-76 64v6l224 77v-342l117 62v-60l-117 -62v-326c0 -17.333 2.16699 -28 6.5 -32s15.5 -6.66699 33.5 -8l27 -2v-32h-282z" />
    <glyph glyph-name="Nacute" unicode="&#x143;" horiz-adv-x="877" 
d="M444 843l99 129h183v-3l-251 -126h-31zM46 0v36l45 4c18 1.33301 29.833 5 35.5 11s8.5 18.667 8.5 38v558l-101 109v2h210l456 -475v386c0 19.333 -2.83301 32 -8.5 38s-17.5 9.66699 -35.5 11l-45 4v36h234v-36l-45 -4c-18 -1.33301 -29.833 -5 -35.5 -11
s-8.5 -18.667 -8.5 -38v-686h-4l-561 604v-498c0 -19.333 2.83301 -32 8.5 -38s17.5 -9.66699 35.5 -11l45 -4v-36h-234z" />
    <glyph glyph-name="nacute" unicode="&#x144;" horiz-adv-x="621" 
d="M284 609l110 179h148v-11l-230 -168h-28zM30 0v32l27 2c18 1.33301 29.167 4 33.5 8s6.5 14.667 6.5 32v283l-76 72v6l224 94v-128c24 80 74.667 120 152 120c94.667 0 142 -62.333 142 -187v-260c0 -17.333 2.16699 -28 6.5 -32s15.5 -6.66699 33.5 -8l27 -2v-32h-271
v32l19 2c18 2 28.667 4.83301 32 8.5s5 14.167 5 31.5v232c0 48.667 -5.83301 82 -17.5 100s-28.5 27 -50.5 27c-52 0 -78 -42.667 -78 -128v-231c0 -17.333 1.66699 -27.833 5 -31.5s14 -6.5 32 -8.5l19 -2v-32h-271z" />
    <glyph glyph-name="Ncommaaccent" unicode="&#x145;" horiz-adv-x="877" 
d="M46 0v36l45 4c18 1.33301 29.833 5 35.5 11s8.5 18.667 8.5 38v558l-101 109v2h210l456 -475v386c0 19.333 -2.83301 32 -8.5 38s-17.5 9.66699 -35.5 11l-45 4v36h234v-36l-45 -4c-18 -1.33301 -29.833 -5 -35.5 -11s-8.5 -18.667 -8.5 -38v-686h-4l-561 604v-498
c0 -19.333 2.83301 -32 8.5 -38s17.5 -9.66699 35.5 -11l45 -4v-36h-234zM401 -378l-14 28.002c60.667 30 91 64 91 102c0 44.667 -30 72 -90 82c-0.666992 24.667 5.66602 44.167 18.999 58.5s32 21.5 56 21.5c30 0 55.167 -11 75.5 -33s30.5 -48 30.5 -78
c0 -38.667 -16.167 -73.334 -48.5 -104.001s-72.166 -56.334 -119.499 -77.001z" />
    <glyph glyph-name="ncommaaccent" unicode="&#x146;" horiz-adv-x="621" 
d="M30 0v32l27 2c18 1.33301 29.167 4 33.5 8s6.5 14.667 6.5 32v283l-76 72v6l224 94v-128c24 80 74.667 120 152 120c94.667 0 142 -62.333 142 -187v-260c0 -17.333 2.16699 -28 6.5 -32s15.5 -6.66699 33.5 -8l27 -2v-32h-271v32l19 2c18 2 28.667 4.83301 32 8.5
s5 14.167 5 31.5v232c0 48.667 -5.83301 82 -17.5 100s-28.5 27 -50.5 27c-52 0 -78 -42.667 -78 -128v-231c0 -17.333 1.66699 -27.833 5 -31.5s14 -6.5 32 -8.5l19 -2v-32h-271zM243 -378l-14 28.002c60.667 30 91 64 91 102c0 44.667 -30 72 -90 82
c-0.666992 24.667 5.66602 44.167 18.999 58.5s32 21.5 56 21.5c30 0 55.167 -11 75.5 -33s30.5 -48 30.5 -78c0 -38.667 -16.167 -73.334 -48.5 -104.001s-72.166 -56.334 -119.499 -77.001z" />
    <glyph glyph-name="Ncaron" unicode="&#x147;" horiz-adv-x="877" 
d="M289 992h33l140 -64l140 64h33l-165 -159h-16zM46 0v36l45 4c18 1.33301 29.833 5 35.5 11s8.5 18.667 8.5 38v558l-101 109v2h210l456 -475v386c0 19.333 -2.83301 32 -8.5 38s-17.5 9.66699 -35.5 11l-45 4v36h234v-36l-45 -4c-18 -1.33301 -29.833 -5 -35.5 -11
s-8.5 -18.667 -8.5 -38v-686h-4l-561 604v-498c0 -19.333 2.83301 -32 8.5 -38s17.5 -9.66699 35.5 -11l45 -4v-36h-234z" />
    <glyph glyph-name="ncaron" unicode="&#x148;" horiz-adv-x="621" 
d="M146 810h29l141 -86l141 86h29l-164 -201h-12zM30 0v32l27 2c18 1.33301 29.167 4 33.5 8s6.5 14.667 6.5 32v283l-76 72v6l224 94v-128c24 80 74.667 120 152 120c94.667 0 142 -62.333 142 -187v-260c0 -17.333 2.16699 -28 6.5 -32s15.5 -6.66699 33.5 -8l27 -2v-32
h-271v32l19 2c18 2 28.667 4.83301 32 8.5s5 14.167 5 31.5v232c0 48.667 -5.83301 82 -17.5 100s-28.5 27 -50.5 27c-52 0 -78 -42.667 -78 -128v-231c0 -17.333 1.66699 -27.833 5 -31.5s14 -6.5 32 -8.5l19 -2v-32h-271z" />
    <glyph glyph-name="Eng" unicode="&#x14a;" horiz-adv-x="877" 
d="M46 0v35.998l35 4c20 2 34 6.16699 42 12.5s12 18.5 12 36.5v558l-101 109v2h210l456 -475v386c0 18 -4 30.167 -12 36.5s-22 10.5 -42 12.5l-35 4v36h234v-36l-35 -4c-20 -2 -34 -6.16699 -42 -12.5s-12 -18.5 -12 -36.5v-620c0 -51.333 -8.66699 -92.166 -26 -122.499
s-45.333 -59.5 -84 -87.5c-45.333 -32.667 -98 -66.667 -158 -102l-19 27c28 24.667 48.5 43.834 61.5 57.501s26.667 31.5 41 53.5s24 46 29 72s7.5 57.667 7.5 95v96l-417 449v-498c0 -18 4 -30.167 12 -36.5s22 -10.5 42 -12.5l35 -4v-36h-234z" />
    <glyph glyph-name="eng" unicode="&#x14b;" horiz-adv-x="603" 
d="M397 521c94.667 0 142 -62.335 142 -187.002v-285c0 -51.333 -8.66699 -92.166 -26 -122.499s-45.333 -59.5 -84 -87.5c-45.333 -32.667 -98 -66.667 -158 -102l-19 27c28 24.667 48.5 43.834 61.5 57.501s26.667 31.5 41 53.5s24 46 29 72s7.5 57.667 7.5 95v264
c0 48.667 -5.83301 82 -17.5 100s-28.5 27 -50.5 27c-52 0 -78 -42.667 -78 -128v-231c0 -17.333 1.66699 -27.833 5 -31.5s14 -6.5 32 -8.5l19 -2v-32h-271v32l27 2c18 1.33301 29.167 4 33.5 8s6.5 14.667 6.5 32v283l-76 72v6l224 94v-128c24 80 74.667 120 152 120z" />
    <glyph glyph-name="Omacron" unicode="&#x14c;" horiz-adv-x="892" 
d="M289 872v68h314v-68h-314zM446 -13c-72.667 0 -139.667 15.333 -201 46s-111.5 76.5 -150.5 137.5s-58.5 131.833 -58.5 212.5s19.5 151.5 58.5 212.5s89.167 106.833 150.5 137.5s128.333 46 201 46s139.667 -15.333 201 -46s111.5 -76.5 150.5 -137.5
s58.5 -131.833 58.5 -212.5s-19.5 -151.5 -58.5 -212.5s-89.167 -106.833 -150.5 -137.5s-128.333 -46 -201 -46zM446 35c72.667 0 129.5 30.167 170.5 90.5s61.5 146.166 61.5 257.499s-20.5 197.166 -61.5 257.499s-97.833 90.5 -170.5 90.5s-129.5 -30.167 -170.5 -90.5
s-61.5 -146.166 -61.5 -257.499s20.5 -197.166 61.5 -257.499s97.833 -90.5 170.5 -90.5z" />
    <glyph glyph-name="omacron" unicode="&#x14d;" horiz-adv-x="616" 
d="M152 669v68h314v-68h-314zM306 -13c-81.333 0 -147.666 25.333 -198.999 76s-77 112.667 -77 186c0 79.333 26.833 144.5 80.5 195.5s120.167 76.5 199.5 76.5c81.333 0 147.666 -25.333 198.999 -76s77 -112.667 77 -186c0 -79.333 -26.833 -144.5 -80.5 -195.5
s-120.167 -76.5 -199.5 -76.5zM308 28c74 0 111 75.667 111 227s-37 227 -111 227c-75.333 0 -113 -75.667 -113 -227s37.667 -227 113 -227z" />
    <glyph glyph-name="Obreve" unicode="&#x14e;" horiz-adv-x="892" 
d="M446 827c-14.667 0 -29.498 2 -44.498 6s-31.333 11 -49 21s-32.834 26.5 -45.501 49.5s-20.667 50.833 -24 83.5h58c4.66699 -33.333 16.5 -59.333 35.5 -78s42.167 -28 69.5 -28s50.5 9.33301 69.5 28s30.833 44.667 35.5 78h58
c-3.33301 -32.667 -11.333 -60.5 -24 -83.5s-27.834 -39.5 -45.501 -49.5s-34 -17 -49 -21s-29.833 -6 -44.5 -6zM446.002 -13c-72.667 0 -139.667 15.333 -201 46s-111.5 76.5 -150.5 137.5s-58.5 131.833 -58.5 212.5s19.5 151.5 58.5 212.5s89.167 106.833 150.5 137.5
s128.333 46 201 46s139.667 -15.333 201 -46s111.5 -76.5 150.5 -137.5s58.5 -131.833 58.5 -212.5s-19.5 -151.5 -58.5 -212.5s-89.167 -106.833 -150.5 -137.5s-128.333 -46 -201 -46zM446.002 35c72.667 0 129.5 30.167 170.5 90.5s61.5 146.166 61.5 257.499
s-20.5 197.166 -61.5 257.499s-97.833 90.5 -170.5 90.5s-129.5 -30.167 -170.5 -90.5s-61.5 -146.166 -61.5 -257.499s20.5 -197.166 61.5 -257.499s97.833 -90.5 170.5 -90.5z" />
    <glyph glyph-name="obreve" unicode="&#x14f;" horiz-adv-x="616" 
d="M309 628c-14.667 0 -29.498 2 -44.498 6s-31.333 11 -49 21s-32.834 26.5 -45.501 49.5s-20.667 50.833 -24 83.5h58c4.66699 -33.333 16.5 -59.333 35.5 -78s42.167 -28 69.5 -28s50.5 9.33301 69.5 28s30.833 44.667 35.5 78h58
c-3.33301 -32.667 -11.333 -60.5 -24 -83.5s-27.834 -39.5 -45.501 -49.5s-34 -17 -49 -21s-29.833 -6 -44.5 -6zM306.002 -13c-81.333 0 -147.666 25.333 -198.999 76s-77 112.667 -77 186c0 79.333 26.833 144.5 80.5 195.5s120.167 76.5 199.5 76.5
c81.333 0 147.666 -25.333 198.999 -76s77 -112.667 77 -186c0 -79.333 -26.833 -144.5 -80.5 -195.5s-120.167 -76.5 -199.5 -76.5zM308.002 28c74 0 111 75.667 111 227s-37 227 -111 227c-75.333 0 -113 -75.667 -113 -227s37.667 -227 113 -227z" />
    <glyph glyph-name="Ohungarumlaut" unicode="&#x150;" horiz-adv-x="892" 
d="M348 843l99 129h183v-3l-251 -126h-31zM558 843l99 129h183v-3l-251 -126h-31zM446 -13c-72.667 0 -139.667 15.333 -201 46s-111.5 76.5 -150.5 137.5s-58.5 131.833 -58.5 212.5s19.5 151.5 58.5 212.5s89.167 106.833 150.5 137.5s128.333 46 201 46
s139.667 -15.333 201 -46s111.5 -76.5 150.5 -137.5s58.5 -131.833 58.5 -212.5s-19.5 -151.5 -58.5 -212.5s-89.167 -106.833 -150.5 -137.5s-128.333 -46 -201 -46zM446 35c72.667 0 129.5 30.167 170.5 90.5s61.5 146.166 61.5 257.499s-20.5 197.166 -61.5 257.499
s-97.833 90.5 -170.5 90.5s-129.5 -30.167 -170.5 -90.5s-61.5 -146.166 -61.5 -257.499s20.5 -197.166 61.5 -257.499s97.833 -90.5 170.5 -90.5z" />
    <glyph glyph-name="ohungarumlaut" unicode="&#x151;" horiz-adv-x="616" 
d="M208 609l110 179h148v-11l-230 -168h-28zM387 609l110 179h148v-11l-230 -168h-28zM306 -13c-81.333 0 -147.666 25.333 -198.999 76s-77 112.667 -77 186c0 79.333 26.833 144.5 80.5 195.5s120.167 76.5 199.5 76.5c81.333 0 147.666 -25.333 198.999 -76
s77 -112.667 77 -186c0 -79.333 -26.833 -144.5 -80.5 -195.5s-120.167 -76.5 -199.5 -76.5zM308 28c74 0 111 75.667 111 227s-37 227 -111 227c-75.333 0 -113 -75.667 -113 -227s37.667 -227 113 -227z" />
    <glyph glyph-name="OE" unicode="&#x152;" horiz-adv-x="1301" 
d="M446 -13c-72.667 0 -139.667 15.333 -201 46s-111.5 76.5 -150.5 137.5s-58.5 131.833 -58.5 212.5s19.5 151.5 58.5 212.5s89.167 106.833 150.5 137.5s128.333 46 201 46c98.667 0 181 -37.333 247 -112v91h477l37 -271h-12l-153 207c-6 8 -11 13 -15 15
s-11.333 3 -22 3h-182v-293h116c7.33301 0 13 3.66699 17 11l58 131h12v-336h-12l-58 131c-4 7.33301 -9.66699 11 -17 11h-116v-321h227c8.66699 0 14.5 0.833008 17.5 2.5s7.5 5.5 13.5 11.5l194 211h12l-75 -271h-519v99c-66 -74.667 -148.333 -112 -247 -112zM446 731
c-72.667 0 -129.5 -30.167 -170.5 -90.5s-61.5 -146.166 -61.5 -257.499s20.5 -197.166 61.5 -257.499s97.833 -90.5 170.5 -90.5s129.5 30.167 170.5 90.5s61.5 146.166 61.5 257.499s-20.5 197.166 -61.5 257.499s-97.833 90.5 -170.5 90.5z" />
    <glyph glyph-name="oe" unicode="&#x153;" horiz-adv-x="946" 
d="M730 87c36.667 0 70.668 9.99902 102.001 29.999s51.666 49.667 60.999 89h29c-11.333 -72 -39.333 -126.5 -84 -163.5s-103 -55.5 -175 -55.5c-84 0 -150.667 27.333 -200 82c-41.333 -54.667 -97 -82 -167 -82c-76.667 0 -140.167 25.5 -190.5 76.5
s-75.5 112.833 -75.5 185.5c0 78.667 26.333 143.667 79 195s116.334 77 191.001 77c71.333 0 128 -28.333 170 -85c51.333 56.667 114.666 85 189.999 85c64 0 117.333 -17.667 160 -53s70.667 -86.666 84 -153.999h-355c1.33301 -66.667 18 -121.167 50 -163.5
s75.667 -63.5 131 -63.5zM654.001 484.999c-28.667 0 -51.999 -11.168 -69.999 -33.501s-29 -54.166 -33 -95.499h189c-2.66699 86 -31.334 129 -86.001 129zM298.002 30.998c33.333 0 58.5 16.833 75.5 50.5s25.5 91.5 25.5 173.5s-8.5 139.833 -25.5 173.5
s-42.167 50.5 -75.5 50.5c-34 0 -59.667 -16.833 -77 -50.5s-26 -91.5 -26 -173.5s8.66699 -139.833 26 -173.5s43 -50.5 77 -50.5z" />
    <glyph glyph-name="Racute" unicode="&#x154;" horiz-adv-x="787" 
d="M355 843l99 129h183v-3l-251 -126h-31zM42 0v36l45 4c18 1.33301 29.833 5 35.5 11s8.5 18.667 8.5 38v580c0 19.333 -2.83301 32 -8.5 38s-17.5 9.66699 -35.5 11l-45 4v36h317c218 0 327 -60.333 327 -181c0 -43.333 -15.5 -82 -46.5 -116s-79.167 -57.333 -144.5 -70
l327 -391h-202l-305 369h-24v-280c0 -19.333 2.83301 -32 8.5 -38s17.5 -9.66699 35.5 -11l45 -4v-36h-338zM291 414h60c105.333 0 158 50 158 150s-52.667 150 -158 150h-60v-300z" />
    <glyph glyph-name="racute" unicode="&#x155;" horiz-adv-x="446" 
d="M262 609l110 179h148v-11l-230 -168h-28zM30 0v32.001l27 2c18 1.33301 29.167 4 33.5 8s6.5 14.667 6.5 32v283l-76 72v6l224 94v-173c25.333 105.333 83.333 158 174 158h10v-149l-53 7c-48.667 6.66699 -82.667 4.66699 -102 -6s-29 -28.334 -29 -53.001v-239
c0 -12 1.66699 -20.5 5 -25.5s7.5 -8.16699 12.5 -9.5s14.5 -2.33301 28.5 -3l51 -3v-33h-312z" />
    <glyph glyph-name="Rcommaaccent" unicode="&#x156;" horiz-adv-x="787" 
d="M42 0v36l45 4c18 1.33301 29.833 5 35.5 11s8.5 18.667 8.5 38v580c0 19.333 -2.83301 32 -8.5 38s-17.5 9.66699 -35.5 11l-45 4v36h317c218 0 327 -60.333 327 -181c0 -43.333 -15.5 -82 -46.5 -116s-79.167 -57.333 -144.5 -70l327 -391h-202l-305 369h-24v-280
c0 -19.333 2.83301 -32 8.5 -38s17.5 -9.66699 35.5 -11l45 -4v-36h-338zM291 414h60c105.333 0 158 50 158 150s-52.667 150 -158 150h-60v-300zM401 -378l-14 28.002c60.667 30 91 64 91 102c0 44.667 -30 72 -90 82c-0.666992 24.667 5.66602 44.167 18.999 58.5
s32 21.5 56 21.5c30 0 55.167 -11 75.5 -33s30.5 -48 30.5 -78c0 -38.667 -16.167 -73.334 -48.5 -104.001s-72.166 -56.334 -119.499 -77.001z" />
    <glyph glyph-name="rcommaaccent" unicode="&#x157;" horiz-adv-x="446" 
d="M30 0v32.001l27 2c18 1.33301 29.167 4 33.5 8s6.5 14.667 6.5 32v283l-76 72v6l224 94v-173c25.333 105.333 83.333 158 174 158h10v-149l-53 7c-48.667 6.66699 -82.667 4.66699 -102 -6s-29 -28.334 -29 -53.001v-239c0 -12 1.66699 -20.5 5 -25.5
s7.5 -8.16699 12.5 -9.5s14.5 -2.33301 28.5 -3l51 -3v-33h-312zM90 -377.999l-14 28.002c60.667 30 91 64 91 102c0 44.667 -30 72 -90 82c-0.666992 24.667 5.66602 44.167 18.999 58.5s32 21.5 56 21.5c30 0 55.167 -11 75.5 -33s30.5 -48 30.5 -78
c0 -38.667 -16.167 -73.334 -48.5 -104.001s-72.166 -56.334 -119.499 -77.001z" />
    <glyph glyph-name="Rcaron" unicode="&#x158;" horiz-adv-x="787" 
d="M200 992h33l140 -64l140 64h33l-165 -159h-16zM42 0v36l45 4c18 1.33301 29.833 5 35.5 11s8.5 18.667 8.5 38v580c0 19.333 -2.83301 32 -8.5 38s-17.5 9.66699 -35.5 11l-45 4v36h317c218 0 327 -60.333 327 -181c0 -43.333 -15.5 -82 -46.5 -116
s-79.167 -57.333 -144.5 -70l327 -391h-202l-305 369h-24v-280c0 -19.333 2.83301 -32 8.5 -38s17.5 -9.66699 35.5 -11l45 -4v-36h-338zM291 414h60c105.333 0 158 50 158 150s-52.667 150 -158 150h-60v-300z" />
    <glyph glyph-name="rcaron" unicode="&#x159;" horiz-adv-x="446" 
d="M124 810h29l141 -86l141 86h29l-164 -201h-12zM30 0v32.001l27 2c18 1.33301 29.167 4 33.5 8s6.5 14.667 6.5 32v283l-76 72v6l224 94v-173c25.333 105.333 83.333 158 174 158h10v-149l-53 7c-48.667 6.66699 -82.667 4.66699 -102 -6s-29 -28.334 -29 -53.001v-239
c0 -12 1.66699 -20.5 5 -25.5s7.5 -8.16699 12.5 -9.5s14.5 -2.33301 28.5 -3l51 -3v-33h-312z" />
    <glyph glyph-name="Sacute" unicode="&#x15a;" horiz-adv-x="632" 
d="M300 843l99 129h183v-3l-251 -126h-31zM310 -13c-84 0 -155.669 12.333 -215.002 37l-47 246h22l140 -196c12.667 -18.667 28.334 -30.334 47.001 -35.001c18 -4 37.333 -6 58 -6c42 0 77 10.167 105 30.5s42 49.5 42 87.5c0 37.333 -13.167 68.5 -39.5 93.5
s-66.5 45.833 -120.5 62.5l-54 17c-126.667 39.333 -190 118 -190 236c0 48 14.333 89.167 43 123.5s64.334 58.833 107.001 73.5s89.667 22 141 22c58 0 110.333 -9 157 -27l48 -235h-22l-140 186c-10.667 14.667 -22 23.334 -34 26.001c-10 2 -20.667 3 -32 3
c-40 0 -73.833 -10 -101.5 -30s-41.5 -48.333 -41.5 -85c0 -62 36.333 -104.667 109 -128l54 -17c80 -25.333 140.5 -57 181.5 -95s61.5 -90.333 61.5 -157c0 -70 -28.5 -126.333 -85.5 -169s-121.5 -64 -193.5 -64z" />
    <glyph glyph-name="sacute" unicode="&#x15b;" horiz-adv-x="472" 
d="M206 609l110 179h148v-11l-230 -168h-28zM209 -13c-47.333 0 -95.9961 8 -145.996 24l-16 178h22l76 -124l8 -11.5c2.66699 -3.66699 5.16699 -6.83398 7.5 -9.50098s5.16602 -5 8.49902 -7s6 -3.66699 8 -5s4.66699 -2.5 8 -3.5s5.83301 -1.66699 7.5 -2
s4.5 -0.666016 8.5 -0.999023s6.66699 -0.5 8 -0.5h8.5h8.5c24 0 44.333 6.66699 61 20s25 31 25 53c0 44 -25.667 71.667 -77 83l-53 12c-41.333 9.33301 -74 28.166 -98 56.499s-36 63.833 -36 106.5c0 50.667 21.167 90.834 63.5 120.501s92.833 44.5 151.5 44.5
c51.333 0 96 -6.66699 134 -20l19 -170h-22l-85 122c-6.66699 10 -13.834 17.333 -21.501 22s-14.334 7.5 -20.001 8.5s-13.834 1.5 -24.501 1.5c-24 0 -43.5 -6.5 -58.5 -19.5s-22.5 -30.833 -22.5 -53.5c0 -44.667 25.667 -72.667 77 -84l43 -9
c102.667 -22 154 -75.333 154 -160c0 -50 -21.5 -91.167 -64.5 -123.5s-97.167 -48.5 -162.5 -48.5z" />
    <glyph glyph-name="Scircumflex" unicode="&#x15c;" horiz-adv-x="632" 
d="M145 833l165 159h16l165 -159h-33l-140 64l-140 -64h-33zM310 -13c-84 0 -155.669 12.333 -215.002 37l-47 246h22l140 -196c12.667 -18.667 28.334 -30.334 47.001 -35.001c18 -4 37.333 -6 58 -6c42 0 77 10.167 105 30.5s42 49.5 42 87.5
c0 37.333 -13.167 68.5 -39.5 93.5s-66.5 45.833 -120.5 62.5l-54 17c-126.667 39.333 -190 118 -190 236c0 48 14.333 89.167 43 123.5s64.334 58.833 107.001 73.5s89.667 22 141 22c58 0 110.333 -9 157 -27l48 -235h-22l-140 186c-10.667 14.667 -22 23.334 -34 26.001
c-10 2 -20.667 3 -32 3c-40 0 -73.833 -10 -101.5 -30s-41.5 -48.333 -41.5 -85c0 -62 36.333 -104.667 109 -128l54 -17c80 -25.333 140.5 -57 181.5 -95s61.5 -90.333 61.5 -157c0 -70 -28.5 -126.333 -85.5 -169s-121.5 -64 -193.5 -64z" />
    <glyph glyph-name="scircumflex" unicode="&#x15d;" horiz-adv-x="472" 
d="M68 609l164 201h12l164 -201h-29l-141 86l-141 -86h-29zM209 -13c-47.333 0 -95.9961 8 -145.996 24l-16 178h22l76 -124l8 -11.5c2.66699 -3.66699 5.16699 -6.83398 7.5 -9.50098s5.16602 -5 8.49902 -7s6 -3.66699 8 -5s4.66699 -2.5 8 -3.5s5.83301 -1.66699 7.5 -2
s4.5 -0.666016 8.5 -0.999023s6.66699 -0.5 8 -0.5h8.5h8.5c24 0 44.333 6.66699 61 20s25 31 25 53c0 44 -25.667 71.667 -77 83l-53 12c-41.333 9.33301 -74 28.166 -98 56.499s-36 63.833 -36 106.5c0 50.667 21.167 90.834 63.5 120.501s92.833 44.5 151.5 44.5
c51.333 0 96 -6.66699 134 -20l19 -170h-22l-85 122c-6.66699 10 -13.834 17.333 -21.501 22s-14.334 7.5 -20.001 8.5s-13.834 1.5 -24.501 1.5c-24 0 -43.5 -6.5 -58.5 -19.5s-22.5 -30.833 -22.5 -53.5c0 -44.667 25.667 -72.667 77 -84l43 -9
c102.667 -22 154 -75.333 154 -160c0 -50 -21.5 -91.167 -64.5 -123.5s-97.167 -48.5 -162.5 -48.5z" />
    <glyph glyph-name="Scedilla" unicode="&#x15e;" horiz-adv-x="632" 
d="M252 -270c-23.333 0 -43.8359 4.5 -61.5029 13.5s-26.5 21.833 -26.5 38.5c0 12 4.83301 21.5 14.5 28.5s22.834 9.16699 39.501 6.5c0 -16.667 5.5 -30 16.5 -40s24.5 -15 40.5 -15c12 0 21.833 2.83301 29.5 8.5s11.5 12.834 11.5 21.501
c0 19.333 -38.667 46.333 -116 81l107 114c-83.333 0 -154 12.333 -212 37l-47 246h22l140 -196c12.667 -18.667 28.334 -30.334 47.001 -35.001c18 -4 37.333 -6 58 -6c42 0 77 10.167 105 30.5s42 49.5 42 87.5c0 37.333 -13.167 68.5 -39.5 93.5
s-66.5 45.833 -120.5 62.5l-54 17c-126.667 39.333 -190 118 -190 236c0 48 14.333 89.167 43 123.5s64.334 58.833 107.001 73.5s89.667 22 141 22c58 0 110.333 -9 157 -27l48 -235h-22l-140 186c-10.667 14.667 -22 23.334 -34 26.001c-10 2 -20.667 3 -32 3
c-40 0 -73.833 -10 -101.5 -30s-41.5 -48.333 -41.5 -85c0 -62 36.333 -104.667 109 -128l54 -17c80 -25.333 140.5 -57 181.5 -95s61.5 -90.333 61.5 -157c0 -62.667 -23.167 -114.5 -69.5 -155.5s-101.5 -65.833 -165.5 -74.5l-66 -70
c29.333 -15.333 50.166 -30 62.499 -44s18.5 -31.667 18.5 -53c0 -24.667 -10.667 -46.334 -32 -65.001s-49.666 -28 -84.999 -28z" />
    <glyph glyph-name="scedilla" unicode="&#x15f;" horiz-adv-x="472" 
d="M209 -13c-47.333 0 -95.9971 8 -145.997 24l-16 178h22l76 -124l8 -11.5c2.66699 -3.66699 5.16699 -6.83398 7.5 -9.50098s5.16602 -5 8.49902 -7s6 -3.66699 8 -5s4.66699 -2.5 8 -3.5s5.83301 -1.66699 7.5 -2s4.5 -0.666016 8.5 -0.999023s6.66699 -0.5 8 -0.5h8.5
h8.5c24 0 44.333 6.66699 61 20s25 31 25 53c0 44 -25.667 71.667 -77 83l-53 12c-41.333 9.33301 -74 28.166 -98 56.499s-36 63.833 -36 106.5c0 50.667 21.167 90.834 63.5 120.501s92.833 44.5 151.5 44.5c51.333 0 96 -6.66699 134 -20l19 -170h-22l-85 122
c-6.66699 10 -13.834 17.333 -21.501 22s-14.334 7.5 -20.001 8.5s-13.834 1.5 -24.501 1.5c-24 0 -43.5 -6.5 -58.5 -19.5s-22.5 -30.833 -22.5 -53.5c0 -44.667 25.667 -72.667 77 -84l43 -9c102.667 -22 154 -75.333 154 -160c0 -43.333 -16.5 -80.333 -49.5 -111
s-76.167 -50 -129.5 -58l-61 -65c29.333 -15.333 50.166 -30 62.499 -44s18.5 -31.667 18.5 -53c0 -24.667 -10.667 -46.334 -32 -65.001s-49.666 -28 -84.999 -28c-23.333 0 -43.833 4.5 -61.5 13.5s-26.5 21.833 -26.5 38.5c0 12 4.83301 21.5 14.5 28.5
s22.834 9.16699 39.501 6.5c0 -16.667 5.5 -30 16.5 -40s24.5 -15 40.5 -15c12 0 21.833 2.83301 29.5 8.5s11.5 12.834 11.5 21.501c0 19.333 -38.667 46.333 -116 81l102 109h-1z" />
    <glyph glyph-name="Scaron" unicode="&#x160;" horiz-adv-x="632" 
d="M145 992h33l140 -64l140 64h33l-165 -159h-16zM310 -13c-84 0 -155.669 12.333 -215.002 37l-47 246h22l140 -196c12.667 -18.667 28.334 -30.334 47.001 -35.001c18 -4 37.333 -6 58 -6c42 0 77 10.167 105 30.5s42 49.5 42 87.5c0 37.333 -13.167 68.5 -39.5 93.5
s-66.5 45.833 -120.5 62.5l-54 17c-126.667 39.333 -190 118 -190 236c0 48 14.333 89.167 43 123.5s64.334 58.833 107.001 73.5s89.667 22 141 22c58 0 110.333 -9 157 -27l48 -235h-22l-140 186c-10.667 14.667 -22 23.334 -34 26.001c-10 2 -20.667 3 -32 3
c-40 0 -73.833 -10 -101.5 -30s-41.5 -48.333 -41.5 -85c0 -62 36.333 -104.667 109 -128l54 -17c80 -25.333 140.5 -57 181.5 -95s61.5 -90.333 61.5 -157c0 -70 -28.5 -126.333 -85.5 -169s-121.5 -64 -193.5 -64z" />
    <glyph glyph-name="scaron" unicode="&#x161;" horiz-adv-x="472" 
d="M68 810h29l141 -86l141 86h29l-164 -201h-12zM209 -13c-47.333 0 -95.9961 8 -145.996 24l-16 178h22l76 -124l8 -11.5c2.66699 -3.66699 5.16699 -6.83398 7.5 -9.50098s5.16602 -5 8.49902 -7s6 -3.66699 8 -5s4.66699 -2.5 8 -3.5s5.83301 -1.66699 7.5 -2
s4.5 -0.666016 8.5 -0.999023s6.66699 -0.5 8 -0.5h8.5h8.5c24 0 44.333 6.66699 61 20s25 31 25 53c0 44 -25.667 71.667 -77 83l-53 12c-41.333 9.33301 -74 28.166 -98 56.499s-36 63.833 -36 106.5c0 50.667 21.167 90.834 63.5 120.501s92.833 44.5 151.5 44.5
c51.333 0 96 -6.66699 134 -20l19 -170h-22l-85 122c-6.66699 10 -13.834 17.333 -21.501 22s-14.334 7.5 -20.001 8.5s-13.834 1.5 -24.501 1.5c-24 0 -43.5 -6.5 -58.5 -19.5s-22.5 -30.833 -22.5 -53.5c0 -44.667 25.667 -72.667 77 -84l43 -9
c102.667 -22 154 -75.333 154 -160c0 -50 -21.5 -91.167 -64.5 -123.5s-97.167 -48.5 -162.5 -48.5z" />
    <glyph glyph-name="uni0162" unicode="&#x162;" horiz-adv-x="774" 
d="M193 0l-0.00195312 38l70 4c18 1.33301 29.833 4.66602 35.5 9.99902s8.5 17.666 8.5 36.999v628h-107c-11.333 0 -19.166 -1 -23.499 -3s-8.83301 -7 -13.5 -15l-128 -212h-22l22 271h704l22 -271h-22l-128 212c-4.66699 8 -9.16699 13 -13.5 15s-12.166 3 -23.499 3
h-107v-628c0 -19.333 2.83301 -31.666 8.5 -36.999s17.5 -8.66602 35.5 -9.99902l70 -4v-38h-388zM310.998 -378l-14 28.002c60.667 30 91 64 91 102c0 44.667 -30 72 -90 82c-0.666992 24.667 5.66602 44.167 18.999 58.5s32 21.5 56 21.5c30 0 55.167 -11 75.5 -33
s30.5 -48 30.5 -78c0 -38.667 -16.167 -73.334 -48.5 -104.001s-72.166 -56.334 -119.499 -77.001z" />
    <glyph glyph-name="uni0163" unicode="&#x163;" horiz-adv-x="429" 
d="M231 -7c-44.667 0 -78 8.66797 -100 26.001s-33 50.666 -33 99.999v306h-101v6l242 200h7v-129h200l-48 -77h-152v-272c0 -36 5.66699 -61 17 -75s29 -21 53 -21c24.667 0 51.667 9.66699 81 29l16 -26c-22 -18 -49.333 -33.667 -82 -47s-66 -20 -100 -20zM133 -377.999
l-14 28.002c60.667 30 91 64 91 102c0 44.667 -30 72 -90 82c-0.666992 24.667 5.66602 44.167 18.999 58.5s32 21.5 56 21.5c30 0 55.167 -11 75.5 -33s30.5 -48 30.5 -78c0 -38.667 -16.167 -73.334 -48.5 -104.001s-72.166 -56.334 -119.499 -77.001z" />
    <glyph glyph-name="Tcaron" unicode="&#x164;" horiz-adv-x="774" 
d="M214 992h33l140 -64l140 64h33l-165 -159h-16zM193 0l-0.00195312 38l70 4c18 1.33301 29.833 4.66602 35.5 9.99902s8.5 17.666 8.5 36.999v628h-107c-11.333 0 -19.166 -1 -23.499 -3s-8.83301 -7 -13.5 -15l-128 -212h-22l22 271h704l22 -271h-22l-128 212
c-4.66699 8 -9.16699 13 -13.5 15s-12.166 3 -23.499 3h-107v-628c0 -19.333 2.83301 -31.666 8.5 -36.999s17.5 -8.66602 35.5 -9.99902l70 -4v-38h-388z" />
    <glyph glyph-name="tcaron" unicode="&#x165;" horiz-adv-x="429" 
d="M341 585l-14 28.002c60.667 30 91 64 91 102c0 44.667 -30 72 -90 82c-0.666992 24.667 5.66602 44.167 18.999 58.5s32 21.5 56 21.5c30 0 55.167 -11 75.5 -33s30.5 -48 30.5 -78c0 -38.667 -16.167 -73.334 -48.5 -104.001s-72.166 -56.334 -119.499 -77.001z
M231 -6.99805c-44.667 0 -78 8.66797 -100 26.001s-33 50.666 -33 99.999v306h-101v6l242 200h7v-129h200l-48 -77h-152v-272c0 -36 5.66699 -61 17 -75s29 -21 53 -21c24.667 0 51.667 9.66699 81 29l16 -26c-22 -18 -49.333 -33.667 -82 -47s-66 -20 -100 -20z" />
    <glyph glyph-name="Tbar" unicode="&#x166;" horiz-adv-x="774" 
d="M193 0l-0.00195312 38l70 4c18 1.33301 29.833 4.66602 35.5 9.99902s8.5 17.666 8.5 36.999v279h-170v59h170v290h-107c-11.333 0 -19.166 -1 -23.499 -3s-8.83301 -7 -13.5 -15l-128 -212h-22l22 271h704l22 -271h-22l-128 212c-4.66699 8 -9.16699 13 -13.5 15
s-12.166 3 -23.499 3h-107v-290h171v-59h-171v-279c0 -19.333 2.83301 -31.666 8.5 -36.999s17.5 -8.66602 35.5 -9.99902l70 -4v-38h-388z" />
    <glyph glyph-name="tbar" unicode="&#x167;" horiz-adv-x="469" 
d="M251 -7c-44.667 0 -78 8.66797 -100 26.001s-33 50.666 -33 99.999v180h-77v51h77v75h-101v6l242 200h7v-129h200l-48 -77h-152v-75h152v-51h-152v-146c0 -36 5.66699 -61 17 -75s29 -21 53 -21c25.333 0 52.333 9.66699 81 29l16 -26c-22 -18 -49.333 -33.667 -82 -47
s-66 -20 -100 -20z" />
    <glyph glyph-name="Utilde" unicode="&#x168;" horiz-adv-x="855" 
d="M534 829c-23.333 0 -51.165 9.66602 -83.498 28.999s-56.833 29 -73.5 29c-34 0 -52.667 -18 -56 -54h-21c0 40.667 8 75.334 24 104.001s40 43 72 43c19.333 0 45.833 -9.66699 79.5 -29s57.5 -29 71.5 -29c34 0 52 16.667 54 50h21
c-0.666992 -50 -9.33398 -86.333 -26.001 -109s-37.334 -34 -62.001 -34zM433.001 -13.001c-215.333 0 -323 102.667 -323 308v374c0 19.333 -2.83301 32 -8.5 38s-17.5 9.66699 -35.5 11l-45 4v36h338v-36l-45 -4c-18 -1.33301 -29.833 -5 -35.5 -11s-8.5 -18.667 -8.5 -38
v-377c0 -84.667 17 -144.5 51 -179.5s85.333 -52.5 154 -52.5c143.333 0 215 82 215 246v363c0 19.333 -2.83301 32 -8.5 38s-17.5 9.66699 -35.5 11l-45 4v36h234v-36l-45 -4c-18 -1.33301 -29.833 -5 -35.5 -11s-8.5 -18.667 -8.5 -38v-373c0 -100 -27 -176.5 -81 -229.5
s-131.333 -79.5 -232 -79.5z" />
    <glyph glyph-name="utilde" unicode="&#x169;" horiz-adv-x="610" 
d="M373 645c-23.333 0 -51.165 9.66602 -83.498 28.999s-56.833 29 -73.5 29c-34 0 -52.667 -18 -56 -54h-21c0 40.667 8 75.334 24 104.001s40 43 72 43c19.333 0 45.833 -9.66699 79.5 -29s57.5 -29 71.5 -29c34 0 52 16.667 54 50h21
c-0.666992 -50 -9.33398 -86.333 -26.001 -109s-37.334 -34 -62.001 -34zM224.001 -13.001c-94.667 0 -142 62.333 -142 187v271l-65 25v32h213v-300c0 -48.667 5.83301 -82 17.5 -100s28.5 -27 50.5 -27c52 0 78 42.667 78 128v242l-65 25v32h213v-436h73v-32l-221 -45v118
c-24 -80 -74.667 -120 -152 -120z" />
    <glyph glyph-name="Umacron" unicode="&#x16a;" horiz-adv-x="855" 
d="M304 872v68h314v-68h-314zM433 -13c-215.333 0 -323 102.667 -323 308v374c0 19.333 -2.83301 32 -8.5 38s-17.5 9.66699 -35.5 11l-45 4v36h338v-36l-45 -4c-18 -1.33301 -29.833 -5 -35.5 -11s-8.5 -18.667 -8.5 -38v-377c0 -84.667 17 -144.5 51 -179.5
s85.333 -52.5 154 -52.5c143.333 0 215 82 215 246v363c0 19.333 -2.83301 32 -8.5 38s-17.5 9.66699 -35.5 11l-45 4v36h234v-36l-45 -4c-18 -1.33301 -29.833 -5 -35.5 -11s-8.5 -18.667 -8.5 -38v-373c0 -100 -27 -176.5 -81 -229.5s-131.333 -79.5 -232 -79.5z" />
    <glyph glyph-name="umacron" unicode="&#x16b;" horiz-adv-x="610" 
d="M143 669v68h314v-68h-314zM224 -13c-94.667 0 -142 62.333 -142 187v271l-65 25v32h213v-300c0 -48.667 5.83301 -82 17.5 -100s28.5 -27 50.5 -27c52 0 78 42.667 78 128v242l-65 25v32h213v-436h73v-32l-221 -45v118c-24 -80 -74.667 -120 -152 -120z" />
    <glyph glyph-name="Ubreve" unicode="&#x16c;" horiz-adv-x="855" 
d="M461 827c-14.667 0 -29.498 2 -44.498 6s-31.333 11 -49 21s-32.834 26.5 -45.501 49.5s-20.667 50.833 -24 83.5h58c4.66699 -33.333 16.5 -59.333 35.5 -78s42.167 -28 69.5 -28s50.5 9.33301 69.5 28s30.833 44.667 35.5 78h58
c-3.33301 -32.667 -11.333 -60.5 -24 -83.5s-27.834 -39.5 -45.501 -49.5s-34 -17 -49 -21s-29.833 -6 -44.5 -6zM433.002 -13c-215.333 0 -323 102.667 -323 308v374c0 19.333 -2.83301 32 -8.5 38s-17.5 9.66699 -35.5 11l-45 4v36h338v-36l-45 -4
c-18 -1.33301 -29.833 -5 -35.5 -11s-8.5 -18.667 -8.5 -38v-377c0 -84.667 17 -144.5 51 -179.5s85.333 -52.5 154 -52.5c143.333 0 215 82 215 246v363c0 19.333 -2.83301 32 -8.5 38s-17.5 9.66699 -35.5 11l-45 4v36h234v-36l-45 -4c-18 -1.33301 -29.833 -5 -35.5 -11
s-8.5 -18.667 -8.5 -38v-373c0 -100 -27 -176.5 -81 -229.5s-131.333 -79.5 -232 -79.5z" />
    <glyph glyph-name="ubreve" unicode="&#x16d;" horiz-adv-x="610" 
d="M300 628c-14.667 0 -29.498 2 -44.498 6s-31.333 11 -49 21s-32.834 26.5 -45.501 49.5s-20.667 50.833 -24 83.5h58c4.66699 -33.333 16.5 -59.333 35.5 -78s42.167 -28 69.5 -28s50.5 9.33301 69.5 28s30.833 44.667 35.5 78h58
c-3.33301 -32.667 -11.333 -60.5 -24 -83.5s-27.834 -39.5 -45.501 -49.5s-34 -17 -49 -21s-29.833 -6 -44.5 -6zM224.002 -13c-94.667 0 -142 62.333 -142 187v271l-65 25v32h213v-300c0 -48.667 5.83301 -82 17.5 -100s28.5 -27 50.5 -27c52 0 78 42.667 78 128v242
l-65 25v32h213v-436h73v-32l-221 -45v118c-24 -80 -74.667 -120 -152 -120z" />
    <glyph glyph-name="Uring" unicode="&#x16e;" horiz-adv-x="855" 
d="M461 837c-34 0 -63.167 11.667 -87.5 35s-36.5 51.666 -36.5 84.999s12.167 61.833 36.5 85.5s53.5 35.5 87.5 35.5c35.333 0 65.333 -11.833 90 -35.5s37 -52.167 37 -85.5s-12.333 -61.666 -37 -84.999s-54.667 -35 -90 -35zM461 890c20.667 0 36.834 6 48.501 18
s17.5 28.333 17.5 49s-5.83301 36.834 -17.5 48.501s-27.834 17.5 -48.501 17.5c-20 0 -35.833 -5.83301 -47.5 -17.5s-17.5 -27.834 -17.5 -48.501s5.83301 -37 17.5 -49s27.5 -18 47.5 -18zM433 -13c-215.333 0 -323 102.667 -323 308v374c0 19.333 -2.83301 32 -8.5 38
s-17.5 9.66699 -35.5 11l-45 4v36h338v-36l-45 -4c-18 -1.33301 -29.833 -5 -35.5 -11s-8.5 -18.667 -8.5 -38v-377c0 -84.667 17 -144.5 51 -179.5s85.333 -52.5 154 -52.5c143.333 0 215 82 215 246v363c0 19.333 -2.83301 32 -8.5 38s-17.5 9.66699 -35.5 11l-45 4v36
h234v-36l-45 -4c-18 -1.33301 -29.833 -5 -35.5 -11s-8.5 -18.667 -8.5 -38v-373c0 -100 -27 -176.5 -81 -229.5s-131.333 -79.5 -232 -79.5z" />
    <glyph glyph-name="uring" unicode="&#x16f;" horiz-adv-x="610" 
d="M300 585c-34 0 -63.167 11.667 -87.5 35s-36.5 51.666 -36.5 84.999s12.167 61.833 36.5 85.5s53.5 35.5 87.5 35.5c35.333 0 65.333 -11.833 90 -35.5s37 -52.167 37 -85.5s-12.333 -61.666 -37 -84.999s-54.667 -35 -90 -35zM300 638c20.667 0 36.834 6 48.501 18
s17.5 28.333 17.5 49s-5.83301 36.834 -17.5 48.501s-27.834 17.5 -48.501 17.5c-20 0 -35.833 -5.83301 -47.5 -17.5s-17.5 -27.834 -17.5 -48.501s5.83301 -37 17.5 -49s27.5 -18 47.5 -18zM224 -13c-94.667 0 -142 62.333 -142 187v271l-65 25v32h213v-300
c0 -48.667 5.83301 -82 17.5 -100s28.5 -27 50.5 -27c52 0 78 42.667 78 128v242l-65 25v32h213v-436h73v-32l-221 -45v118c-24 -80 -74.667 -120 -152 -120z" />
    <glyph glyph-name="Uhungarumlaut" unicode="&#x170;" horiz-adv-x="855" 
d="M363 843l99 129h183v-3l-251 -126h-31zM573 843l99 129h183v-3l-251 -126h-31zM433 -13c-215.333 0 -323 102.667 -323 308v374c0 19.333 -2.83301 32 -8.5 38s-17.5 9.66699 -35.5 11l-45 4v36h338v-36l-45 -4c-18 -1.33301 -29.833 -5 -35.5 -11s-8.5 -18.667 -8.5 -38
v-377c0 -84.667 17 -144.5 51 -179.5s85.333 -52.5 154 -52.5c143.333 0 215 82 215 246v363c0 19.333 -2.83301 32 -8.5 38s-17.5 9.66699 -35.5 11l-45 4v36h234v-36l-45 -4c-18 -1.33301 -29.833 -5 -35.5 -11s-8.5 -18.667 -8.5 -38v-373c0 -100 -27 -176.5 -81 -229.5
s-131.333 -79.5 -232 -79.5z" />
    <glyph glyph-name="uhungarumlaut" unicode="&#x171;" horiz-adv-x="610" 
d="M199 609l110 179h148v-11l-230 -168h-28zM378 609l110 179h148v-11l-230 -168h-28zM224 -13c-94.667 0 -142 62.333 -142 187v271l-65 25v32h213v-300c0 -48.667 5.83301 -82 17.5 -100s28.5 -27 50.5 -27c52 0 78 42.667 78 128v242l-65 25v32h213v-436h73v-32l-221 -45
v118c-24 -80 -74.667 -120 -152 -120z" />
    <glyph glyph-name="Uogonek" unicode="&#x172;" horiz-adv-x="855" 
d="M433 -13c-215.333 0 -323.001 102.667 -323.001 308v374c0 19.333 -2.83301 32 -8.5 38s-17.5 9.66699 -35.5 11l-45 4v36h338v-36l-45 -4c-18 -1.33301 -29.833 -5 -35.5 -11s-8.5 -18.667 -8.5 -38v-377c0 -84.667 17 -144.5 51 -179.5s85.333 -52.5 154 -52.5
c143.333 0 215 82 215 246v363c0 19.333 -2.83301 32 -8.5 38s-17.5 9.66699 -35.5 11l-45 4v36h234v-36l-45 -4c-18 -1.33301 -29.833 -5 -35.5 -11s-8.5 -18.667 -8.5 -38v-373c0 -83.333 -18.833 -150.333 -56.5 -201s-92.167 -83.667 -163.5 -99
c-40 -42.667 -60 -83 -60 -121s24 -57 72 -57c14.667 0 30.667 2 48 6v-31c-36 -18 -70 -27 -102 -27c-30 0 -55.833 7.66699 -77.5 23s-32.5 36 -32.5 62c0 42.667 38 89 114 139c-17.333 -2 -35.666 -3 -54.999 -3z" />
    <glyph glyph-name="uogonek" unicode="&#x173;" horiz-adv-x="610" 
d="M224 -13c-94.667 0 -142 62.333 -142 187v271l-65 25v32h213v-300c0 -48.667 5.83301 -82 17.5 -100s28.5 -27 50.5 -27c52 0 78 42.667 78 128v242l-65 25v32h213v-436h73v-32l-194 -39c-34.667 -41.333 -52 -78.333 -52 -111c0 -38 24 -57 72 -57
c15.333 0 31.333 2 48 6v-31c-36 -18 -70 -27 -102 -27c-30 0 -55.833 7.66699 -77.5 23s-32.5 36 -32.5 62c0 43.333 39 90.333 117 141v106c-24 -80 -74.667 -120 -152 -120z" />
    <glyph glyph-name="Wcircumflex" unicode="&#x174;" horiz-adv-x="1171" 
d="M412 833l165 159h16l165 -159h-33l-140 64l-140 -64h-33zM373 -31l-301 704c-7.33301 16.667 -15.166 27.834 -23.499 33.501s-21.833 9.5 -40.5 11.5l-33 4v36h345v-36l-43 -4c-18.667 -1.33301 -30.5 -4.83301 -35.5 -10.5s-4.5 -17.167 1.5 -34.5l196 -469l127 295
l-103 259h322v-36l-81 -4c-18.667 -1.33301 -30.334 -4.83301 -35.001 -10.5s-4.33398 -17.167 0.999023 -34.5l173 -469l198 469c6 17.333 6.5 28.833 1.5 34.5s-16.833 9.16699 -35.5 10.5l-43 4v36h232v-36l-33 -4c-18.667 -2 -32.167 -5.83301 -40.5 -11.5
s-16.166 -16.834 -23.499 -33.501l-302 -704h-20l-184 464l-200 -464h-20z" />
    <glyph glyph-name="wcircumflex" unicode="&#x175;" horiz-adv-x="866" 
d="M265 609l164 201h12l164 -201h-29l-141 86l-141 -86h-29zM254 -12l-187.998 424.999c-8.66699 20 -16.5 33.667 -23.5 41s-18.833 12 -35.5 14l-16 2v32h286v-32l-21 -2c-34.667 -2.66699 -45.334 -19 -32.001 -49l108 -242l75 170l-68 155h250v-32l-21 -2
c-34.667 -2.66699 -45.334 -19 -32.001 -49l108 -241l92 213c20 46.667 11 72 -27 76l-28 3v32h199v-32l-20 -2c-17.333 -2 -30.5 -7.16699 -39.5 -15.5s-18.5 -23.166 -28.5 -44.499l-186 -420h-40l-136 307l-136 -307h-40z" />
    <glyph glyph-name="Ycircumflex" unicode="&#x176;" horiz-adv-x="760" 
d="M254 833l165 159h16l165 -159h-33l-140 64l-140 -64h-33zM186 0l-0.00195312 37.999l70 4c18 1.33301 29.833 4.66602 35.5 9.99902s8.5 17.666 8.5 36.999v253l-220 331c-11.333 17.333 -20.666 28.666 -27.999 33.999s-19.333 9 -36 11l-33 4v36h350v-36l-43 -4
c-40 -3.33301 -51.333 -18.333 -34 -45l180 -276l184 276c8.66699 16.667 10 27.834 4 33.501s-18.667 9.5 -38 11.5l-43 4v36h234v-36l-33 -4c-16.667 -2 -28.667 -5.66699 -36 -11s-16.666 -16.666 -27.999 -33.999l-220 -332v-252c0 -19.333 2.83301 -31.666 8.5 -36.999
s17.5 -8.66602 35.5 -9.99902l70 -4v-38h-388z" />
    <glyph glyph-name="ycircumflex" unicode="&#x177;" horiz-adv-x="555" 
d="M146 609l164 201h12l164 -201h-29l-141 86l-141 -86h-29zM210 -88l38 83l-179 418c-8.66699 20 -16.5 33.667 -23.5 41s-18.833 12 -35.5 14l-16 2v32h286v-32l-21 -2c-34 -2.66699 -44.667 -19 -32 -49l102 -247l99 219c20.667 46 11.667 71.333 -27 76l-28 3v32h198
v-32l-20 -2c-17.333 -2 -30.5 -7.16699 -39.5 -15.5s-18.5 -23.166 -28.5 -44.499l-248 -542c-20.667 -44 -40 -75.167 -58 -93.5s-40.667 -27.5 -68 -27.5c-21.333 0 -38.5 7.16699 -51.5 21.5s-19.5 32.166 -19.5 53.499c0 30 15.833 54.167 47.5 72.5
s73.167 24.833 124.5 19.5z" />
    <glyph glyph-name="Ydieresis" unicode="&#x178;" horiz-adv-x="760" 
d="M314 837c-20 0 -36.667 6.83301 -50 20.5s-20 30.5 -20 50.5c0 20.667 6.66699 37.667 20 51s30 20 50 20s36.667 -6.83301 50 -20.5s20 -30.5 20 -50.5s-6.83301 -36.833 -20.5 -50.5s-30.167 -20.5 -49.5 -20.5zM540 837c-20 0 -36.667 6.83301 -50 20.5
s-20 30.5 -20 50.5c0 20.667 6.66699 37.667 20 51s30 20 50 20s36.667 -6.83301 50 -20.5s20 -30.5 20 -50.5s-6.83301 -36.833 -20.5 -50.5s-30.167 -20.5 -49.5 -20.5zM186 0l-0.00195312 37.999l70 4c18 1.33301 29.833 4.66602 35.5 9.99902s8.5 17.666 8.5 36.999v253
l-220 331c-11.333 17.333 -20.666 28.666 -27.999 33.999s-19.333 9 -36 11l-33 4v36h350v-36l-43 -4c-40 -3.33301 -51.333 -18.333 -34 -45l180 -276l184 276c8.66699 16.667 10 27.834 4 33.501s-18.667 9.5 -38 11.5l-43 4v36h234v-36l-33 -4
c-16.667 -2 -28.667 -5.66699 -36 -11s-16.666 -16.666 -27.999 -33.999l-220 -332v-252c0 -19.333 2.83301 -31.666 8.5 -36.999s17.5 -8.66602 35.5 -9.99902l70 -4v-38h-388z" />
    <glyph glyph-name="Zacute" unicode="&#x179;" horiz-adv-x="730" 
d="M368 843l99 129h183v-3l-251 -126h-31zM10 0v12l484 702h-210c-10 0 -17 -1 -21 -3s-9.33301 -7 -16 -15l-183 -209h-22l77 271h572v-12l-481 -702h262c10 0 17 1 21 3s9.33301 7 16 15l183 209h22l-77 -271h-627z" />
    <glyph glyph-name="zacute" unicode="&#x17a;" horiz-adv-x="547" 
d="M254 609l110 179h148v-11l-230 -168h-28zM21 0l301.999 461.999h-110c-27.333 0 -46.666 -8.66699 -57.999 -26l-101 -152h-22l41 218h443l-301 -462h101c16 0 28 1.83301 36 5.5s17.333 11.834 28 24.501l128 155h22l-67 -225h-442z" />
    <glyph glyph-name="Zdotaccent" unicode="&#x17b;" horiz-adv-x="730" 
d="M386 837c-20 0 -36.667 6.83301 -50 20.5s-20 30.5 -20 50.5c0 20.667 6.66699 37.667 20 51s30 20 50 20s36.667 -6.83301 50 -20.5s20 -30.5 20 -50.5s-6.83301 -36.833 -20.5 -50.5s-30.167 -20.5 -49.5 -20.5zM10 0v12l484 702h-210c-10 0 -17 -1 -21 -3
s-9.33301 -7 -16 -15l-183 -209h-22l77 271h572v-12l-481 -702h262c10 0 17 1 21 3s9.33301 7 16 15l183 209h22l-77 -271h-627z" />
    <glyph glyph-name="zdotaccent" unicode="&#x17c;" horiz-adv-x="547" 
d="M286 636c-19.333 0 -35.5 6.66699 -48.5 20s-19.5 29.666 -19.5 48.999c0 20 6.5 36.5 19.5 49.5s29.167 19.5 48.5 19.5s35.5 -6.5 48.5 -19.5s19.5 -29.5 19.5 -49.5c0 -19.333 -6.5 -35.666 -19.5 -48.999s-29.167 -20 -48.5 -20zM21 0l301.999 461.999h-110
c-27.333 0 -46.666 -8.66699 -57.999 -26l-101 -152h-22l41 218h443l-301 -462h101c16 0 28 1.83301 36 5.5s17.333 11.834 28 24.501l128 155h22l-67 -225h-442z" />
    <glyph glyph-name="Zcaron" unicode="&#x17d;" horiz-adv-x="730" 
d="M213 992h33l140 -64l140 64h33l-165 -159h-16zM10 0v12l484 702h-210c-10 0 -17 -1 -21 -3s-9.33301 -7 -16 -15l-183 -209h-22l77 271h572v-12l-481 -702h262c10 0 17 1 21 3s9.33301 7 16 15l183 209h22l-77 -271h-627z" />
    <glyph glyph-name="zcaron" unicode="&#x17e;" horiz-adv-x="547" 
d="M116 810h29l141 -86l141 86h29l-164 -201h-12zM21 0l301.999 461.999h-110c-27.333 0 -46.666 -8.66699 -57.999 -26l-101 -152h-22l41 218h443l-301 -462h101c16 0 28 1.83301 36 5.5s17.333 11.834 28 24.501l128 155h22l-67 -225h-442z" />
    <glyph glyph-name="uni018F" unicode="&#x18f;" horiz-adv-x="826" 
d="M410 -13c-94.667 0 -177.836 28.6699 -249.503 86.0029s-112.5 134.666 -122.5 231.999h593c-0.666992 121.333 -29.667 213.333 -87 276s-129.333 94 -216 94c-28.667 0 -56.5 -4.16699 -83.5 -12.5s-53 -20.833 -78 -37.5s-46.167 -40.334 -63.5 -71.001
s-28.666 -66 -33.999 -106h-35c6 102.667 43.167 183.5 111.5 242.5s153.5 88.5 255.5 88.5c50.667 0 98.667 -8.33301 144 -25s86.333 -40.834 123 -72.501s65.834 -73.334 87.501 -125.001s32.5 -109.5 32.5 -173.5c0.666992 -121.333 -35.166 -217.666 -107.499 -288.999
s-162.5 -107 -270.5 -107zM409.998 35.0029c56.667 0 105.667 19.501 147 58.501s65.333 88.5 72 148.5h-416c8.66699 -64.667 30.667 -115.334 66 -152.001s79 -55 131 -55z" />
    <glyph glyph-name="Scommaaccent" unicode="&#x218;" horiz-adv-x="632" 
d="M310 -13c-84 0 -155.669 12.333 -215.002 37l-47 246h22l140 -196c12.667 -18.667 28.334 -30.334 47.001 -35.001c18 -4 37.333 -6 58 -6c42 0 77 10.167 105 30.5s42 49.5 42 87.5c0 37.333 -13.167 68.5 -39.5 93.5s-66.5 45.833 -120.5 62.5l-54 17
c-126.667 39.333 -190 118 -190 236c0 48 14.333 89.167 43 123.5s64.334 58.833 107.001 73.5s89.667 22 141 22c58 0 110.333 -9 157 -27l48 -235h-22l-140 186c-10.667 14.667 -22 23.334 -34 26.001c-10 2 -20.667 3 -32 3c-40 0 -73.833 -10 -101.5 -30
s-41.5 -48.333 -41.5 -85c0 -62 36.333 -104.667 109 -128l54 -17c80 -25.333 140.5 -57 181.5 -95s61.5 -90.333 61.5 -157c0 -70 -28.5 -126.333 -85.5 -169s-121.5 -64 -193.5 -64zM263.998 -378l-14 28.002c60.667 30 91 64 91 102c0 44.667 -30 72 -90 82
c-0.666992 24.667 5.66602 44.167 18.999 58.5s32 21.5 56 21.5c30 0 55.167 -11 75.5 -33s30.5 -48 30.5 -78c0 -38.667 -16.167 -73.334 -48.5 -104.001s-72.166 -56.334 -119.499 -77.001z" />
    <glyph glyph-name="scommaaccent" unicode="&#x219;" horiz-adv-x="472" 
d="M209 -13c-47.333 0 -95.9961 8 -145.996 24l-16 178h22l76 -124l8 -11.5c2.66699 -3.66699 5.16699 -6.83398 7.5 -9.50098s5.16602 -5 8.49902 -7s6 -3.66699 8 -5s4.66699 -2.5 8 -3.5s5.83301 -1.66699 7.5 -2s4.5 -0.666016 8.5 -0.999023s6.66699 -0.5 8 -0.5h8.5
h8.5c24 0 44.333 6.66699 61 20s25 31 25 53c0 44 -25.667 71.667 -77 83l-53 12c-41.333 9.33301 -74 28.166 -98 56.499s-36 63.833 -36 106.5c0 50.667 21.167 90.834 63.5 120.501s92.833 44.5 151.5 44.5c51.333 0 96 -6.66699 134 -20l19 -170h-22l-85 122
c-6.66699 10 -13.834 17.333 -21.501 22s-14.334 7.5 -20.001 8.5s-13.834 1.5 -24.501 1.5c-24 0 -43.5 -6.5 -58.5 -19.5s-22.5 -30.833 -22.5 -53.5c0 -44.667 25.667 -72.667 77 -84l43 -9c102.667 -22 154 -75.333 154 -160c0 -50 -21.5 -91.167 -64.5 -123.5
s-97.167 -48.5 -162.5 -48.5zM169.004 -378l-14 28.002c60.667 30 91 64 91 102c0 44.667 -30 72 -90 82c-0.666992 24.667 5.66602 44.167 18.999 58.5s32 21.5 56 21.5c30 0 55.167 -11 75.5 -33s30.5 -48 30.5 -78c0 -38.667 -16.167 -73.334 -48.5 -104.001
s-72.166 -56.334 -119.499 -77.001z" />
    <glyph glyph-name="Tcommaaccent" unicode="&#x21a;" horiz-adv-x="774" 
d="M193 0l-0.00195312 38l70 4c18 1.33301 29.833 4.66602 35.5 9.99902s8.5 17.666 8.5 36.999v628h-107c-11.333 0 -19.166 -1 -23.499 -3s-8.83301 -7 -13.5 -15l-128 -212h-22l22 271h704l22 -271h-22l-128 212c-4.66699 8 -9.16699 13 -13.5 15s-12.166 3 -23.499 3
h-107v-628c0 -19.333 2.83301 -31.666 8.5 -36.999s17.5 -8.66602 35.5 -9.99902l70 -4v-38h-388zM310.998 -378l-14 28.002c60.667 30 91 64 91 102c0 44.667 -30 72 -90 82c-0.666992 24.667 5.66602 44.167 18.999 58.5s32 21.5 56 21.5c30 0 55.167 -11 75.5 -33
s30.5 -48 30.5 -78c0 -38.667 -16.167 -73.334 -48.5 -104.001s-72.166 -56.334 -119.499 -77.001z" />
    <glyph glyph-name="tcommaaccent" unicode="&#x21b;" horiz-adv-x="429" 
d="M231 -7c-44.667 0 -78 8.66797 -100 26.001s-33 50.666 -33 99.999v306h-101v6l242 200h7v-129h200l-48 -77h-152v-272c0 -36 5.66699 -61 17 -75s29 -21 53 -21c24.667 0 51.667 9.66699 81 29l16 -26c-22 -18 -49.333 -33.667 -82 -47s-66 -20 -100 -20zM133 -377.999
l-14 28.002c60.667 30 91 64 91 102c0 44.667 -30 72 -90 82c-0.666992 24.667 5.66602 44.167 18.999 58.5s32 21.5 56 21.5c30 0 55.167 -11 75.5 -33s30.5 -48 30.5 -78c0 -38.667 -16.167 -73.334 -48.5 -104.001s-72.166 -56.334 -119.499 -77.001z" />
    <glyph glyph-name="uni0232" unicode="&#x232;" horiz-adv-x="760" 
d="M270 872v68h314v-68h-314zM186 0l-0.00195312 37.999l70 4c18 1.33301 29.833 4.66602 35.5 9.99902s8.5 17.666 8.5 36.999v253l-220 331c-11.333 17.333 -20.666 28.666 -27.999 33.999s-19.333 9 -36 11l-33 4v36h350v-36l-43 -4
c-40 -3.33301 -51.333 -18.333 -34 -45l180 -276l184 276c8.66699 16.667 10 27.834 4 33.501s-18.667 9.5 -38 11.5l-43 4v36h234v-36l-33 -4c-16.667 -2 -28.667 -5.66699 -36 -11s-16.666 -16.666 -27.999 -33.999l-220 -332v-252c0 -19.333 2.83301 -31.666 8.5 -36.999
s17.5 -8.66602 35.5 -9.99902l70 -4v-38h-388z" />
    <glyph glyph-name="uni0233" unicode="&#x233;" horiz-adv-x="555" 
d="M159 669v68h314v-68h-314zM210 -88l38 83l-179 418c-8.66699 20 -16.5 33.667 -23.5 41s-18.833 12 -35.5 14l-16 2v32h286v-32l-21 -2c-34 -2.66699 -44.667 -19 -32 -49l102 -247l99 219c20.667 46 11.667 71.333 -27 76l-28 3v32h198v-32l-20 -2
c-17.333 -2 -30.5 -7.16699 -39.5 -15.5s-18.5 -23.166 -28.5 -44.499l-248 -542c-20.667 -44 -40 -75.167 -58 -93.5s-40.667 -27.5 -68 -27.5c-21.333 0 -38.5 7.16699 -51.5 21.5s-19.5 32.166 -19.5 53.499c0 30 15.833 54.167 47.5 72.5s73.167 24.833 124.5 19.5z" />
    <glyph glyph-name="dotlessj" unicode="&#x237;" horiz-adv-x="307" 
d="M-32 -263l-19 26.998c28 24.667 48.5 43.834 61.5 57.501s26.667 31.5 41 53.5s24 46 29 72s7.5 57.667 7.5 95v315l-76 72v6l224 94v-480c0 -51.333 -8.66699 -92.166 -26 -122.499s-45.333 -59.5 -84 -87.5c-45.333 -32.667 -98 -66.667 -158 -102z" />
    <glyph glyph-name="uni0259" unicode="&#x259;" horiz-adv-x="578" 
d="M291 521c80.667 0 144.833 -24.833 192.5 -74.5s71.5 -112.5 71.5 -188.5c0 -79.333 -26.333 -144.333 -79 -195s-113.334 -76 -182.001 -76c-64 0 -117.333 17.333 -160 52s-70.667 85.667 -84 153h355c-0.666992 67.333 -17.667 123 -51 167s-78 66 -134 66
c-36 0 -69.167 -10.5 -99.5 -31.5s-50.166 -51.5 -59.499 -91.5h-29c11.333 72 39.333 126.5 84 163.5s103 55.5 175 55.5zM299.999 21c28 0 50.999 11.332 68.999 33.999s29.333 54.334 34 95.001h-189c2.66699 -86 31.334 -129 86.001 -129z" />
    <glyph glyph-name="uni02BB" unicode="&#x2bb;" horiz-adv-x="282" 
d="M230 809l17.002 -32.999c-62.667 -36.667 -94 -80 -94 -130c0 -47.333 32 -78 96 -92c1.33301 -30.667 -7.83398 -56.834 -27.501 -78.501s-45.5 -32.5 -77.5 -32.5c-30 0 -54.667 10 -74 30s-29 47.333 -29 82c0 46.667 17.167 93 51.5 139s80.166 84.333 137.499 115z
" />
    <glyph glyph-name="uni02BC" unicode="&#x2bc;" horiz-adv-x="290" 
d="M68 429l-17.002 32.999c62.667 36.667 94 80 94 130c0 47.333 -32 78 -96 92c-1.33301 30.667 7.83398 56.834 27.501 78.501s45.5 32.5 77.5 32.5c30 0 54.667 -10 74 -30s29 -47.333 29 -82c0 -46.667 -17.167 -93 -51.5 -139s-80.166 -84.333 -137.499 -115z" />
    <glyph glyph-name="circumflex" unicode="&#x2c6;" 
d="M-170 609l164 201h12l164 -201h-29l-141 86l-141 -86h-29z" />
    <glyph glyph-name="caron" unicode="&#x2c7;" 
d="M-170 810h29l141 -86l141 86h29l-164 -201h-12z" />
    <glyph glyph-name="breve" unicode="&#x2d8;" 
d="M-163 628c-14.667 0 -29.498 2 -44.498 6s-31.333 11 -49 21s-32.834 26.5 -45.501 49.5s-20.667 50.833 -24 83.5h58c4.66699 -33.333 16.5 -59.333 35.5 -78s42.167 -28 69.5 -28s50.5 9.33301 69.5 28s30.833 44.667 35.5 78h58
c-3.33301 -32.667 -11.333 -60.5 -24 -83.5s-27.834 -39.5 -45.501 -49.5s-34 -17 -49 -21s-29.833 -6 -44.5 -6z" />
    <glyph glyph-name="dotaccent" unicode="&#x2d9;" 
d="M-68 636c-19.333 0 -35.5 6.66699 -48.5 20s-19.5 29.666 -19.5 48.999c0 20 6.5 36.5 19.5 49.5s29.167 19.5 48.5 19.5s35.5 -6.5 48.5 -19.5s19.5 -29.5 19.5 -49.5c0 -19.333 -6.5 -35.666 -19.5 -48.999s-29.167 -20 -48.5 -20z" />
    <glyph glyph-name="ring" unicode="&#x2da;" 
d="M-124 585c-34 0 -63.167 11.667 -87.5 35s-36.5 51.666 -36.5 84.999s12.167 61.833 36.5 85.5s53.5 35.5 87.5 35.5c35.333 0 65.333 -11.833 90 -35.5s37 -52.167 37 -85.5s-12.333 -61.666 -37 -84.999s-54.667 -35 -90 -35zM-124 638c20.667 0 36.834 6 48.501 18
s17.5 28.333 17.5 49s-5.83301 36.834 -17.5 48.501s-27.834 17.5 -48.501 17.5c-20 0 -35.833 -5.83301 -47.5 -17.5s-17.5 -27.834 -17.5 -48.501s5.83301 -37 17.5 -49s27.5 -18 47.5 -18z" />
    <glyph glyph-name="ogonek" unicode="&#x2db;" 
d="M-3 -234c-30 0 -55.833 7.66699 -77.5 23s-32.5 36 -32.5 62c0 24.667 12.667 50.167 38 76.5s56 50.5 92 72.5h30c-45.333 -45.333 -68 -87 -68 -125s24 -57 72 -57c15.333 0 31.333 2 48 6v-31c-36 -18 -70 -27 -102 -27z" />
    <glyph glyph-name="tilde" unicode="&#x2dc;" 
d="M73 645c-23.333 0 -51.165 9.66602 -83.498 28.999s-56.833 29 -73.5 29c-34 0 -52.667 -18 -56 -54h-21c0 40.667 8 75.334 24 104.001s40 43 72 43c19.333 0 45.833 -9.66699 79.5 -29s57.5 -29 71.5 -29c34 0 52 16.667 54 50h21
c-0.666992 -50 -9.33398 -86.333 -26.001 -109s-37.334 -34 -62.001 -34z" />
    <glyph glyph-name="hungarumlaut" unicode="&#x2dd;" 
d="M-234 609l110 179h148v-11l-230 -168h-28zM-55 609l110 179h148v-11l-230 -168h-28z" />
    <glyph glyph-name="uni0401" unicode="&#x401;" horiz-adv-x="777" 
d="M281 837c-20 0 -36.667 6.83301 -50 20.5s-20 30.5 -20 50.5c0 20.667 6.66699 37.667 20 51s30 20 50 20c19.333 0 35.833 -6.83301 49.5 -20.5s20.5 -30.5 20.5 -50.5s-6.83301 -36.833 -20.5 -50.5s-30.167 -20.5 -49.5 -20.5zM507 837
c-20 0 -36.667 6.83301 -50 20.5s-20 30.5 -20 50.5c0 20.667 6.66699 37.667 20 51s30 20 50 20c19.333 0 35.833 -6.83301 49.5 -20.5s20.5 -30.5 20.5 -50.5s-6.83301 -36.833 -20.5 -50.5s-30.167 -20.5 -49.5 -20.5zM42 0l-0.000976562 36l45 4
c18 1.33301 29.833 5 35.5 11s8.5 18.667 8.5 38v580c0 19.333 -2.83301 32 -8.5 38s-17.5 9.66699 -35.5 11l-45 4v36h596l37 -271h-22l-143 207c-5.33301 8 -10.166 13 -14.499 15s-11.833 3 -22.5 3h-182v-293h116c8.66699 0 14.334 3.66699 17.001 11l48 131h22v-336
h-22l-48 131c-2.66699 7.33301 -8.33398 11 -17.001 11h-116v-321h227c8.66699 0 14.5 0.833008 17.5 2.5s7.5 5.5 13.5 11.5l184 211h22l-75 -271h-638z" />
    </font>
</defs>
</svg>
